999
FreeCAD v0.20 29410 (Git)
  0
SECTION
  2
HEADER
  9
$ACADVER
  1
AC1014
  9
$ACADMAINTVER
 70
     9
  9
$DWGCODEPAGE
  3
ANSI_1252
  9
$TEXTSTYLE
  7
STANDARD
  9
$DIMSTYLE
  2
STANDARD
  9
$DIMTXSTY
  7
STANDARD
  9
$CMLSTYLE
  2
STANDARD
  9
$LUNITS
 70
2
  9
$INSUNITS
 70
4
  9
$PEXTMAX
 10
50
 20
50
 30
50
  9
$PEXTMIN
 10
0
 20
0
 30
0
  9
$HANDSEED
  5
FFFF
  0
ENDSEC
  0
SECTION
  2
CLASSES
  0
CLASS
  1
ACDBDICTIONARYWDFLT
  2
AcDbDictionaryWithDefault
  3
ObjectDBX Classes
 90
        0
280
     0
281
     0
  0
CLASS
  1
XRECORD
  2
AcDbXrecord
  3
ObjectDBX Classes
 90
        0
280
     0
281
     0
  0
CLASS
  1
LWPOLYLINE
  2
AcDbPolyline
  3
ObjectDBX Classes
 90
        0
280
     0
281
     1
  0
ENDSEC
  0
SECTION
  2
TABLES
  0
TABLE
  2
VPORT
  5
20
330
0
100
AcDbSymbolTable
 70
     1
  0
VPORT
  5
21
330
20
100
AcDbSymbolTableRecord
100
AcDbViewportTableRecord
  2
*ACTIVE
 70
     0
  0
ENDTAB
  0
TABLE
  2
LTYPE
  5
22
330
0
100
AcDbSymbolTable
 70
     1
  0
LTYPE
  5
23
330
21
100
AcDbSymbolTableRecord
100
AcDbLinetypeTableRecord
  2
BYBLOCK
 70
     0
  3

 72
    65
 73
     0
 40
0.0
  0
LTYPE
  5
24
330
21
100
AcDbSymbolTableRecord
100
AcDbLinetypeTableRecord
  2
BYLAYER
 70
     0
  3

 72
    65
 73
     0
 40
0.0
  0
LTYPE
  5
25
330
21
100
AcDbSymbolTableRecord
100
AcDbLinetypeTableRecord
  2
CONTINUOUS
 70
     0
  3
Solid line
 72
    65
 73
     0
 40
0.0
  0
ENDTAB
  0
TABLE
  2
LAYER
  5
A12
330
0
100
AcDbSymbolTable
 70
7
  0
LAYER
  5
A13
330
A12
100
AcDbSymbolTableRecord
100
AcDbLayerTableRecord
  2
0
 70
   0
 62
   7
  6
CONTINUOUS
  0
LAYER
  5
A14
330
A12
100
AcDbSymbolTableRecord
100
AcDbLayerTableRecord
  2
none
 70
    0
 62
    7
  6
CONTINUOUS
  0
LAYER
  5
A15
330
A12
100
AcDbSymbolTableRecord
100
AcDbLayerTableRecord
  2
Shape2DView
 70
    0
 62
    7
  6
CONTINUOUS
  0
LAYER
  5
A16
330
A12
100
AcDbSymbolTableRecord
100
AcDbLayerTableRecord
  2
Shape2DView004
 70
    0
 62
    7
  6
CONTINUOUS
  0
LAYER
  5
A17
330
A12
100
AcDbSymbolTableRecord
100
AcDbLayerTableRecord
  2
Shape2DView001
 70
    0
 62
    7
  6
CONTINUOUS
  0
LAYER
  5
A18
330
A12
100
AcDbSymbolTableRecord
100
AcDbLayerTableRecord
  2
Shape2DView002
 70
    0
 62
    7
  6
CONTINUOUS
  0
LAYER
  5
A19
330
A12
100
AcDbSymbolTableRecord
100
AcDbLayerTableRecord
  2
Shape2DView003
 70
    0
 62
    7
  6
CONTINUOUS
  0
ENDTAB
  0
TABLE
  2
STYLE
  5
70
330
0
100
AcDbSymbolTable
 70
     2
  0
STYLE
  5
71
330
70
100
AcDbSymbolTableRecord
100
AcDbTextStyleTableRecord
  2
STANDARD
 70
     0
 40
0.0
 41
1.0
 50
0.0
 71
     0
 42
2.5
  3
arial.ttf
  4

  0
STYLE
  5
72
330
70
100
AcDbSymbolTableRecord
100
AcDbTextStyleTableRecord
  2
ANNOTATIVE
 70
     0
 40
0.0
 41
1.0
 50
0.0
 71
     0
 42
2.5
  3
arial.ttf
  4

  0
ENDTAB
  0
TABLE
  2
VIEW
  5
73
330
0
100
AcDbSymbolTable
 70
     0
  0
ENDTAB
  0
TABLE
  2
UCS
  5
74
330
0
100
AcDbSymbolTable
 70
     0
  0
ENDTAB
  0
TABLE
  2
APPID
  5
75
330
0
100
AcDbSymbolTable
 70
     2
  0
APPID
  5
76
330
75
100
AcDbSymbolTableRecord
100
AcDbRegAppTableRecord
  2
ACAD
 70
     0
  0
APPID
  5
77
330
75
100
AcDbSymbolTableRecord
100
AcDbRegAppTableRecord
  2
ACADANNOTATIVE
 70
     0
  0
ENDTAB
  0
TABLE
  2
DIMSTYLE
  5
78
330
0
100
AcDbSymbolTable
 70
     2
  0
DIMSTYLE
105
79
330
78
100
AcDbSymbolTableRecord
100
AcDbDimStyleTableRecord
  2
STANDARD
 70
     0
  3

  4

  5

  6

  7

 40
0.0
 41
2.5
 42
0.625
 43
3.75
 44
1.25
 45
0.0
 46
0.0
 47
0.0
 48
0.0
140
2.5
141
2.5
142
0.0
143
0.03937007874016
144
1.0
145
0.0
146
1.0
147
0.625
 71
     0
 72
     0
 73
     0
 74
     0
 75
     0
 76
     0
 77
     1
 78
     8
170
     0
171
     3
172
     1
173
     0
174
     0
175
     0
176
     0
177
     0
178
     0
270
     2
271
     2
272
     2
273
     2
274
     3
340
71
275
     0
280
     0
281
     0
282
     0
283
     0
284
     8
285
     0
286
     0
287
     3
288
     0
  0
ENDTAB
  0
TABLE
  2
BLOCK_RECORD
  5
A01
330
0
100
AcDbSymbolTable
  70
5
  0
BLOCK_RECORD
  5
A02
330
A01
100
AcDbSymbolTableRecord
100
AcDbBlockTableRecord
  2
*MODEL_SPACE
  0
BLOCK_RECORD
  5
A03
330
A01
100
AcDbSymbolTableRecord
100
AcDbBlockTableRecord
  2
*PAPER_SPACE
  0
ENDTAB
  0
ENDSEC
  0
SECTION
  2
BLOCKS
  0
BLOCK
  5
A04
330
A02
100
AcDbEntity
  8
0
100
AcDbBlockBegin
  2
*MODEL_SPACE
 70
   0
 10
0
 20
0
 30
0
  3
*MODEL_SPACE
  1
 
  0
ENDBLK
  5
A05
330
A02
100
AcDbEntity
  8
0
100
AcDbBlockEnd
  0
BLOCK
  5
A06
330
A03
100
AcDbEntity
 67
1
  8
0
100
AcDbBlockBegin
  2
*PAPER_SPACE
 70
   0
 10
0
 20
0
 30
0
  3
*PAPER_SPACE
  1
 
  0
ENDBLK
  5
A07
330
A03
100
AcDbEntity
 67
    1
  8
0
100
AcDbBlockEnd
  0
ENDSEC
  0
SECTION
  2
ENTITIES
  0
SPLINE
  5
A08
330
A02
100
AcDbEntity
  8
Shape2DView
100
AcDbSpline
210
0
220
0
230
1
 70
8
 71
3
 72
50
 73
46
 74
0
 40
0
 40
0
 40
0
 40
0
 40
0.262597
 40
0.262597
 40
0.262597
 40
0.505344
 40
0.505344
 40
0.505344
 40
0.63013
 40
0.63013
 40
0.63013
 40
0.773759
 40
0.773759
 40
0.773759
 40
0.79972
 40
0.79972
 40
0.79972
 40
0.824525
 40
0.824525
 40
0.824525
 40
0.848087
 40
0.848087
 40
0.848087
 40
0.869973
 40
0.869973
 40
0.869973
 40
0.892212
 40
0.892212
 40
0.892212
 40
0.913139
 40
0.913139
 40
0.913139
 40
0.966609
 40
0.966609
 40
0.966609
 40
0.980975
 40
0.980975
 40
0.980975
 40
1.00424
 40
1.00424
 40
1.00424
 40
1.02064
 40
1.02064
 40
1.02064
 40
1.03248
 40
1.03248
 40
1.03248
 40
1.03248
 10
3.29529
 20
100
 30
37.2779
 10
1.85679
 20
91.3657
 30
37.2779
 10
0.609546
 20
82.7001
 30
37.2779
 10
-0.492932
 20
74.0167
 30
37.2779
 10
-1.50762
 20
65.9891
 30
37.2779
 10
-2.40037
 20
57.9453
 30
37.2779
 10
-3.09376
 20
49.8833
 30
37.2779
 10
-3.44857
 20
45.739
 30
37.2779
 10
-3.74848
 20
41.5897
 30
37.2779
 10
-3.96393
 20
37.4356
 30
37.2779
 10
-4.21009
 20
32.6546
 30
37.2779
 10
-4.34928
 20
27.8663
 30
37.2779
 10
-4.2854
 20
23.0787
 30
37.2779
 10
-4.27452
 20
22.2133
 30
37.2779
 10
-4.25529
 20
21.3482
 30
37.2779
 10
-4.22771
 20
20.4833
 30
37.2779
 10
-4.19928
 20
19.6571
 30
37.2779
 10
-4.1658
 20
18.8309
 30
37.2779
 10
-4.12726
 20
18.0048
 30
37.2779
 10
-4.09203
 20
17.22
 30
37.2779
 10
-4.05616
 20
16.4348
 30
37.2779
 10
-3.9841
 20
15.653
 30
37.2779
 10
-3.91717
 20
14.9268
 30
37.2779
 10
-3.81902
 20
14.2034
 30
37.2779
 10
-3.71962
 20
13.4804
 30
37.2779
 10
-3.61861
 20
12.7458
 30
37.2779
 10
-3.51631
 20
12.0115
 30
37.2779
 10
-3.38992
 20
11.2811
 30
37.2779
 10
-3.27079
 20
10.5936
 30
37.2779
 10
-3.13089
 20
9.91016
 30
37.2779
 10
-2.97021
 20
9.2309
 30
37.2779
 10
-2.55981
 20
7.49746
 30
37.2779
 10
-2.01842
 20
5.78797
 30
37.2779
 10
-1.25071
 20
4.17742
 30
37.2779
 10
-1.04471
 20
3.74456
 30
37.2779
 10
-0.819644
 20
3.32187
 30
37.2779
 10
-0.575511
 20
2.90935
 30
37.2779
 10
-0.178321
 20
2.24401
 30
37.2779
 10
0.270698
 20
1.60438
 30
37.2779
 10
0.812121
 20
1.04729
 30
37.2779
 10
1.19478
 20
0.659152
 30
37.2779
 10
1.62435
 20
0.300742
 30
37.2779
 10
2.13285
 20
0.0887361
 30
37.2779
 10
2.50113
 20
-0.0616131
 30
37.2779
 10
2.90709
 20
-0.12322
 30
37.2779
 10
3.29529
 20
-6.93889e-18
 30
37.2779
  0
SPLINE
  5
A09
330
A02
100
AcDbEntity
  8
Shape2DView
100
AcDbSpline
210
0
220
0
230
1
 70
8
 71
3
 72
47
 73
43
 74
0
 40
0
 40
0
 40
0
 40
0
 40
0.0117663
 40
0.0117663
 40
0.0117663
 40
0.0273092
 40
0.0273092
 40
0.0273092
 40
0.0481195
 40
0.0481195
 40
0.0481195
 40
0.0605719
 40
0.0605719
 40
0.0605719
 40
0.0896095
 40
0.0896095
 40
0.0896095
 40
0.124379
 40
0.124379
 40
0.124379
 40
0.144056
 40
0.144056
 40
0.144056
 40
0.166842
 40
0.166842
 40
0.166842
 40
0.190576
 40
0.190576
 40
0.190576
 40
0.24158
 40
0.24158
 40
0.24158
 40
0.385206
 40
0.385206
 40
0.385206
 40
0.509466
 40
0.509466
 40
0.509466
 40
0.750393
 40
0.750393
 40
0.750393
 40
1.01017
 40
1.01017
 40
1.01017
 40
1.01017
 10
3.29529
 20
-5.55112e-17
 30
37.2779
 10
3.68215
 20
0.115863
 30
37.2779
 10
3.98564
 20
0.383576
 30
37.2779
 10
4.22216
 20
0.699794
 30
37.2779
 10
4.53201
 20
1.11884
 30
37.2779
 10
4.73162
 20
1.60469
 30
37.2779
 10
4.89765
 20
2.09439
 30
37.2779
 10
5.11641
 20
2.75335
 30
37.2779
 10
5.26713
 20
3.43226
 30
37.2779
 10
5.39902
 20
4.113
 30
37.2779
 10
5.47666
 20
4.52082
 30
37.2779
 10
5.54769
 20
4.92977
 30
37.2779
 10
5.61211
 20
5.33988
 30
37.2779
 10
5.76344
 20
6.29595
 30
37.2779
 10
5.89101
 20
7.25556
 30
37.2779
 10
6.01361
 20
8.21566
 30
37.2779
 10
6.16104
 20
9.36528
 30
37.2779
 10
6.29422
 20
10.5165
 30
37.2779
 10
6.43
 20
11.6676
 30
37.2779
 10
6.51019
 20
12.3187
 30
37.2779
 10
6.58413
 20
12.9704
 30
37.2779
 10
6.65183
 20
13.6227
 30
37.2779
 10
6.72696
 20
14.3785
 30
37.2779
 10
6.78236
 20
15.1362
 30
37.2779
 10
6.85455
 20
15.8923
 30
37.2779
 10
6.92974
 20
16.6799
 30
37.2779
 10
7.02314
 20
17.4656
 30
37.2779
 10
7.10178
 20
18.2528
 30
37.2779
 10
7.26703
 20
19.9449
 30
37.2779
 10
7.38184
 20
21.6418
 30
37.2779
 10
7.48428
 20
23.3386
 30
37.2779
 10
7.75915
 20
28.1186
 30
37.2779
 10
7.83214
 20
32.9083
 30
37.2779
 10
7.79692
 20
37.6954
 30
37.2779
 10
7.76489
 20
41.8373
 30
37.2779
 10
7.64823
 20
45.9783
 30
37.2779
 10
7.47596
 20
50.1167
 30
37.2779
 10
7.13883
 20
58.1407
 30
37.2779
 10
6.60109
 20
66.1553
 30
37.2779
 10
5.93903
 20
74.1587
 30
37.2779
 10
5.22031
 20
82.788
 30
37.2779
 10
4.35548
 20
91.4058
 30
37.2779
 10
3.29529
 20
100
 30
37.2779
  0
SPLINE
  5
A0A
330
A02
100
AcDbEntity
  8
Shape2DView004
100
AcDbSpline
210
0
220
0
230
1
 70
8
 71
3
 72
44
 73
40
 74
0
 40
0
 40
0
 40
0
 40
0
 40
0.262597
 40
0.262597
 40
0.262597
 40
0.505344
 40
0.505344
 40
0.505344
 40
0.63013
 40
0.63013
 40
0.63013
 40
0.773759
 40
0.773759
 40
0.773759
 40
0.79972
 40
0.79972
 40
0.79972
 40
0.824525
 40
0.824525
 40
0.824525
 40
0.848087
 40
0.848087
 40
0.848087
 40
0.869973
 40
0.869973
 40
0.869973
 40
0.913139
 40
0.913139
 40
0.913139
 40
0.966609
 40
0.966609
 40
0.966609
 40
1.00424
 40
1.00424
 40
1.00424
 40
1.02064
 40
1.02064
 40
1.02064
 40
1.03248
 40
1.03248
 40
1.03248
 40
1.03248
 10
20
 20
55
 30
0
 10
20.7912
 20
50.2511
 30
0
 10
21.4772
 20
45.485
 30
0
 10
22.0835
 20
40.7092
 30
0
 10
22.6416
 20
36.294
 30
0
 10
23.1326
 20
31.8699
 30
0
 10
23.514
 20
27.4358
 30
0
 10
23.7118
 20
25.1564
 30
0
 10
23.8714
 20
22.8743
 30
0
 10
23.9926
 20
20.5896
 30
0
 10
24.128
 20
17.96
 30
0
 10
24.2045
 20
15.3265
 30
0
 10
24.1694
 20
12.6933
 30
0
 10
24.1634
 20
12.2173
 30
0
 10
24.1528
 20
11.7415
 30
0
 10
24.1377
 20
11.2658
 30
0
 10
24.122
 20
10.8114
 30
0
 10
24.1036
 20
10.357
 30
0
 10
24.0824
 20
9.90265
 30
0
 10
24.0663
 20
9.47065
 30
0
 10
24.04
 20
9.03947
 30
0
 10
24.0037
 20
8.60913
 30
0
 10
23.9641
 20
8.20995
 30
0
 10
23.9156
 20
7.81165
 30
0
 10
23.8582
 20
7.41425
 30
0
 10
23.7535
 20
6.62971
 30
0
 10
23.6315
 20
5.84709
 30
0
 10
23.446
 20
5.077
 30
0
 10
23.2203
 20
4.1236
 30
0
 10
22.9225
 20
3.18338
 30
0
 10
22.5003
 20
2.29758
 30
0
 10
22.2008
 20
1.67795
 30
0
 10
21.8457
 20
1.07467
 30
0
 10
21.3657
 20
0.57601
 30
0
 10
21.1553
 20
0.362534
 30
0
 10
20.919
 20
0.165408
 30
0
 10
20.6393
 20
0.0488049
 30
0
 10
20.4368
 20
-0.0338872
 30
0
 10
20.2135
 20
-0.0677711
 30
0
 10
20
 20
-6.93889e-18
 30
0
  0
SPLINE
  5
A0B
330
A02
100
AcDbEntity
  8
Shape2DView004
100
AcDbSpline
210
0
220
0
230
1
 70
8
 71
3
 72
41
 73
37
 74
0
 40
0
 40
0
 40
0
 40
0
 40
0.0117663
 40
0.0117663
 40
0.0117663
 40
0.0273092
 40
0.0273092
 40
0.0273092
 40
0.0605719
 40
0.0605719
 40
0.0605719
 40
0.124379
 40
0.124379
 40
0.124379
 40
0.144056
 40
0.144056
 40
0.144056
 40
0.166842
 40
0.166842
 40
0.166842
 40
0.190576
 40
0.190576
 40
0.190576
 40
0.24158
 40
0.24158
 40
0.24158
 40
0.385206
 40
0.385206
 40
0.385206
 40
0.509466
 40
0.509466
 40
0.509466
 40
0.750393
 40
0.750393
 40
0.750393
 40
1.01017
 40
1.01017
 40
1.01017
 40
1.01017
 10
20
 20
0
 30
0
 10
19.7872
 20
0.0637244
 30
0
 10
19.6203
 20
0.210967
 30
0
 10
19.4902
 20
0.384887
 30
0
 10
19.3198
 20
0.615361
 30
0
 10
19.21
 20
0.882577
 30
0
 10
19.1187
 20
1.15192
 30
0
 10
18.9287
 20
1.7323
 30
0
 10
18.8237
 20
2.33567
 30
0
 10
18.7258
 20
2.93693
 30
0
 10
18.5457
 20
4.09292
 30
0
 10
18.4133
 20
5.25557
 30
0
 10
18.2759
 20
6.41718
 30
0
 10
18.2318
 20
6.77526
 30
0
 10
18.1911
 20
7.13369
 30
0
 10
18.1539
 20
7.49248
 30
0
 10
18.1159
 20
7.90849
 30
0
 10
18.0788
 20
8.32459
 30
0
 10
18.0424
 20
8.74078
 30
0
 10
17.998
 20
9.17362
 30
0
 10
17.9527
 20
9.60638
 30
0
 10
17.9064
 20
10.039
 30
0
 10
17.8155
 20
10.9697
 30
0
 10
17.7524
 20
11.903
 30
0
 10
17.6961
 20
12.8362
 30
0
 10
17.5449
 20
15.4652
 30
0
 10
17.5047
 20
18.0996
 30
0
 10
17.5241
 20
20.7325
 30
0
 10
17.5444
 20
23.0107
 30
0
 10
17.6032
 20
25.2879
 30
0
 10
17.7006
 20
27.5642
 30
0
 10
17.8861
 20
31.9774
 30
0
 10
18.1818
 20
36.3854
 30
0
 10
18.5459
 20
40.7873
 30
0
 10
18.9412
 20
45.5334
 30
0
 10
19.4169
 20
50.2732
 30
0
 10
20
 20
55
 30
0
  0
SPLINE
  5
A0C
330
A02
100
AcDbEntity
  8
Shape2DView001
100
AcDbSpline
210
0
220
0
230
1
 70
8
 71
3
 72
50
 73
46
 74
0
 40
0
 40
0
 40
0
 40
0
 40
0.262597
 40
0.262597
 40
0.262597
 40
0.505344
 40
0.505344
 40
0.505344
 40
0.63013
 40
0.63013
 40
0.63013
 40
0.773759
 40
0.773759
 40
0.773759
 40
0.79972
 40
0.79972
 40
0.79972
 40
0.824525
 40
0.824525
 40
0.824525
 40
0.848087
 40
0.848087
 40
0.848087
 40
0.869973
 40
0.869973
 40
0.869973
 40
0.892212
 40
0.892212
 40
0.892212
 40
0.913139
 40
0.913139
 40
0.913139
 40
0.966609
 40
0.966609
 40
0.966609
 40
0.980975
 40
0.980975
 40
0.980975
 40
1.00424
 40
1.00424
 40
1.00424
 40
1.02064
 40
1.02064
 40
1.02064
 40
1.03248
 40
1.03248
 40
1.03248
 40
1.03248
 10
-27.95
 20
74.9642
 30
0
 10
-29.033
 20
68.4916
 30
0
 10
-29.9725
 20
61.9954
 30
0
 10
-30.8035
 20
55.486
 30
0
 10
-31.5684
 20
49.4682
 30
0
 10
-32.2418
 20
43.4382
 30
0
 10
-32.7657
 20
37.3946
 30
0
 10
-33.0339
 20
34.2878
 30
0
 10
-33.2608
 20
31.1773
 30
0
 10
-33.4244
 20
28.0633
 30
0
 10
-33.6114
 20
24.4793
 30
0
 10
-33.7182
 20
20.8898
 30
0
 10
-33.6727
 20
17.3008
 30
0
 10
-33.6649
 20
16.652
 30
0
 10
-33.6509
 20
16.0035
 30
0
 10
-33.6307
 20
15.3552
 30
0
 10
-33.6098
 20
14.7358
 30
0
 10
-33.5851
 20
14.1165
 30
0
 10
-33.5566
 20
13.4972
 30
0
 10
-33.5306
 20
12.9088
 30
0
 10
-33.5041
 20
12.3202
 30
0
 10
-33.4504
 20
11.7341
 30
0
 10
-33.4006
 20
11.1897
 30
0
 10
-33.3274
 20
10.6475
 30
0
 10
-33.2532
 20
10.1055
 30
0
 10
-33.1807
 20
9.55433
 30
0
 10
-33.0987
 20
9.00475
 30
0
 10
-33.0071
 20
8.45677
 30
0
 10
-32.9181
 20
7.94137
 30
0
 10
-32.8136
 20
7.42907
 30
0
 10
-32.6934
 20
6.91987
 30
0
 10
-32.3866
 20
5.62041
 30
0
 10
-31.9815
 20
4.33891
 30
0
 10
-31.4066
 20
3.13157
 30
0
 10
-31.2524
 20
2.80708
 30
0
 10
-31.0838
 20
2.49021
 30
0
 10
-30.901
 20
2.18097
 30
0
 10
-30.6035
 20
1.6822
 30
0
 10
-30.2671
 20
1.20271
 30
0
 10
-29.8614
 20
0.785094
 30
0
 10
-29.5747
 20
0.494128
 30
0
 10
-29.2528
 20
0.225449
 30
0
 10
-28.8716
 20
0.0665203
 30
0
 10
-28.5955
 20
-0.0461877
 30
0
 10
-28.2911
 20
-0.092371
 30
0
 10
-28
 20
0
 30
0
  0
SPLINE
  5
A0D
330
A02
100
AcDbEntity
  8
Shape2DView001
100
AcDbSpline
210
0
220
0
230
1
 70
8
 71
3
 72
41
 73
37
 74
0
 40
0
 40
0
 40
0
 40
0
 40
0.0117663
 40
0.0117663
 40
0.0117663
 40
0.0273092
 40
0.0273092
 40
0.0273092
 40
0.0605719
 40
0.0605719
 40
0.0605719
 40
0.124379
 40
0.124379
 40
0.124379
 40
0.144056
 40
0.144056
 40
0.144056
 40
0.166842
 40
0.166842
 40
0.166842
 40
0.190576
 40
0.190576
 40
0.190576
 40
0.24158
 40
0.24158
 40
0.24158
 40
0.385206
 40
0.385206
 40
0.385206
 40
0.509466
 40
0.509466
 40
0.509466
 40
0.750393
 40
0.750393
 40
0.750393
 40
1.01017
 40
1.01017
 40
1.01017
 40
1.01017
 10
-28
 20
2.77556e-17
 30
0
 10
-27.7099
 20
0.0868555
 30
0
 10
-27.4822
 20
0.287544
 30
0
 10
-27.3047
 20
0.524595
 30
0
 10
-27.0721
 20
0.838728
 30
0
 10
-26.9222
 20
1.20294
 30
0
 10
-26.7975
 20
1.57004
 30
0
 10
-26.5379
 20
2.36109
 30
0
 10
-26.3942
 20
3.18348
 30
0
 10
-26.2601
 20
4.003
 30
0
 10
-26.0136
 20
5.57859
 30
0
 10
-25.8321
 20
7.16326
 30
0
 10
-25.6437
 20
8.74652
 30
0
 10
-25.5832
 20
9.23458
 30
0
 10
-25.5275
 20
9.72312
 30
0
 10
-25.4764
 20
10.2121
 30
0
 10
-25.4197
 20
10.7787
 30
0
 10
-25.3777
 20
11.3467
 30
0
 10
-25.3232
 20
11.9136
 30
0
 10
-25.2665
 20
12.5039
 30
0
 10
-25.196
 20
13.0929
 30
0
 10
-25.1367
 20
13.6831
 30
0
 10
-25.0119
 20
14.9515
 30
0
 10
-24.925
 20
16.2236
 30
0
 10
-24.8473
 20
17.4956
 30
0
 10
-24.6388
 20
21.0789
 30
0
 10
-24.5817
 20
24.6694
 30
0
 10
-24.6057
 20
28.258
 30
0
 10
-24.6277
 20
31.363
 30
0
 10
-24.7131
 20
34.4673
 30
0
 10
-24.8402
 20
37.5696
 30
0
 10
-25.089
 20
43.5847
 30
0
 10
-25.4882
 20
49.5928
 30
0
 10
-25.9806
 20
55.5925
 30
0
 10
-26.5152
 20
62.0614
 30
0
 10
-27.1594
 20
68.5216
 30
0
 10
-27.95
 20
74.9642
 30
0
  0
SPLINE
  5
A0E
330
A02
100
AcDbEntity
  8
Shape2DView002
100
AcDbSpline
210
0
220
0
230
1
 70
8
 71
3
 72
47
 73
43
 74
0
 40
0
 40
0
 40
0
 40
0
 40
0.262597
 40
0.262597
 40
0.262597
 40
0.505344
 40
0.505344
 40
0.505344
 40
0.63013
 40
0.63013
 40
0.63013
 40
0.773759
 40
0.773759
 40
0.773759
 40
0.79972
 40
0.79972
 40
0.79972
 40
0.824525
 40
0.824525
 40
0.824525
 40
0.848087
 40
0.848087
 40
0.848087
 40
0.869973
 40
0.869973
 40
0.869973
 40
0.913139
 40
0.913139
 40
0.913139
 40
0.966609
 40
0.966609
 40
0.966609
 40
0.980975
 40
0.980975
 40
0.980975
 40
1.00424
 40
1.00424
 40
1.00424
 40
1.02064
 40
1.02064
 40
1.02064
 40
1.03248
 40
1.03248
 40
1.03248
 40
1.03248
 10
-16
 20
65
 30
0
 10
-15.065
 20
59.3877
 30
0
 10
-14.2543
 20
53.755
 30
0
 10
-13.5377
 20
48.1108
 30
0
 10
-12.8781
 20
42.8929
 30
0
 10
-12.2978
 20
37.6644
 30
0
 10
-11.8471
 20
32.4241
 30
0
 10
-11.6133
 20
29.7303
 30
0
 10
-11.4248
 20
27.0333
 30
0
 10
-11.2815
 20
24.3332
 30
0
 10
-11.1215
 20
21.2255
 30
0
 10
-11.031
 20
18.1131
 30
0
 10
-11.0726
 20
15.0012
 30
0
 10
-11.0796
 20
14.4387
 30
0
 10
-11.0921
 20
13.8763
 30
0
 10
-11.11
 20
13.3142
 30
0
 10
-11.1285
 20
12.7771
 30
0
 10
-11.1503
 20
12.2401
 30
0
 10
-11.1753
 20
11.7031
 30
0
 10
-11.1982
 20
11.193
 30
0
 10
-11.2216
 20
10.6826
 30
0
 10
-11.2684
 20
10.1744
 30
0
 10
-11.3151
 20
9.70267
 30
0
 10
-11.3725
 20
9.23195
 30
0
 10
-11.4403
 20
8.76229
 30
0
 10
-11.564
 20
7.83511
 30
0
 10
-11.7082
 20
6.9102
 30
0
 10
-11.9274
 20
6.00009
 30
0
 10
-12.1942
 20
4.87335
 30
0
 10
-12.5461
 20
3.76218
 30
0
 10
-13.0451
 20
2.71532
 30
0
 10
-13.179
 20
2.43396
 30
0
 10
-13.3253
 20
2.15921
 30
0
 10
-13.484
 20
1.89108
 30
0
 10
-13.7422
 20
1.4586
 30
0
 10
-14.034
 20
1.04285
 30
0
 10
-14.3859
 20
0.68074
 30
0
 10
-14.6347
 20
0.428449
 30
0
 10
-14.9139
 20
0.195482
 30
0
 10
-15.2444
 20
0.0576785
 30
0
 10
-15.4838
 20
-0.0400485
 30
0
 10
-15.7477
 20
-0.0800931
 30
0
 10
-16
 20
0
 30
0
  0
SPLINE
  5
A0F
330
A02
100
AcDbEntity
  8
Shape2DView002
100
AcDbSpline
210
0
220
0
230
1
 70
8
 71
3
 72
41
 73
37
 74
0
 40
0
 40
0
 40
0
 40
0
 40
0.0117663
 40
0.0117663
 40
0.0117663
 40
0.0273092
 40
0.0273092
 40
0.0273092
 40
0.0605719
 40
0.0605719
 40
0.0605719
 40
0.124379
 40
0.124379
 40
0.124379
 40
0.144056
 40
0.144056
 40
0.144056
 40
0.166842
 40
0.166842
 40
0.166842
 40
0.190576
 40
0.190576
 40
0.190576
 40
0.24158
 40
0.24158
 40
0.24158
 40
0.385206
 40
0.385206
 40
0.385206
 40
0.509466
 40
0.509466
 40
0.509466
 40
0.750393
 40
0.750393
 40
0.750393
 40
1.01017
 40
1.01017
 40
1.01017
 40
1.01017
 10
-16
 20
0
 30
0
 10
-16.2515
 20
0.0753107
 30
0
 10
-16.4487
 20
0.249324
 30
0
 10
-16.6025
 20
0.454866
 30
0
 10
-16.8039
 20
0.727245
 30
0
 10
-16.9336
 20
1.04305
 30
0
 10
-17.0415
 20
1.36135
 30
0
 10
-17.2661
 20
2.04726
 30
0
 10
-17.3902
 20
2.76033
 30
0
 10
-17.5059
 20
3.47092
 30
0
 10
-17.7187
 20
4.83709
 30
0
 10
-17.8752
 20
6.21112
 30
0
 10
-18.0376
 20
7.58394
 30
0
 10
-18.0897
 20
8.00713
 30
0
 10
-18.1377
 20
8.43073
 30
0
 10
-18.1818
 20
8.85475
 30
0
 10
-18.2306
 20
9.346
 30
0
 10
-18.2666
 20
9.83854
 30
0
 10
-18.3135
 20
10.33
 30
0
 10
-18.3624
 20
10.8419
 30
0
 10
-18.4231
 20
11.3526
 30
0
 10
-18.4742
 20
11.8643
 30
0
 10
-18.5816
 20
12.9642
 30
0
 10
-18.6563
 20
14.0671
 30
0
 10
-18.7228
 20
15.1701
 30
0
 10
-18.9015
 20
18.2771
 30
0
 10
-18.9489
 20
21.3904
 30
0
 10
-18.9261
 20
24.502
 30
0
 10
-18.9021
 20
27.1944
 30
0
 10
-18.8326
 20
29.8857
 30
0
 10
-18.7174
 20
32.5759
 30
0
 10
-18.4983
 20
37.7915
 30
0
 10
-18.1488
 20
43.001
 30
0
 10
-17.7184
 20
48.2032
 30
0
 10
-17.2513
 20
53.8122
 30
0
 10
-16.6891
 20
59.4137
 30
0
 10
-16
 20
65
 30
0
  0
SPLINE
  5
A10
330
A02
100
AcDbEntity
  8
Shape2DView003
100
AcDbSpline
210
0
220
0
230
1
 70
8
 71
3
 72
44
 73
40
 74
0
 40
0
 40
0
 40
0
 40
0
 40
0.262597
 40
0.262597
 40
0.262597
 40
0.505344
 40
0.505344
 40
0.505344
 40
0.63013
 40
0.63013
 40
0.63013
 40
0.773759
 40
0.773759
 40
0.773759
 40
0.79972
 40
0.79972
 40
0.79972
 40
0.824525
 40
0.824525
 40
0.824525
 40
0.848087
 40
0.848087
 40
0.848087
 40
0.869973
 40
0.869973
 40
0.869973
 40
0.913139
 40
0.913139
 40
0.913139
 40
0.966609
 40
0.966609
 40
0.966609
 40
1.00424
 40
1.00424
 40
1.00424
 40
1.02064
 40
1.02064
 40
1.02064
 40
1.03248
 40
1.03248
 40
1.03248
 40
1.03248
 10
35
 20
60
 30
0
 10
35.8631
 20
54.8194
 30
0
 10
36.6114
 20
49.62
 30
0
 10
37.2729
 20
44.41
 30
0
 10
37.8817
 20
39.5935
 30
0
 10
38.4174
 20
34.7672
 30
0
 10
38.8334
 20
29.93
 30
0
 10
39.0493
 20
27.4434
 30
0
 10
39.2233
 20
24.9538
 30
0
 10
39.3555
 20
22.4614
 30
0
 10
39.5032
 20
19.5928
 30
0
 10
39.5867
 20
16.7198
 30
0
 10
39.5484
 20
13.8472
 30
0
 10
39.5419
 20
13.328
 30
0
 10
39.5303
 20
12.8089
 30
0
 10
39.5138
 20
12.29
 30
0
 10
39.4967
 20
11.7943
 30
0
 10
39.4767
 20
11.2986
 30
0
 10
39.4535
 20
10.8029
 30
0
 10
39.4324
 20
10.332
 30
0
 10
39.4109
 20
9.86088
 30
0
 10
39.3676
 20
9.39178
 30
0
 10
39.3245
 20
8.95631
 30
0
 10
39.2716
 20
8.5218
 30
0
 10
39.2089
 20
8.08827
 30
0
 10
39.0948
 20
7.23241
 30
0
 10
38.9616
 20
6.37864
 30
0
 10
38.7593
 20
5.53854
 30
0
 10
38.5131
 20
4.49847
 30
0
 10
38.1882
 20
3.47278
 30
0
 10
37.7276
 20
2.50645
 30
0
 10
37.4009
 20
1.83049
 30
0
 10
37.0135
 20
1.17237
 30
0
 10
36.4899
 20
0.628375
 30
0
 10
36.2603
 20
0.395491
 30
0
 10
36.0026
 20
0.180445
 30
0
 10
35.6975
 20
0.0532417
 30
0
 10
35.4765
 20
-0.0369678
 30
0
 10
35.2329
 20
-0.0739321
 30
0
 10
35
 20
0
 30
0
  0
SPLINE
  5
A11
330
A02
100
AcDbEntity
  8
Shape2DView003
100
AcDbSpline
210
0
220
0
230
1
 70
8
 71
3
 72
41
 73
37
 74
0
 40
0
 40
0
 40
0
 40
0
 40
0.0117663
 40
0.0117663
 40
0.0117663
 40
0.0273092
 40
0.0273092
 40
0.0273092
 40
0.0605719
 40
0.0605719
 40
0.0605719
 40
0.124379
 40
0.124379
 40
0.124379
 40
0.144056
 40
0.144056
 40
0.144056
 40
0.166842
 40
0.166842
 40
0.166842
 40
0.190576
 40
0.190576
 40
0.190576
 40
0.24158
 40
0.24158
 40
0.24158
 40
0.385206
 40
0.385206
 40
0.385206
 40
0.509466
 40
0.509466
 40
0.509466
 40
0.750393
 40
0.750393
 40
0.750393
 40
1.01017
 40
1.01017
 40
1.01017
 40
1.01017
 10
35
 20
0
 30
0
 10
34.7679
 20
0.0695176
 30
0
 10
34.5858
 20
0.230145
 30
0
 10
34.4439
 20
0.419876
 30
0
 10
34.258
 20
0.671303
 30
0
 10
34.1382
 20
0.962812
 30
0
 10
34.0386
 20
1.25664
 30
0
 10
33.8313
 20
1.88978
 30
0
 10
33.7167
 20
2.548
 30
0
 10
33.6099
 20
3.20393
 30
0
 10
33.4135
 20
4.46501
 30
0
 10
33.2691
 20
5.73335
 30
0
 10
33.1192
 20
7.00056
 30
0
 10
33.0711
 20
7.39119
 30
0
 10
33.0267
 20
7.78221
 30
0
 10
32.9861
 20
8.17361
 30
0
 10
32.941
 20
8.62708
 30
0
 10
32.9078
 20
9.08173
 30
0
 10
32.8644
 20
9.53539
 30
0
 10
32.816
 20
10.0076
 30
0
 10
32.7666
 20
10.4797
 30
0
 10
32.7161
 20
10.9517
 30
0
 10
32.617
 20
11.9669
 30
0
 10
32.5481
 20
12.9851
 30
0
 10
32.4866
 20
14.0032
 30
0
 10
32.3217
 20
16.8712
 30
0
 10
32.2779
 20
19.745
 30
0
 10
32.299
 20
22.6172
 30
0
 10
32.3211
 20
25.1026
 30
0
 10
32.3853
 20
27.5868
 30
0
 10
32.4916
 20
30.07
 30
0
 10
32.6939
 20
34.8844
 30
0
 10
33.0165
 20
39.6932
 30
0
 10
33.4138
 20
44.4952
 30
0
 10
33.845
 20
49.6728
 30
0
 10
34.3639
 20
54.8435
 30
0
 10
35
 20
60
 30
0
  0
ENDSEC
  0
SECTION
  2
OBJECTS
  0
DICTIONARY
  5
F000
330
0
100
AcDbDictionary
  3
ACAD_GROUP
350
F001
  0
DICTIONARY
  5
F001
330
F000
100
AcDbDictionary
  0
ENDSEC
  0
EOF