999
FreeCAD v0.20 29410 (Git)
  0
SECTION
  2
HEADER
  9
$ACADVER
  1
AC1014
  9
$ACADMAINTVER
 70
     9
  9
$DWGCODEPAGE
  3
ANSI_1252
  9
$TEXTSTYLE
  7
STANDARD
  9
$DIMSTYLE
  2
STANDARD
  9
$DIMTXSTY
  7
STANDARD
  9
$CMLSTYLE
  2
STANDARD
  9
$LUNITS
 70
2
  9
$INSUNITS
 70
4
  9
$PEXTMAX
 10
50
 20
50
 30
50
  9
$PEXTMIN
 10
0
 20
0
 30
0
  9
$HANDSEED
  5
FFFF
  0
ENDSEC
  0
SECTION
  2
CLASSES
  0
CLASS
  1
ACDBDICTIONARYWDFLT
  2
AcDbDictionaryWithDefault
  3
ObjectDBX Classes
 90
        0
280
     0
281
     0
  0
CLASS
  1
XRECORD
  2
AcDbXrecord
  3
ObjectDBX Classes
 90
        0
280
     0
281
     0
  0
CLASS
  1
LWPOLYLINE
  2
AcDbPolyline
  3
ObjectDBX Classes
 90
        0
280
     0
281
     1
  0
ENDSEC
  0
SECTION
  2
TABLES
  0
TABLE
  2
VPORT
  5
20
330
0
100
AcDbSymbolTable
 70
     1
  0
VPORT
  5
21
330
20
100
AcDbSymbolTableRecord
100
AcDbViewportTableRecord
  2
*ACTIVE
 70
     0
  0
ENDTAB
  0
TABLE
  2
LTYPE
  5
22
330
0
100
AcDbSymbolTable
 70
     1
  0
LTYPE
  5
23
330
21
100
AcDbSymbolTableRecord
100
AcDbLinetypeTableRecord
  2
BYBLOCK
 70
     0
  3

 72
    65
 73
     0
 40
0.0
  0
LTYPE
  5
24
330
21
100
AcDbSymbolTableRecord
100
AcDbLinetypeTableRecord
  2
BYLAYER
 70
     0
  3

 72
    65
 73
     0
 40
0.0
  0
LTYPE
  5
25
330
21
100
AcDbSymbolTableRecord
100
AcDbLinetypeTableRecord
  2
CONTINUOUS
 70
     0
  3
Solid line
 72
    65
 73
     0
 40
0.0
  0
ENDTAB
  0
TABLE
  2
LAYER
  5
A50
330
0
100
AcDbSymbolTable
 70
12
  0
LAYER
  5
A51
330
A50
100
AcDbSymbolTableRecord
100
AcDbLayerTableRecord
  2
0
 70
   0
 62
   7
  6
CONTINUOUS
  0
LAYER
  5
A52
330
A50
100
AcDbSymbolTableRecord
100
AcDbLayerTableRecord
  2
none
 70
    0
 62
    7
  6
CONTINUOUS
  0
LAYER
  5
A53
330
A50
100
AcDbSymbolTableRecord
100
AcDbLayerTableRecord
  2
Shape2DView001
 70
    0
 62
    7
  6
CONTINUOUS
  0
LAYER
  5
A54
330
A50
100
AcDbSymbolTableRecord
100
AcDbLayerTableRecord
  2
Shape2DView002
 70
    0
 62
    7
  6
CONTINUOUS
  0
LAYER
  5
A55
330
A50
100
AcDbSymbolTableRecord
100
AcDbLayerTableRecord
  2
Shape2DView003
 70
    0
 62
    7
  6
CONTINUOUS
  0
LAYER
  5
A56
330
A50
100
AcDbSymbolTableRecord
100
AcDbLayerTableRecord
  2
Shape2DView004
 70
    0
 62
    7
  6
CONTINUOUS
  0
LAYER
  5
A57
330
A50
100
AcDbSymbolTableRecord
100
AcDbLayerTableRecord
  2
Shape2DView005
 70
    0
 62
    7
  6
CONTINUOUS
  0
LAYER
  5
A58
330
A50
100
AcDbSymbolTableRecord
100
AcDbLayerTableRecord
  2
Shape2DView006
 70
    0
 62
    7
  6
CONTINUOUS
  0
LAYER
  5
A59
330
A50
100
AcDbSymbolTableRecord
100
AcDbLayerTableRecord
  2
Shape2DView007
 70
    0
 62
    7
  6
CONTINUOUS
  0
LAYER
  5
A5A
330
A50
100
AcDbSymbolTableRecord
100
AcDbLayerTableRecord
  2
Shape2DView008
 70
    0
 62
    7
  6
CONTINUOUS
  0
LAYER
  5
A5B
330
A50
100
AcDbSymbolTableRecord
100
AcDbLayerTableRecord
  2
BSpline
 70
    0
 62
    7
  6
CONTINUOUS
  0
LAYER
  5
A5C
330
A50
100
AcDbSymbolTableRecord
100
AcDbLayerTableRecord
  2
BSpline001
 70
    0
 62
    7
  6
CONTINUOUS
  0
ENDTAB
  0
TABLE
  2
STYLE
  5
70
330
0
100
AcDbSymbolTable
 70
     2
  0
STYLE
  5
71
330
70
100
AcDbSymbolTableRecord
100
AcDbTextStyleTableRecord
  2
STANDARD
 70
     0
 40
0.0
 41
1.0
 50
0.0
 71
     0
 42
2.5
  3
arial.ttf
  4

  0
STYLE
  5
72
330
70
100
AcDbSymbolTableRecord
100
AcDbTextStyleTableRecord
  2
ANNOTATIVE
 70
     0
 40
0.0
 41
1.0
 50
0.0
 71
     0
 42
2.5
  3
arial.ttf
  4

  0
ENDTAB
  0
TABLE
  2
VIEW
  5
73
330
0
100
AcDbSymbolTable
 70
     0
  0
ENDTAB
  0
TABLE
  2
UCS
  5
74
330
0
100
AcDbSymbolTable
 70
     0
  0
ENDTAB
  0
TABLE
  2
APPID
  5
75
330
0
100
AcDbSymbolTable
 70
     2
  0
APPID
  5
76
330
75
100
AcDbSymbolTableRecord
100
AcDbRegAppTableRecord
  2
ACAD
 70
     0
  0
APPID
  5
77
330
75
100
AcDbSymbolTableRecord
100
AcDbRegAppTableRecord
  2
ACADANNOTATIVE
 70
     0
  0
ENDTAB
  0
TABLE
  2
DIMSTYLE
  5
78
330
0
100
AcDbSymbolTable
 70
     2
  0
DIMSTYLE
105
79
330
78
100
AcDbSymbolTableRecord
100
AcDbDimStyleTableRecord
  2
STANDARD
 70
     0
  3

  4

  5

  6

  7

 40
0.0
 41
2.5
 42
0.625
 43
3.75
 44
1.25
 45
0.0
 46
0.0
 47
0.0
 48
0.0
140
2.5
141
2.5
142
0.0
143
0.03937007874016
144
1.0
145
0.0
146
1.0
147
0.625
 71
     0
 72
     0
 73
     0
 74
     0
 75
     0
 76
     0
 77
     1
 78
     8
170
     0
171
     3
172
     1
173
     0
174
     0
175
     0
176
     0
177
     0
178
     0
270
     2
271
     2
272
     2
273
     2
274
     3
340
71
275
     0
280
     0
281
     0
282
     0
283
     0
284
     8
285
     0
286
     0
287
     3
288
     0
  0
ENDTAB
  0
TABLE
  2
BLOCK_RECORD
  5
A01
330
0
100
AcDbSymbolTable
  70
5
  0
BLOCK_RECORD
  5
A02
330
A01
100
AcDbSymbolTableRecord
100
AcDbBlockTableRecord
  2
*MODEL_SPACE
  0
BLOCK_RECORD
  5
A03
330
A01
100
AcDbSymbolTableRecord
100
AcDbBlockTableRecord
  2
*PAPER_SPACE
  0
ENDTAB
  0
ENDSEC
  0
SECTION
  2
BLOCKS
  0
BLOCK
  5
A04
330
A02
100
AcDbEntity
  8
0
100
AcDbBlockBegin
  2
*MODEL_SPACE
 70
   0
 10
0
 20
0
 30
0
  3
*MODEL_SPACE
  1
 
  0
ENDBLK
  5
A05
330
A02
100
AcDbEntity
  8
0
100
AcDbBlockEnd
  0
BLOCK
  5
A06
330
A03
100
AcDbEntity
 67
1
  8
0
100
AcDbBlockBegin
  2
*PAPER_SPACE
 70
   0
 10
0
 20
0
 30
0
  3
*PAPER_SPACE
  1
 
  0
ENDBLK
  5
A07
330
A03
100
AcDbEntity
 67
    1
  8
0
100
AcDbBlockEnd
  0
ENDSEC
  0
SECTION
  2
ENTITIES
  0
LINE
  5
A08
330
A02
100
AcDbEntity
  8
Shape2DView001
100
AcDbLine
 10
-81.1617
 20
69.0143
 30
0
 11
-81.1617
 21
135.014
 31
0
  0
LINE
  5
A09
330
A02
100
AcDbEntity
  8
Shape2DView001
100
AcDbLine
 10
-71.1617
 20
69.0143
 30
0
 11
-71.1617
 21
135.014
 31
0
  0
LINE
  5
A0A
330
A02
100
AcDbEntity
  8
Shape2DView001
100
AcDbLine
 10
-81.1617
 20
69.0143
 30
0
 11
-71.1617
 21
69.0143
 31
0
  0
LINE
  5
A0B
330
A02
100
AcDbEntity
  8
Shape2DView001
100
AcDbLine
 10
-81.1617
 20
135.014
 30
0
 11
-71.1617
 21
135.014
 31
0
  0
LINE
  5
A0C
330
A02
100
AcDbEntity
  8
Shape2DView002
100
AcDbLine
 10
-31.7711
 20
49.3292
 30
0
 11
-31.7711
 21
138.329
 31
0
  0
LINE
  5
A0D
330
A02
100
AcDbEntity
  8
Shape2DView002
100
AcDbLine
 10
-21.7711
 20
49.3292
 30
0
 11
-21.7711
 21
138.329
 31
0
  0
LINE
  5
A0E
330
A02
100
AcDbEntity
  8
Shape2DView002
100
AcDbLine
 10
-31.7711
 20
49.3292
 30
0
 11
-21.7711
 21
49.3292
 31
0
  0
LINE
  5
A0F
330
A02
100
AcDbEntity
  8
Shape2DView002
100
AcDbLine
 10
-31.7711
 20
138.329
 30
0
 11
-21.7711
 21
138.329
 31
0
  0
LINE
  5
A10
330
A02
100
AcDbEntity
  8
Shape2DView003
100
AcDbLine
 10
-3.37114
 20
24.0292
 30
0
 11
-3.37114
 21
134.029
 31
0
  0
LINE
  5
A11
330
A02
100
AcDbEntity
  8
Shape2DView003
100
AcDbLine
 10
6.62886
 20
24.0292
 30
0
 11
6.62886
 21
134.029
 31
0
  0
LINE
  5
A12
330
A02
100
AcDbEntity
  8
Shape2DView003
100
AcDbLine
 10
-3.37114
 20
24.0292
 30
0
 11
6.62886
 21
24.0292
 31
0
  0
LINE
  5
A13
330
A02
100
AcDbEntity
  8
Shape2DView003
100
AcDbLine
 10
-3.37114
 20
134.029
 30
0
 11
6.62886
 21
134.029
 31
0
  0
SPLINE
  5
A14
330
A02
100
AcDbEntity
  8
Shape2DView004
100
AcDbSpline
210
0
220
0
230
1
 70
8
 71
3
 72
53
 73
49
 74
0
 40
0
 40
0
 40
0
 40
0
 40
0.262597
 40
0.262597
 40
0.262597
 40
0.505344
 40
0.505344
 40
0.505344
 40
0.63013
 40
0.63013
 40
0.63013
 40
0.773759
 40
0.773759
 40
0.773759
 40
0.79972
 40
0.79972
 40
0.79972
 40
0.824525
 40
0.824525
 40
0.824525
 40
0.848087
 40
0.848087
 40
0.848087
 40
0.869973
 40
0.869973
 40
0.869973
 40
0.892212
 40
0.892212
 40
0.892212
 40
0.913139
 40
0.913139
 40
0.913139
 40
0.966609
 40
0.966609
 40
0.966609
 40
0.980975
 40
0.980975
 40
0.980975
 40
1.00424
 40
1.00424
 40
1.00424
 40
1.01322
 40
1.01322
 40
1.01322
 40
1.02064
 40
1.02064
 40
1.02064
 40
1.03248
 40
1.03248
 40
1.03248
 40
1.03248
 10
-99.379
 20
-100.711
 30
0
 10
-97.5809
 20
-111.504
 30
0
 10
-96.0218
 20
-122.336
 30
0
 10
-94.6437
 20
-133.191
 30
0
 10
-93.3754
 20
-143.225
 30
0
 10
-92.2594
 20
-153.28
 30
0
 10
-91.3927
 20
-163.357
 30
0
 10
-90.9492
 20
-168.538
 30
0
 10
-90.5743
 20
-173.724
 30
0
 10
-90.305
 20
-178.917
 30
0
 10
-89.9973
 20
-184.893
 30
0
 10
-89.8233
 20
-190.878
 30
0
 10
-89.9031
 20
-196.863
 30
0
 10
-89.9167
 20
-197.945
 30
0
 10
-89.9408
 20
-199.026
 30
0
 10
-89.9753
 20
-200.107
 30
0
 10
-90.0108
 20
-201.14
 30
0
 10
-90.0526
 20
-202.173
 30
0
 10
-90.1008
 20
-203.205
 30
0
 10
-90.1449
 20
-204.186
 30
0
 10
-90.1897
 20
-205.168
 30
0
 10
-90.2798
 20
-206.145
 30
0
 10
-90.3634
 20
-207.053
 30
0
 10
-90.4861
 20
-207.957
 30
0
 10
-90.6104
 20
-208.861
 30
0
 10
-90.7366
 20
-209.779
 30
0
 10
-90.8645
 20
-210.697
 30
0
 10
-91.0225
 20
-211.61
 30
0
 10
-91.1714
 20
-212.469
 30
0
 10
-91.3463
 20
-213.324
 30
0
 10
-91.5471
 20
-214.173
 30
0
 10
-92.0601
 20
-216.34
 30
0
 10
-92.7369
 20
-218.476
 30
0
 10
-93.6965
 20
-220.49
 30
0
 10
-93.954
 20
-221.031
 30
0
 10
-94.2353
 20
-221.559
 30
0
 10
-94.5405
 20
-222.075
 30
0
 10
-95.037
 20
-222.906
 30
0
 10
-95.5983
 20
-223.706
 30
0
 10
-96.275
 20
-224.402
 30
0
 10
-96.5358
 20
-224.673
 30
0
 10
-96.8174
 20
-224.919
 30
0
 10
-97.12
 20
-225.141
 30
0
 10
-97.371
 20
-225.323
 30
0
 10
-97.6381
 20
-225.483
 30
0
 10
-97.926
 20
-225.6
 30
0
 10
-98.3863
 20
-225.788
 30
0
 10
-98.8938
 20
-225.865
 30
0
 10
-99.379
 20
-225.711
 30
0
  0
SPLINE
  5
A15
330
A02
100
AcDbEntity
  8
Shape2DView004
100
AcDbSpline
210
0
220
0
230
1
 70
8
 71
3
 72
50
 73
46
 74
0
 40
0
 40
0
 40
0
 40
0
 40
0.0117663
 40
0.0117663
 40
0.0117663
 40
0.0273092
 40
0.0273092
 40
0.0273092
 40
0.0481195
 40
0.0481195
 40
0.0481195
 40
0.0605719
 40
0.0605719
 40
0.0605719
 40
0.0896095
 40
0.0896095
 40
0.0896095
 40
0.124379
 40
0.124379
 40
0.124379
 40
0.144056
 40
0.144056
 40
0.144056
 40
0.166842
 40
0.166842
 40
0.166842
 40
0.190576
 40
0.190576
 40
0.190576
 40
0.215518
 40
0.215518
 40
0.215518
 40
0.24158
 40
0.24158
 40
0.24158
 40
0.385206
 40
0.385206
 40
0.385206
 40
0.509466
 40
0.509466
 40
0.509466
 40
0.750393
 40
0.750393
 40
0.750393
 40
1.01017
 40
1.01017
 40
1.01017
 40
1.01017
 10
-99.379
 20
-225.711
 30
0
 10
-99.8626
 20
-225.567
 30
0
 10
-100.242
 20
-225.232
 30
0
 10
-100.538
 20
-224.837
 30
0
 10
-100.925
 20
-224.313
 30
0
 10
-101.174
 20
-223.705
 30
0
 10
-101.382
 20
-223.093
 30
0
 10
-101.655
 20
-222.27
 30
0
 10
-101.844
 20
-221.421
 30
0
 10
-102.009
 20
-220.57
 30
0
 10
-102.106
 20
-220.06
 30
0
 10
-102.195
 20
-219.549
 30
0
 10
-102.275
 20
-219.036
 30
0
 10
-102.464
 20
-217.841
 30
0
 10
-102.624
 20
-216.642
 30
0
 10
-102.777
 20
-215.442
 30
0
 10
-102.961
 20
-214.005
 30
0
 10
-103.128
 20
-212.566
 30
0
 10
-103.297
 20
-211.127
 30
0
 10
-103.394
 20
-210.313
 30
0
 10
-103.494
 20
-209.499
 30
0
 10
-103.575
 20
-208.683
 30
0
 10
-103.669
 20
-207.738
 30
0
 10
-103.738
 20
-206.791
 30
0
 10
-103.828
 20
-205.846
 30
0
 10
-103.922
 20
-204.862
 30
0
 10
-104.039
 20
-203.879
 30
0
 10
-104.137
 20
-202.895
 30
0
 10
-104.238
 20
-201.861
 30
0
 10
-104.326
 20
-200.825
 30
0
 10
-104.4
 20
-199.789
 30
0
 10
-104.48
 20
-198.706
 30
0
 10
-104.552
 20
-197.622
 30
0
 10
-104.615
 20
-196.538
 30
0
 10
-104.959
 20
-190.563
 30
0
 10
-105.05
 20
-184.576
 30
0
 10
-105.006
 20
-178.592
 30
0
 10
-104.966
 20
-173.415
 30
0
 10
-104.82
 20
-168.238
 30
0
 10
-104.605
 20
-163.065
 30
0
 10
-104.183
 20
-153.035
 30
0
 10
-103.511
 20
-143.017
 30
0
 10
-102.684
 20
-133.013
 30
0
 10
-101.785
 20
-122.226
 30
0
 10
-100.704
 20
-111.454
 30
0
 10
-99.379
 20
-100.711
 30
0
  0
LINE
  5
A16
330
A02
100
AcDbEntity
  8
Shape2DView004
100
AcDbLine
 10
-100.379
 20
-206.111
 30
0
 11
-100.379
 21
-216.111
 31
0
  0
LINE
  5
A17
330
A02
100
AcDbEntity
  8
Shape2DView004
100
AcDbLine
 10
-100.379
 20
-206.111
 30
0
 11
-95.879
 21
-206.111
 31
0
  0
LINE
  5
A18
330
A02
100
AcDbEntity
  8
Shape2DView004
100
AcDbLine
 10
-95.879
 20
-206.111
 30
0
 11
-95.879
 21
-216.111
 31
0
  0
LINE
  5
A19
330
A02
100
AcDbEntity
  8
Shape2DView004
100
AcDbLine
 10
-100.379
 20
-216.111
 30
0
 11
-95.879
 21
-216.111
 31
0
  0
LINE
  5
A1A
330
A02
100
AcDbEntity
  8
Shape2DView004
100
AcDbLine
 10
-100.379
 20
-177.711
 30
0
 11
-100.379
 21
-187.711
 31
0
  0
LINE
  5
A1B
330
A02
100
AcDbEntity
  8
Shape2DView004
100
AcDbLine
 10
-100.379
 20
-177.711
 30
0
 11
-95.879
 21
-177.711
 31
0
  0
LINE
  5
A1C
330
A02
100
AcDbEntity
  8
Shape2DView004
100
AcDbLine
 10
-100.379
 20
-187.711
 30
0
 11
-95.879
 21
-187.711
 31
0
  0
LINE
  5
A1D
330
A02
100
AcDbEntity
  8
Shape2DView004
100
AcDbLine
 10
-95.879
 20
-177.711
 30
0
 11
-95.879
 21
-187.711
 31
0
  0
SPLINE
  5
A1E
330
A02
100
AcDbEntity
  8
Shape2DView005
100
AcDbSpline
210
0
220
0
230
1
 70
8
 71
3
 72
50
 73
46
 74
0
 40
0
 40
0
 40
0
 40
0
 40
0.262597
 40
0.262597
 40
0.262597
 40
0.505344
 40
0.505344
 40
0.505344
 40
0.63013
 40
0.63013
 40
0.63013
 40
0.773759
 40
0.773759
 40
0.773759
 40
0.79972
 40
0.79972
 40
0.79972
 40
0.824525
 40
0.824525
 40
0.824525
 40
0.848087
 40
0.848087
 40
0.848087
 40
0.869973
 40
0.869973
 40
0.869973
 40
0.892212
 40
0.892212
 40
0.892212
 40
0.913139
 40
0.913139
 40
0.913139
 40
0.966609
 40
0.966609
 40
0.966609
 40
0.980975
 40
0.980975
 40
0.980975
 40
1.00424
 40
1.00424
 40
1.00424
 40
1.02064
 40
1.02064
 40
1.02064
 40
1.03248
 40
1.03248
 40
1.03248
 40
1.03248
 10
-124.61
 20
-127.487
 30
0
 10
-123.171
 20
-136.121
 30
0
 10
-121.924
 20
-144.787
 30
0
 10
-120.822
 20
-153.47
 30
0
 10
-119.807
 20
-161.498
 30
0
 10
-118.914
 20
-169.542
 30
0
 10
-118.221
 20
-177.604
 30
0
 10
-117.866
 20
-181.748
 30
0
 10
-117.566
 20
-185.897
 30
0
 10
-117.351
 20
-190.051
 30
0
 10
-117.105
 20
-194.832
 30
0
 10
-116.965
 20
-199.621
 30
0
 10
-117.029
 20
-204.408
 30
0
 10
-117.04
 20
-205.274
 30
0
 10
-117.059
 20
-206.139
 30
0
 10
-117.087
 20
-207.004
 30
0
 10
-117.115
 20
-207.83
 30
0
 10
-117.149
 20
-208.656
 30
0
 10
-117.187
 20
-209.482
 30
0
 10
-117.223
 20
-210.267
 30
0
 10
-117.258
 20
-211.052
 30
0
 10
-117.331
 20
-211.834
 30
0
 10
-117.397
 20
-212.56
 30
0
 10
-117.496
 20
-213.284
 30
0
 10
-117.595
 20
-214.007
 30
0
 10
-117.696
 20
-214.741
 30
0
 10
-117.798
 20
-215.476
 30
0
 10
-117.925
 20
-216.206
 30
0
 10
-118.044
 20
-216.893
 30
0
 10
-118.184
 20
-217.577
 30
0
 10
-118.344
 20
-218.256
 30
0
 10
-118.755
 20
-219.99
 30
0
 10
-119.296
 20
-221.699
 30
0
 10
-120.064
 20
-223.31
 30
0
 10
-120.27
 20
-223.742
 30
0
 10
-120.495
 20
-224.165
 30
0
 10
-120.739
 20
-224.578
 30
0
 10
-121.136
 20
-225.243
 30
0
 10
-121.585
 20
-225.883
 30
0
 10
-122.127
 20
-226.44
 30
0
 10
-122.509
 20
-226.828
 30
0
 10
-122.939
 20
-227.186
 30
0
 10
-123.447
 20
-227.398
 30
0
 10
-123.816
 20
-227.549
 30
0
 10
-124.222
 20
-227.61
 30
0
 10
-124.61
 20
-227.487
 30
0
  0
SPLINE
  5
A1F
330
A02
100
AcDbEntity
  8
Shape2DView005
100
AcDbSpline
210
0
220
0
230
1
 70
8
 71
3
 72
47
 73
43
 74
0
 40
0
 40
0
 40
0
 40
0
 40
0.0117663
 40
0.0117663
 40
0.0117663
 40
0.0273092
 40
0.0273092
 40
0.0273092
 40
0.0481195
 40
0.0481195
 40
0.0481195
 40
0.0605719
 40
0.0605719
 40
0.0605719
 40
0.0896095
 40
0.0896095
 40
0.0896095
 40
0.124379
 40
0.124379
 40
0.124379
 40
0.144056
 40
0.144056
 40
0.144056
 40
0.166842
 40
0.166842
 40
0.166842
 40
0.190576
 40
0.190576
 40
0.190576
 40
0.24158
 40
0.24158
 40
0.24158
 40
0.385206
 40
0.385206
 40
0.385206
 40
0.509466
 40
0.509466
 40
0.509466
 40
0.750393
 40
0.750393
 40
0.750393
 40
1.01017
 40
1.01017
 40
1.01017
 40
1.01017
 10
-124.61
 20
-227.487
 30
0
 10
-124.997
 20
-227.371
 30
0
 10
-125.3
 20
-227.103
 30
0
 10
-125.537
 20
-226.787
 30
0
 10
-125.847
 20
-226.368
 30
0
 10
-126.046
 20
-225.882
 30
0
 10
-126.212
 20
-225.393
 30
0
 10
-126.431
 20
-224.734
 30
0
 10
-126.582
 20
-224.055
 30
0
 10
-126.714
 20
-223.374
 30
0
 10
-126.791
 20
-222.966
 30
0
 10
-126.862
 20
-222.557
 30
0
 10
-126.927
 20
-222.147
 30
0
 10
-127.078
 20
-221.191
 30
0
 10
-127.206
 20
-220.231
 30
0
 10
-127.328
 20
-219.271
 30
0
 10
-127.476
 20
-218.122
 30
0
 10
-127.609
 20
-216.971
 30
0
 10
-127.745
 20
-215.819
 30
0
 10
-127.825
 20
-215.168
 30
0
 10
-127.899
 20
-214.517
 30
0
 10
-127.966
 20
-213.864
 30
0
 10
-128.042
 20
-213.109
 30
0
 10
-128.097
 20
-212.351
 30
0
 10
-128.169
 20
-211.595
 30
0
 10
-128.244
 20
-210.807
 30
0
 10
-128.338
 20
-210.021
 30
0
 10
-128.416
 20
-209.234
 30
0
 10
-128.582
 20
-207.542
 30
0
 10
-128.696
 20
-205.845
 30
0
 10
-128.799
 20
-204.148
 30
0
 10
-129.074
 20
-199.368
 30
0
 10
-129.147
 20
-194.579
 30
0
 10
-129.112
 20
-189.792
 30
0
 10
-129.08
 20
-185.65
 30
0
 10
-128.963
 20
-181.509
 30
0
 10
-128.791
 20
-177.37
 30
0
 10
-128.453
 20
-169.346
 30
0
 10
-127.916
 20
-161.332
 30
0
 10
-127.254
 20
-153.328
 30
0
 10
-126.535
 20
-144.699
 30
0
 10
-125.67
 20
-136.081
 30
0
 10
-124.61
 20
-127.487
 30
0
  0
LINE
  5
A20
330
A02
100
AcDbEntity
  8
Shape2DView005
100
AcDbLine
 10
-125.61
 20
-204.487
 30
0
 11
-125.61
 21
-214.487
 31
0
  0
LINE
  5
A21
330
A02
100
AcDbEntity
  8
Shape2DView005
100
AcDbLine
 10
-125.61
 20
-204.487
 30
0
 11
-121.11
 21
-204.487
 31
0
  0
LINE
  5
A22
330
A02
100
AcDbEntity
  8
Shape2DView005
100
AcDbLine
 10
-121.11
 20
-204.487
 30
0
 11
-121.11
 21
-214.487
 31
0
  0
LINE
  5
A23
330
A02
100
AcDbEntity
  8
Shape2DView005
100
AcDbLine
 10
-125.61
 20
-214.487
 30
0
 11
-121.11
 21
-214.487
 31
0
  0
SPLINE
  5
A24
330
A02
100
AcDbEntity
  8
Shape2DView006
100
AcDbSpline
210
0
220
0
230
1
 70
8
 71
3
 72
53
 73
49
 74
0
 40
0
 40
0
 40
0
 40
0
 40
0.262597
 40
0.262597
 40
0.262597
 40
0.505344
 40
0.505344
 40
0.505344
 40
0.63013
 40
0.63013
 40
0.63013
 40
0.773759
 40
0.773759
 40
0.773759
 40
0.79972
 40
0.79972
 40
0.79972
 40
0.824525
 40
0.824525
 40
0.824525
 40
0.848087
 40
0.848087
 40
0.848087
 40
0.869973
 40
0.869973
 40
0.869973
 40
0.892212
 40
0.892212
 40
0.892212
 40
0.913139
 40
0.913139
 40
0.913139
 40
0.966609
 40
0.966609
 40
0.966609
 40
0.980975
 40
0.980975
 40
0.980975
 40
1.00424
 40
1.00424
 40
1.00424
 40
1.01322
 40
1.01322
 40
1.01322
 40
1.02064
 40
1.02064
 40
1.02064
 40
1.03248
 40
1.03248
 40
1.03248
 40
1.03248
 10
-70.5436
 20
-75.9954
 30
0
 10
-68.3859
 20
-88.9469
 30
0
 10
-66.515
 20
-101.945
 30
0
 10
-64.8613
 20
-114.97
 30
0
 10
-63.3393
 20
-127.012
 30
0
 10
-62.0002
 20
-139.078
 30
0
 10
-60.9601
 20
-151.17
 30
0
 10
-60.4279
 20
-157.387
 30
0
 10
-59.978
 20
-163.611
 30
0
 10
-59.6548
 20
-169.842
 30
0
 10
-59.2856
 20
-177.013
 30
0
 10
-59.0768
 20
-184.196
 30
0
 10
-59.1726
 20
-191.377
 30
0
 10
-59.1889
 20
-192.675
 30
0
 10
-59.2178
 20
-193.973
 30
0
 10
-59.2591
 20
-195.27
 30
0
 10
-59.3018
 20
-196.51
 30
0
 10
-59.352
 20
-197.749
 30
0
 10
-59.4098
 20
-198.988
 30
0
 10
-59.4627
 20
-200.165
 30
0
 10
-59.5165
 20
-201.343
 30
0
 10
-59.6246
 20
-202.516
 30
0
 10
-59.725
 20
-203.605
 30
0
 10
-59.8722
 20
-204.69
 30
0
 10
-60.0213
 20
-205.775
 30
0
 10
-60.1728
 20
-206.877
 30
0
 10
-60.3262
 20
-207.978
 30
0
 10
-60.5158
 20
-209.074
 30
0
 10
-60.6945
 20
-210.105
 30
0
 10
-60.9044
 20
-211.13
 30
0
 10
-61.1454
 20
-212.149
 30
0
 10
-61.761
 20
-214.749
 30
0
 10
-62.5731
 20
-217.313
 30
0
 10
-63.7247
 20
-219.729
 30
0
 10
-64.0336
 20
-220.379
 30
0
 10
-64.3712
 20
-221.013
 30
0
 10
-64.7374
 20
-221.631
 30
0
 10
-65.3332
 20
-222.629
 30
0
 10
-66.0068
 20
-223.589
 30
0
 10
-66.8189
 20
-224.424
 30
0
 10
-67.1318
 20
-224.749
 30
0
 10
-67.4698
 20
-225.044
 30
0
 10
-67.8329
 20
-225.311
 30
0
 10
-68.134
 20
-225.529
 30
0
 10
-68.4546
 20
-225.721
 30
0
 10
-68.8
 20
-225.862
 30
0
 10
-69.3524
 20
-226.088
 30
0
 10
-69.9614
 20
-226.18
 30
0
 10
-70.5436
 20
-225.995
 30
0
  0
SPLINE
  5
A25
330
A02
100
AcDbEntity
  8
Shape2DView006
100
AcDbSpline
210
0
220
0
230
1
 70
8
 71
3
 72
53
 73
49
 74
0
 40
0
 40
0
 40
0
 40
0
 40
0.0117663
 40
0.0117663
 40
0.0117663
 40
0.018919
 40
0.018919
 40
0.018919
 40
0.0273092
 40
0.0273092
 40
0.0273092
 40
0.0481195
 40
0.0481195
 40
0.0481195
 40
0.0605719
 40
0.0605719
 40
0.0605719
 40
0.0896095
 40
0.0896095
 40
0.0896095
 40
0.124379
 40
0.124379
 40
0.124379
 40
0.144056
 40
0.144056
 40
0.144056
 40
0.166842
 40
0.166842
 40
0.166842
 40
0.190576
 40
0.190576
 40
0.190576
 40
0.215518
 40
0.215518
 40
0.215518
 40
0.24158
 40
0.24158
 40
0.24158
 40
0.385206
 40
0.385206
 40
0.385206
 40
0.509466
 40
0.509466
 40
0.509466
 40
0.750393
 40
0.750393
 40
0.750393
 40
1.01017
 40
1.01017
 40
1.01017
 40
1.01017
 10
-70.5436
 20
-225.995
 30
0
 10
-71.1239
 20
-225.822
 30
0
 10
-71.5792
 20
-225.42
 30
0
 10
-71.9339
 20
-224.946
 30
0
 10
-72.1492
 20
-224.658
 30
0
 10
-72.3264
 20
-224.346
 30
0
 10
-72.4813
 20
-224.023
 30
0
 10
-72.6609
 20
-223.643
 30
0
 10
-72.8162
 20
-223.253
 30
0
 10
-72.9472
 20
-222.854
 30
0
 10
-73.2753
 20
-221.865
 30
0
 10
-73.5014
 20
-220.847
 30
0
 10
-73.6992
 20
-219.826
 30
0
 10
-73.8157
 20
-219.214
 30
0
 10
-73.9222
 20
-218.601
 30
0
 10
-74.0189
 20
-217.986
 30
0
 10
-74.2459
 20
-216.551
 30
0
 10
-74.4372
 20
-215.112
 30
0
 10
-74.6211
 20
-213.672
 30
0
 10
-74.8423
 20
-211.947
 30
0
 10
-75.042
 20
-210.221
 30
0
 10
-75.2457
 20
-208.494
 30
0
 10
-75.3618
 20
-207.517
 30
0
 10
-75.4811
 20
-206.54
 30
0
 10
-75.5785
 20
-205.561
 30
0
 10
-75.6912
 20
-204.428
 30
0
 10
-75.7743
 20
-203.291
 30
0
 10
-75.8825
 20
-202.157
 30
0
 10
-75.9953
 20
-200.976
 30
0
 10
-76.1354
 20
-199.797
 30
0
 10
-76.2534
 20
-198.616
 30
0
 10
-76.3746
 20
-197.375
 30
0
 10
-76.4796
 20
-196.132
 30
0
 10
-76.5685
 20
-194.888
 30
0
 10
-76.6647
 20
-193.589
 30
0
 10
-76.7509
 20
-192.288
 30
0
 10
-76.8271
 20
-190.987
 30
0
 10
-77.2394
 20
-183.817
 30
0
 10
-77.3489
 20
-176.633
 30
0
 10
-77.2961
 20
-169.452
 30
0
 10
-77.248
 20
-163.239
 30
0
 10
-77.0731
 20
-157.028
 30
0
 10
-76.8147
 20
-150.82
 30
0
 10
-76.309
 20
-138.784
 30
0
 10
-75.5023
 20
-126.762
 30
0
 10
-74.5093
 20
-114.757
 30
0
 10
-73.4312
 20
-101.813
 30
0
 10
-72.1339
 20
-88.8868
 30
0
 10
-70.5436
 20
-75.9954
 30
0
  0
LINE
  5
A26
330
A02
100
AcDbEntity
  8
Shape2DView006
100
AcDbLine
 10
-71.5436
 20
-203.495
 30
0
 11
-71.5436
 21
-213.495
 31
0
  0
LINE
  5
A27
330
A02
100
AcDbEntity
  8
Shape2DView006
100
AcDbLine
 10
-71.5436
 20
-203.495
 30
0
 11
-67.0436
 21
-203.495
 31
0
  0
LINE
  5
A28
330
A02
100
AcDbEntity
  8
Shape2DView006
100
AcDbLine
 10
-67.0436
 20
-203.495
 30
0
 11
-67.0436
 21
-213.495
 31
0
  0
LINE
  5
A29
330
A02
100
AcDbEntity
  8
Shape2DView006
100
AcDbLine
 10
-71.5436
 20
-213.495
 30
0
 11
-67.0436
 21
-213.495
 31
0
  0
LINE
  5
A2A
330
A02
100
AcDbEntity
  8
Shape2DView006
100
AcDbLine
 10
-71.5436
 20
-181.395
 30
0
 11
-71.5436
 21
-191.395
 31
0
  0
LINE
  5
A2B
330
A02
100
AcDbEntity
  8
Shape2DView006
100
AcDbLine
 10
-71.5436
 20
-181.395
 30
0
 11
-67.0436
 21
-181.395
 31
0
  0
LINE
  5
A2C
330
A02
100
AcDbEntity
  8
Shape2DView006
100
AcDbLine
 10
-71.5436
 20
-191.395
 30
0
 11
-67.0436
 21
-191.395
 31
0
  0
LINE
  5
A2D
330
A02
100
AcDbEntity
  8
Shape2DView006
100
AcDbLine
 10
-67.0436
 20
-181.395
 30
0
 11
-67.0436
 21
-191.395
 31
0
  0
LINE
  5
A2E
330
A02
100
AcDbEntity
  8
Shape2DView006
100
AcDbLine
 10
-71.5436
 20
-152.995
 30
0
 11
-71.5436
 21
-162.995
 31
0
  0
LINE
  5
A2F
330
A02
100
AcDbEntity
  8
Shape2DView006
100
AcDbLine
 10
-71.5436
 20
-152.995
 30
0
 11
-67.0436
 21
-152.995
 31
0
  0
LINE
  5
A30
330
A02
100
AcDbEntity
  8
Shape2DView006
100
AcDbLine
 10
-71.5436
 20
-162.995
 30
0
 11
-67.0436
 21
-162.995
 31
0
  0
LINE
  5
A31
330
A02
100
AcDbEntity
  8
Shape2DView006
100
AcDbLine
 10
-67.0436
 20
-152.995
 30
0
 11
-67.0436
 21
-162.995
 31
0
  0
SPLINE
  5
A32
330
A02
100
AcDbEntity
  8
Shape2DView007
100
AcDbSpline
210
0
220
0
230
1
 70
8
 71
3
 72
53
 73
49
 74
0
 40
0
 40
0
 40
0
 40
0
 40
0.262597
 40
0.262597
 40
0.262597
 40
0.505344
 40
0.505344
 40
0.505344
 40
0.63013
 40
0.63013
 40
0.63013
 40
0.773759
 40
0.773759
 40
0.773759
 40
0.79972
 40
0.79972
 40
0.79972
 40
0.824525
 40
0.824525
 40
0.824525
 40
0.848087
 40
0.848087
 40
0.848087
 40
0.869973
 40
0.869973
 40
0.869973
 40
0.892212
 40
0.892212
 40
0.892212
 40
0.913139
 40
0.913139
 40
0.913139
 40
0.966609
 40
0.966609
 40
0.966609
 40
0.980975
 40
0.980975
 40
0.980975
 40
1.00424
 40
1.00424
 40
1.00424
 40
1.01322
 40
1.01322
 40
1.01322
 40
1.02064
 40
1.02064
 40
1.02064
 40
1.03248
 40
1.03248
 40
1.03248
 40
1.03248
 10
-42.2232
 20
-49.2197
 30
0
 10
-39.7058
 20
-64.3298
 30
0
 10
-37.5232
 20
-79.4946
 30
0
 10
-35.5938
 20
-94.6906
 30
0
 10
-33.8181
 20
-108.739
 30
0
 10
-32.2558
 20
-122.816
 30
0
 10
-31.0424
 20
-136.924
 30
0
 10
-30.4215
 20
-144.177
 30
0
 10
-29.8966
 20
-151.438
 30
0
 10
-29.5196
 20
-158.707
 30
0
 10
-29.0888
 20
-167.074
 30
0
 10
-28.8452
 20
-175.454
 30
0
 10
-28.957
 20
-183.832
 30
0
 10
-28.976
 20
-185.346
 30
0
 10
-29.0097
 20
-186.86
 30
0
 10
-29.058
 20
-188.374
 30
0
 10
-29.1077
 20
-189.82
 30
0
 10
-29.1663
 20
-191.266
 30
0
 10
-29.2338
 20
-192.711
 30
0
 10
-29.2954
 20
-194.085
 30
0
 10
-29.3582
 20
-195.459
 30
0
 10
-29.4843
 20
-196.827
 30
0
 10
-29.6014
 20
-198.098
 30
0
 10
-29.7732
 20
-199.364
 30
0
 10
-29.9471
 20
-200.629
 30
0
 10
-30.1239
 20
-201.915
 30
0
 10
-30.3029
 20
-203.2
 30
0
 10
-30.5241
 20
-204.478
 30
0
 10
-30.7326
 20
-205.681
 30
0
 10
-30.9774
 20
-206.877
 30
0
 10
-31.2586
 20
-208.066
 30
0
 10
-31.9768
 20
-211.099
 30
0
 10
-32.9242
 20
-214.091
 30
0
 10
-34.2677
 20
-216.909
 30
0
 10
-34.6282
 20
-217.667
 30
0
 10
-35.0221
 20
-218.406
 30
0
 10
-35.4493
 20
-219.128
 30
0
 10
-36.1444
 20
-220.293
 30
0
 10
-36.9302
 20
-221.412
 30
0
 10
-37.8777
 20
-222.387
 30
0
 10
-38.244
 20
-222.762
 30
0
 10
-38.6357
 20
-223.114
 30
0
 10
-39.0607
 20
-223.421
 30
0
 10
-39.4119
 20
-223.676
 30
0
 10
-39.786
 20
-223.9
 30
0
 10
-40.1889
 20
-224.064
 30
0
 10
-40.8334
 20
-224.328
 30
0
 10
-41.5439
 20
-224.435
 30
0
 10
-42.2232
 20
-224.22
 30
0
  0
SPLINE
  5
A33
330
A02
100
AcDbEntity
  8
Shape2DView007
100
AcDbSpline
210
0
220
0
230
1
 70
8
 71
3
 72
53
 73
49
 74
0
 40
0
 40
0
 40
0
 40
0
 40
0.0117663
 40
0.0117663
 40
0.0117663
 40
0.018919
 40
0.018919
 40
0.018919
 40
0.0273092
 40
0.0273092
 40
0.0273092
 40
0.0481195
 40
0.0481195
 40
0.0481195
 40
0.0605719
 40
0.0605719
 40
0.0605719
 40
0.0896095
 40
0.0896095
 40
0.0896095
 40
0.124379
 40
0.124379
 40
0.124379
 40
0.144056
 40
0.144056
 40
0.144056
 40
0.166842
 40
0.166842
 40
0.166842
 40
0.190576
 40
0.190576
 40
0.190576
 40
0.215518
 40
0.215518
 40
0.215518
 40
0.24158
 40
0.24158
 40
0.24158
 40
0.385206
 40
0.385206
 40
0.385206
 40
0.509466
 40
0.509466
 40
0.509466
 40
0.750393
 40
0.750393
 40
0.750393
 40
1.01017
 40
1.01017
 40
1.01017
 40
1.01017
 10
-42.2232
 20
-224.22
 30
0
 10
-42.9002
 20
-224.017
 30
0
 10
-43.4313
 20
-223.548
 30
0
 10
-43.8452
 20
-222.995
 30
0
 10
-44.0964
 20
-222.66
 30
0
 10
-44.3031
 20
-222.295
 30
0
 10
-44.4838
 20
-221.919
 30
0
 10
-44.6934
 20
-221.475
 30
0
 10
-44.8745
 20
-221.021
 30
0
 10
-45.0274
 20
-220.555
 30
0
 10
-45.4102
 20
-219.401
 30
0
 10
-45.6739
 20
-218.213
 30
0
 10
-45.9047
 20
-217.022
 30
0
 10
-46.0406
 20
-216.308
 30
0
 10
-46.1649
 20
-215.593
 30
0
 10
-46.2776
 20
-214.875
 30
0
 10
-46.5425
 20
-213.202
 30
0
 10
-46.7657
 20
-211.523
 30
0
 10
-46.9803
 20
-209.842
 30
0
 10
-47.2383
 20
-207.83
 30
0
 10
-47.4713
 20
-205.816
 30
0
 10
-47.709
 20
-203.801
 30
0
 10
-47.8443
 20
-202.662
 30
0
 10
-47.9836
 20
-201.522
 30
0
 10
-48.0972
 20
-200.38
 30
0
 10
-48.2286
 20
-199.057
 30
0
 10
-48.3256
 20
-197.731
 30
0
 10
-48.4519
 20
-196.408
 30
0
 10
-48.5835
 20
-195.03
 30
0
 10
-48.7469
 20
-193.655
 30
0
 10
-48.8846
 20
-192.277
 30
0
 10
-49.026
 20
-190.829
 30
0
 10
-49.1485
 20
-189.379
 30
0
 10
-49.2522
 20
-187.928
 30
0
 10
-49.3644
 20
-186.412
 30
0
 10
-49.465
 20
-184.895
 30
0
 10
-49.554
 20
-183.377
 30
0
 10
-50.035
 20
-175.012
 30
0
 10
-50.1627
 20
-166.63
 30
0
 10
-50.1011
 20
-158.253
 30
0
 10
-50.045
 20
-151.004
 30
0
 10
-49.8409
 20
-143.758
 30
0
 10
-49.5394
 20
-136.515
 30
0
 10
-48.9494
 20
-122.474
 30
0
 10
-48.0084
 20
-108.448
 30
0
 10
-46.8498
 20
-94.442
 30
0
 10
-45.592
 20
-79.3407
 30
0
 10
-44.0785
 20
-64.2597
 30
0
 10
-42.2232
 20
-49.2197
 30
0
  0
LINE
  5
A34
330
A02
100
AcDbEntity
  8
Shape2DView007
100
AcDbLine
 10
-43.2232
 20
-176.72
 30
0
 11
-43.2232
 21
-186.72
 31
0
  0
LINE
  5
A35
330
A02
100
AcDbEntity
  8
Shape2DView007
100
AcDbLine
 10
-43.2232
 20
-176.72
 30
0
 11
-38.7232
 21
-176.72
 31
0
  0
LINE
  5
A36
330
A02
100
AcDbEntity
  8
Shape2DView007
100
AcDbLine
 10
-38.7232
 20
-176.72
 30
0
 11
-38.7232
 21
-186.72
 31
0
  0
LINE
  5
A37
330
A02
100
AcDbEntity
  8
Shape2DView007
100
AcDbLine
 10
-43.2232
 20
-186.72
 30
0
 11
-38.7232
 21
-186.72
 31
0
  0
LINE
  5
A38
330
A02
100
AcDbEntity
  8
Shape2DView007
100
AcDbLine
 10
-43.2232
 20
-154.62
 30
0
 11
-43.2232
 21
-164.62
 31
0
  0
LINE
  5
A39
330
A02
100
AcDbEntity
  8
Shape2DView007
100
AcDbLine
 10
-43.2232
 20
-154.62
 30
0
 11
-38.7232
 21
-154.62
 31
0
  0
LINE
  5
A3A
330
A02
100
AcDbEntity
  8
Shape2DView007
100
AcDbLine
 10
-43.2232
 20
-164.62
 30
0
 11
-38.7232
 21
-164.62
 31
0
  0
LINE
  5
A3B
330
A02
100
AcDbEntity
  8
Shape2DView007
100
AcDbLine
 10
-38.7232
 20
-154.62
 30
0
 11
-38.7232
 21
-164.62
 31
0
  0
LINE
  5
A3C
330
A02
100
AcDbEntity
  8
Shape2DView007
100
AcDbLine
 10
-43.2232
 20
-126.22
 30
0
 11
-43.2232
 21
-136.22
 31
0
  0
LINE
  5
A3D
330
A02
100
AcDbEntity
  8
Shape2DView007
100
AcDbLine
 10
-43.2232
 20
-126.22
 30
0
 11
-38.7232
 21
-126.22
 31
0
  0
LINE
  5
A3E
330
A02
100
AcDbEntity
  8
Shape2DView007
100
AcDbLine
 10
-43.2232
 20
-136.22
 30
0
 11
-38.7232
 21
-136.22
 31
0
  0
LINE
  5
A3F
330
A02
100
AcDbEntity
  8
Shape2DView007
100
AcDbLine
 10
-38.7232
 20
-126.22
 30
0
 11
-38.7232
 21
-136.22
 31
0
  0
SPLINE
  5
A40
330
A02
100
AcDbEntity
  8
Shape2DView008
100
AcDbSpline
210
0
220
0
230
1
 70
8
 71
3
 72
53
 73
49
 74
0
 40
0
 40
0
 40
0
 40
0
 40
0.262597
 40
0.262597
 40
0.262597
 40
0.505344
 40
0.505344
 40
0.505344
 40
0.63013
 40
0.63013
 40
0.63013
 40
0.773759
 40
0.773759
 40
0.773759
 40
0.79972
 40
0.79972
 40
0.79972
 40
0.824525
 40
0.824525
 40
0.824525
 40
0.848087
 40
0.848087
 40
0.848087
 40
0.869973
 40
0.869973
 40
0.869973
 40
0.892212
 40
0.892212
 40
0.892212
 40
0.913139
 40
0.913139
 40
0.913139
 40
0.966609
 40
0.966609
 40
0.966609
 40
0.980975
 40
0.980975
 40
0.980975
 40
1.00424
 40
1.00424
 40
1.00424
 40
1.01322
 40
1.01322
 40
1.01322
 40
1.02064
 40
1.02064
 40
1.02064
 40
1.03248
 40
1.03248
 40
1.03248
 40
1.03248
 10
-8.75361
 20
-25.5336
 30
0
 10
-5.87661
 20
-42.8022
 30
0
 10
-3.38213
 20
-60.1334
 30
0
 10
-1.17717
 20
-77.5002
 30
0
 10
0.852211
 20
-93.5553
 30
0
 10
2.6377
 20
-109.643
 30
0
 10
4.0245
 20
-125.767
 30
0
 10
4.73411
 20
-134.056
 30
0
 10
5.33392
 20
-142.354
 30
0
 10
5.76482
 20
-150.662
 30
0
 10
6.25715
 20
-160.224
 30
0
 10
6.53553
 20
-169.801
 30
0
 10
6.40777
 20
-179.376
 30
0
 10
6.38601
 20
-181.107
 30
0
 10
6.34755
 20
-182.837
 30
0
 10
6.29239
 20
-184.567
 30
0
 10
6.23554
 20
-186.219
 30
0
 10
6.16857
 20
-187.872
 30
0
 10
6.09149
 20
-189.524
 30
0
 10
6.02102
 20
-191.094
 30
0
 10
5.94929
 20
-192.664
 30
0
 10
5.80517
 20
-194.228
 30
0
 10
5.67131
 20
-195.68
 30
0
 10
5.475
 20
-197.127
 30
0
 10
5.2762
 20
-198.573
 30
0
 10
5.07418
 20
-200.042
 30
0
 10
4.86959
 20
-201.511
 30
0
 10
4.6168
 20
-202.971
 30
0
 10
4.37855
 20
-204.346
 30
0
 10
4.09875
 20
-205.713
 30
0
 10
3.77738
 20
-207.072
 30
0
 10
2.95658
 20
-210.539
 30
0
 10
1.8738
 20
-213.958
 30
0
 10
0.338378
 20
-217.179
 30
0
 10
-0.0736152
 20
-218.044
 30
0
 10
-0.523745
 20
-218.89
 30
0
 10
-1.01201
 20
-219.715
 30
0
 10
-1.80639
 20
-221.046
 30
0
 10
-2.70443
 20
-222.325
 30
0
 10
-3.78727
 20
-223.439
 30
0
 10
-4.20598
 20
-223.868
 30
0
 10
-4.65356
 20
-224.269
 30
0
 10
-5.13927
 20
-224.621
 30
0
 10
-5.54072
 20
-224.912
 30
0
 10
-5.96822
 20
-225.168
 30
0
 10
-6.42873
 20
-225.356
 30
0
 10
-7.1653
 20
-225.657
 30
0
 10
-7.97722
 20
-225.78
 30
0
 10
-8.75361
 20
-225.534
 30
0
  0
SPLINE
  5
A41
330
A02
100
AcDbEntity
  8
Shape2DView008
100
AcDbSpline
210
0
220
0
230
1
 70
8
 71
3
 72
53
 73
49
 74
0
 40
0
 40
0
 40
0
 40
0
 40
0.0117663
 40
0.0117663
 40
0.0117663
 40
0.018919
 40
0.018919
 40
0.018919
 40
0.0273092
 40
0.0273092
 40
0.0273092
 40
0.0481195
 40
0.0481195
 40
0.0481195
 40
0.0605719
 40
0.0605719
 40
0.0605719
 40
0.0896095
 40
0.0896095
 40
0.0896095
 40
0.124379
 40
0.124379
 40
0.124379
 40
0.144056
 40
0.144056
 40
0.144056
 40
0.166842
 40
0.166842
 40
0.166842
 40
0.190576
 40
0.190576
 40
0.190576
 40
0.215518
 40
0.215518
 40
0.215518
 40
0.24158
 40
0.24158
 40
0.24158
 40
0.385206
 40
0.385206
 40
0.385206
 40
0.509466
 40
0.509466
 40
0.509466
 40
0.750393
 40
0.750393
 40
0.750393
 40
1.01017
 40
1.01017
 40
1.01017
 40
1.01017
 10
-8.75361
 20
-225.534
 30
0
 10
-9.52734
 20
-225.302
 30
0
 10
-10.1343
 20
-224.766
 30
0
 10
-10.6073
 20
-224.134
 30
0
 10
-10.8944
 20
-223.75
 30
0
 10
-11.1306
 20
-223.334
 30
0
 10
-11.3371
 20
-222.904
 30
0
 10
-11.5766
 20
-222.397
 30
0
 10
-11.7837
 20
-221.877
 30
0
 10
-11.9583
 20
-221.345
 30
0
 10
-12.3959
 20
-220.027
 30
0
 10
-12.6973
 20
-218.669
 30
0
 10
-12.9611
 20
-217.308
 30
0
 10
-13.1164
 20
-216.492
 30
0
 10
-13.2584
 20
-215.674
 30
0
 10
-13.3872
 20
-214.854
 30
0
 10
-13.6899
 20
-212.942
 30
0
 10
-13.9451
 20
-211.022
 30
0
 10
-14.1902
 20
-209.102
 30
0
 10
-14.4851
 20
-206.803
 30
0
 10
-14.7515
 20
-204.5
 30
0
 10
-15.023
 20
-202.198
 30
0
 10
-15.1778
 20
-200.896
 30
0
 10
-15.3369
 20
-199.593
 30
0
 10
-15.4667
 20
-198.288
 30
0
 10
-15.617
 20
-196.777
 30
0
 10
-15.7278
 20
-195.261
 30
0
 10
-15.8721
 20
-193.749
 30
0
 10
-16.0225
 20
-192.174
 30
0
 10
-16.2093
 20
-190.602
 30
0
 10
-16.3666
 20
-189.028
 30
0
 10
-16.5319
 20
-187.373
 30
0
 10
-16.6646
 20
-185.716
 30
0
 10
-16.7867
 20
-184.057
 30
0
 10
-16.915
 20
-182.324
 30
0
 10
-17.0299
 20
-180.591
 30
0
 10
-17.1316
 20
-178.856
 30
0
 10
-17.6813
 20
-169.296
 30
0
 10
-17.8273
 20
-159.717
 30
0
 10
-17.7569
 20
-150.143
 30
0
 10
-17.6928
 20
-141.859
 30
0
 10
-17.4595
 20
-133.577
 30
0
 10
-17.115
 20
-125.3
 30
0
 10
-16.4407
 20
-109.252
 30
0
 10
-15.3652
 20
-93.2229
 30
0
 10
-14.0411
 20
-77.2161
 30
0
 10
-12.6037
 20
-59.9575
 30
0
 10
-10.874
 20
-42.722
 30
0
 10
-8.75361
 20
-25.5336
 30
0
  0
LINE
  5
A42
330
A02
100
AcDbEntity
  8
Shape2DView008
100
AcDbLine
 10
-9.75361
 20
-153.034
 30
0
 11
-9.75361
 21
-163.034
 31
0
  0
LINE
  5
A43
330
A02
100
AcDbEntity
  8
Shape2DView008
100
AcDbLine
 10
-9.75361
 20
-153.034
 30
0
 11
-5.25361
 21
-153.034
 31
0
  0
LINE
  5
A44
330
A02
100
AcDbEntity
  8
Shape2DView008
100
AcDbLine
 10
-5.25361
 20
-153.034
 30
0
 11
-5.25361
 21
-163.034
 31
0
  0
LINE
  5
A45
330
A02
100
AcDbEntity
  8
Shape2DView008
100
AcDbLine
 10
-9.75361
 20
-163.034
 30
0
 11
-5.25361
 21
-163.034
 31
0
  0
LINE
  5
A46
330
A02
100
AcDbEntity
  8
Shape2DView008
100
AcDbLine
 10
-9.75361
 20
-130.934
 30
0
 11
-9.75361
 21
-140.934
 31
0
  0
LINE
  5
A47
330
A02
100
AcDbEntity
  8
Shape2DView008
100
AcDbLine
 10
-9.75361
 20
-130.934
 30
0
 11
-5.25361
 21
-130.934
 31
0
  0
LINE
  5
A48
330
A02
100
AcDbEntity
  8
Shape2DView008
100
AcDbLine
 10
-9.75361
 20
-140.934
 30
0
 11
-5.25361
 21
-140.934
 31
0
  0
LINE
  5
A49
330
A02
100
AcDbEntity
  8
Shape2DView008
100
AcDbLine
 10
-5.25361
 20
-130.934
 30
0
 11
-5.25361
 21
-140.934
 31
0
  0
LINE
  5
A4A
330
A02
100
AcDbEntity
  8
Shape2DView008
100
AcDbLine
 10
-9.75361
 20
-102.534
 30
0
 11
-9.75361
 21
-112.534
 31
0
  0
LINE
  5
A4B
330
A02
100
AcDbEntity
  8
Shape2DView008
100
AcDbLine
 10
-9.75361
 20
-102.534
 30
0
 11
-5.25361
 21
-102.534
 31
0
  0
LINE
  5
A4C
330
A02
100
AcDbEntity
  8
Shape2DView008
100
AcDbLine
 10
-9.75361
 20
-112.534
 30
0
 11
-5.25361
 21
-112.534
 31
0
  0
LINE
  5
A4D
330
A02
100
AcDbEntity
  8
Shape2DView008
100
AcDbLine
 10
-5.25361
 20
-102.534
 30
0
 11
-5.25361
 21
-112.534
 31
0
  0
SPLINE
  5
A4E
330
A02
100
AcDbEntity
  8
BSpline
100
AcDbSpline
210
0
220
0
230
1
 70
8
 71
2
 72
6
 73
3
 74
0
 40
0
 40
0
 40
0
 40
13.5366
 40
13.5366
 40
13.5366
 10
-36.4405
 20
-86.0759
 30
0
 10
-42.0374
 20
-96.0282
 30
0
 10
-46.0032
 20
-86.7136
 30
0
  0
SPLINE
  5
A4F
330
A02
100
AcDbEntity
  8
BSpline001
100
AcDbSpline
210
0
220
0
230
1
 70
8
 71
2
 72
6
 73
3
 74
0
 40
0
 40
0
 40
0
 40
11.0663
 40
11.0663
 40
11.0663
 10
-65.6921
 20
-105.822
 30
0
 10
-69.0376
 20
-114.243
 30
0
 10
-73.3485
 20
-106.801
 30
0
  0
ENDSEC
  0
SECTION
  2
OBJECTS
  0
DICTIONARY
  5
F000
330
0
100
AcDbDictionary
  3
ACAD_GROUP
350
F001
  0
DICTIONARY
  5
F001
330
F000
100
AcDbDictionary
  0
ENDSEC
  0
EOF