999
FreeCAD v0.20 29410 (Git)
  0
SECTION
  2
HEADER
  9
$ACADVER
  1
AC1014
  9
$ACADMAINTVER
 70
     9
  9
$DWGCODEPAGE
  3
ANSI_1252
  9
$TEXTSTYLE
  7
STANDARD
  9
$DIMSTYLE
  2
STANDARD
  9
$DIMTXSTY
  7
STANDARD
  9
$CMLSTYLE
  2
STANDARD
  9
$LUNITS
 70
2
  9
$INSUNITS
 70
4
  9
$PEXTMAX
 10
50
 20
50
 30
50
  9
$PEXTMIN
 10
0
 20
0
 30
0
  9
$HANDSEED
  5
FFFF
  0
ENDSEC
  0
SECTION
  2
CLASSES
  0
CLASS
  1
ACDBDICTIONARYWDFLT
  2
AcDbDictionaryWithDefault
  3
ObjectDBX Classes
 90
        0
280
     0
281
     0
  0
CLASS
  1
XRECORD
  2
AcDbXrecord
  3
ObjectDBX Classes
 90
        0
280
     0
281
     0
  0
CLASS
  1
LWPOLYLINE
  2
AcDbPolyline
  3
ObjectDBX Classes
 90
        0
280
     0
281
     1
  0
ENDSEC
  0
SECTION
  2
TABLES
  0
TABLE
  2
VPORT
  5
20
330
0
100
AcDbSymbolTable
 70
     1
  0
VPORT
  5
21
330
20
100
AcDbSymbolTableRecord
100
AcDbViewportTableRecord
  2
*ACTIVE
 70
     0
  0
ENDTAB
  0
TABLE
  2
LTYPE
  5
22
330
0
100
AcDbSymbolTable
 70
     1
  0
LTYPE
  5
23
330
21
100
AcDbSymbolTableRecord
100
AcDbLinetypeTableRecord
  2
BYBLOCK
 70
     0
  3

 72
    65
 73
     0
 40
0.0
  0
LTYPE
  5
24
330
21
100
AcDbSymbolTableRecord
100
AcDbLinetypeTableRecord
  2
BYLAYER
 70
     0
  3

 72
    65
 73
     0
 40
0.0
  0
LTYPE
  5
25
330
21
100
AcDbSymbolTableRecord
100
AcDbLinetypeTableRecord
  2
CONTINUOUS
 70
     0
  3
Solid line
 72
    65
 73
     0
 40
0.0
  0
ENDTAB
  0
TABLE
  2
LAYER
  5
AD5
330
0
100
AcDbSymbolTable
 70
21
  0
LAYER
  5
AD6
330
AD5
100
AcDbSymbolTableRecord
100
AcDbLayerTableRecord
  2
0
 70
   0
 62
   7
  6
CONTINUOUS
  0
LAYER
  5
AD7
330
AD5
100
AcDbSymbolTableRecord
100
AcDbLayerTableRecord
  2
none
 70
    0
 62
    7
  6
CONTINUOUS
  0
LAYER
  5
AD8
330
AD5
100
AcDbSymbolTableRecord
100
AcDbLayerTableRecord
  2
Shape2DView
 70
    0
 62
    7
  6
CONTINUOUS
  0
LAYER
  5
AD9
330
AD5
100
AcDbSymbolTableRecord
100
AcDbLayerTableRecord
  2
Shape2DView001
 70
    0
 62
    7
  6
CONTINUOUS
  0
LAYER
  5
ADA
330
AD5
100
AcDbSymbolTableRecord
100
AcDbLayerTableRecord
  2
Shape2DView002
 70
    0
 62
    7
  6
CONTINUOUS
  0
LAYER
  5
ADB
330
AD5
100
AcDbSymbolTableRecord
100
AcDbLayerTableRecord
  2
Shape2DView003
 70
    0
 62
    7
  6
CONTINUOUS
  0
LAYER
  5
ADC
330
AD5
100
AcDbSymbolTableRecord
100
AcDbLayerTableRecord
  2
Shape2DView004
 70
    0
 62
    7
  6
CONTINUOUS
  0
LAYER
  5
ADD
330
AD5
100
AcDbSymbolTableRecord
100
AcDbLayerTableRecord
  2
Shape2DView005
 70
    0
 62
    7
  6
CONTINUOUS
  0
LAYER
  5
ADE
330
AD5
100
AcDbSymbolTableRecord
100
AcDbLayerTableRecord
  2
Shape2DView006
 70
    0
 62
    7
  6
CONTINUOUS
  0
LAYER
  5
ADF
330
AD5
100
AcDbSymbolTableRecord
100
AcDbLayerTableRecord
  2
Shape2DView007
 70
    0
 62
    7
  6
CONTINUOUS
  0
LAYER
  5
AE0
330
AD5
100
AcDbSymbolTableRecord
100
AcDbLayerTableRecord
  2
Shape2DView008
 70
    0
 62
    7
  6
CONTINUOUS
  0
LAYER
  5
AE1
330
AD5
100
AcDbSymbolTableRecord
100
AcDbLayerTableRecord
  2
Shape2DView009
 70
    0
 62
    7
  6
CONTINUOUS
  0
LAYER
  5
AE2
330
AD5
100
AcDbSymbolTableRecord
100
AcDbLayerTableRecord
  2
Shape2DView010
 70
    0
 62
    7
  6
CONTINUOUS
  0
LAYER
  5
AE3
330
AD5
100
AcDbSymbolTableRecord
100
AcDbLayerTableRecord
  2
Shape2DView011
 70
    0
 62
    7
  6
CONTINUOUS
  0
LAYER
  5
AE4
330
AD5
100
AcDbSymbolTableRecord
100
AcDbLayerTableRecord
  2
Shape2DView012
 70
    0
 62
    7
  6
CONTINUOUS
  0
LAYER
  5
AE5
330
AD5
100
AcDbSymbolTableRecord
100
AcDbLayerTableRecord
  2
Shape2DView013
 70
    0
 62
    7
  6
CONTINUOUS
  0
LAYER
  5
AE6
330
AD5
100
AcDbSymbolTableRecord
100
AcDbLayerTableRecord
  2
Shape2DView014
 70
    0
 62
    7
  6
CONTINUOUS
  0
LAYER
  5
AE7
330
AD5
100
AcDbSymbolTableRecord
100
AcDbLayerTableRecord
  2
Shape2DView015
 70
    0
 62
    7
  6
CONTINUOUS
  0
LAYER
  5
AE8
330
AD5
100
AcDbSymbolTableRecord
100
AcDbLayerTableRecord
  2
Shape2DView016
 70
    0
 62
    7
  6
CONTINUOUS
  0
LAYER
  5
AE9
330
AD5
100
AcDbSymbolTableRecord
100
AcDbLayerTableRecord
  2
Shape2DView017
 70
    0
 62
    7
  6
CONTINUOUS
  0
LAYER
  5
AEA
330
AD5
100
AcDbSymbolTableRecord
100
AcDbLayerTableRecord
  2
Shape2DView018
 70
    0
 62
    7
  6
CONTINUOUS
  0
ENDTAB
  0
TABLE
  2
STYLE
  5
70
330
0
100
AcDbSymbolTable
 70
     2
  0
STYLE
  5
71
330
70
100
AcDbSymbolTableRecord
100
AcDbTextStyleTableRecord
  2
STANDARD
 70
     0
 40
0.0
 41
1.0
 50
0.0
 71
     0
 42
2.5
  3
arial.ttf
  4

  0
STYLE
  5
72
330
70
100
AcDbSymbolTableRecord
100
AcDbTextStyleTableRecord
  2
ANNOTATIVE
 70
     0
 40
0.0
 41
1.0
 50
0.0
 71
     0
 42
2.5
  3
arial.ttf
  4

  0
ENDTAB
  0
TABLE
  2
VIEW
  5
73
330
0
100
AcDbSymbolTable
 70
     0
  0
ENDTAB
  0
TABLE
  2
UCS
  5
74
330
0
100
AcDbSymbolTable
 70
     0
  0
ENDTAB
  0
TABLE
  2
APPID
  5
75
330
0
100
AcDbSymbolTable
 70
     2
  0
APPID
  5
76
330
75
100
AcDbSymbolTableRecord
100
AcDbRegAppTableRecord
  2
ACAD
 70
     0
  0
APPID
  5
77
330
75
100
AcDbSymbolTableRecord
100
AcDbRegAppTableRecord
  2
ACADANNOTATIVE
 70
     0
  0
ENDTAB
  0
TABLE
  2
DIMSTYLE
  5
78
330
0
100
AcDbSymbolTable
 70
     2
  0
DIMSTYLE
105
79
330
78
100
AcDbSymbolTableRecord
100
AcDbDimStyleTableRecord
  2
STANDARD
 70
     0
  3

  4

  5

  6

  7

 40
0.0
 41
2.5
 42
0.625
 43
3.75
 44
1.25
 45
0.0
 46
0.0
 47
0.0
 48
0.0
140
2.5
141
2.5
142
0.0
143
0.03937007874016
144
1.0
145
0.0
146
1.0
147
0.625
 71
     0
 72
     0
 73
     0
 74
     0
 75
     0
 76
     0
 77
     1
 78
     8
170
     0
171
     3
172
     1
173
     0
174
     0
175
     0
176
     0
177
     0
178
     0
270
     2
271
     2
272
     2
273
     2
274
     3
340
71
275
     0
280
     0
281
     0
282
     0
283
     0
284
     8
285
     0
286
     0
287
     3
288
     0
  0
ENDTAB
  0
TABLE
  2
BLOCK_RECORD
  5
A01
330
0
100
AcDbSymbolTable
  70
5
  0
BLOCK_RECORD
  5
A02
330
A01
100
AcDbSymbolTableRecord
100
AcDbBlockTableRecord
  2
*MODEL_SPACE
  0
BLOCK_RECORD
  5
A03
330
A01
100
AcDbSymbolTableRecord
100
AcDbBlockTableRecord
  2
*PAPER_SPACE
  0
ENDTAB
  0
ENDSEC
  0
SECTION
  2
BLOCKS
  0
BLOCK
  5
A04
330
A02
100
AcDbEntity
  8
0
100
AcDbBlockBegin
  2
*MODEL_SPACE
 70
   0
 10
0
 20
0
 30
0
  3
*MODEL_SPACE
  1
 
  0
ENDBLK
  5
A05
330
A02
100
AcDbEntity
  8
0
100
AcDbBlockEnd
  0
BLOCK
  5
A06
330
A03
100
AcDbEntity
 67
1
  8
0
100
AcDbBlockBegin
  2
*PAPER_SPACE
 70
   0
 10
0
 20
0
 30
0
  3
*PAPER_SPACE
  1
 
  0
ENDBLK
  5
A07
330
A03
100
AcDbEntity
 67
    1
  8
0
100
AcDbBlockEnd
  0
ENDSEC
  0
SECTION
  2
ENTITIES
  0
SPLINE
  5
A08
330
A02
100
AcDbEntity
  8
Shape2DView
100
AcDbSpline
210
0
220
0
230
1
 70
8
 71
3
 72
56
 73
52
 74
0
 40
0
 40
0
 40
0
 40
0
 40
0.138675
 40
0.138675
 40
0.138675
 40
0.264875
 40
0.264875
 40
0.264875
 40
0.383696
 40
0.383696
 40
0.383696
 40
0.510352
 40
0.510352
 40
0.510352
 40
0.574131
 40
0.574131
 40
0.574131
 40
0.637366
 40
0.637366
 40
0.637366
 40
0.699342
 40
0.699342
 40
0.699342
 40
0.786498
 40
0.786498
 40
0.786498
 40
0.839458
 40
0.839458
 40
0.839458
 40
0.909275
 40
0.909275
 40
0.909275
 40
0.948508
 40
0.948508
 40
0.948508
 40
0.981396
 40
0.981396
 40
0.981396
 40
0.995404
 40
0.995404
 40
0.995404
 40
1.01866
 40
1.01866
 40
1.01866
 40
1.0281
 40
1.0281
 40
1.0281
 40
1.03632
 40
1.03632
 40
1.03632
 40
1.05065
 40
1.05065
 40
1.05065
 40
1.05065
 10
-9.33792
 20
105.946
 30
-84.7601
 10
-20.3409
 20
102.413
 30
-84.7601
 10
-31.4494
 20
99.2102
 30
-84.7601
 10
-42.6359
 20
96.3108
 30
-84.7601
 10
-52.8186
 20
93.6731
 30
-84.7601
 10
-63.0598
 20
91.2862
 30
-84.7601
 10
-73.3594
 20
89.15
 30
-84.7601
 10
-83.0562
 20
87.1364
 30
-84.7601
 10
-92.7953
 20
85.3531
 30
-84.7601
 10
-102.576
 20
83.8004
 30
-84.7601
 10
-113.001
 20
82.1492
 30
-84.7601
 10
-123.469
 20
80.7689
 30
-84.7601
 10
-133.971
 20
79.7086
 30
-84.7601
 10
-139.259
 20
79.1735
 30
-84.7601
 10
-144.555
 20
78.7251
 30
-84.7601
 10
-149.858
 20
78.3635
 30
-84.7601
 10
-155.116
 20
78.007
 30
-84.7601
 10
-160.38
 20
77.7316
 30
-84.7601
 10
-165.648
 20
77.6036
 30
-84.7601
 10
-170.813
 20
77.4786
 30
-84.7601
 10
-175.977
 20
77.501
 30
-84.7601
 10
-181.14
 20
77.6706
 30
-84.7601
 10
-188.399
 20
77.9133
 30
-84.7601
 10
-195.65
 20
78.4603
 30
-84.7601
 10
-202.855
 20
79.378
 30
-84.7601
 10
-207.233
 20
79.9363
 30
-84.7601
 10
-211.594
 20
80.6319
 30
-84.7601
 10
-215.924
 20
81.49
 30
-84.7601
 10
-221.63
 20
82.6232
 30
-84.7601
 10
-227.286
 20
84.0321
 30
-84.7601
 10
-232.82
 20
85.83
 30
-84.7601
 10
-235.929
 20
86.8422
 30
-84.7601
 10
-238.999
 20
87.9779
 30
-84.7601
 10
-241.997
 20
89.2851
 30
-84.7601
 10
-244.508
 20
90.3824
 30
-84.7601
 10
-246.971
 20
91.5981
 30
-84.7601
 10
-249.329
 20
92.9973
 30
-84.7601
 10
-250.334
 20
93.5921
 30
-84.7601
 10
-251.314
 20
94.2261
 30
-84.7601
 10
-252.269
 20
94.8993
 30
-84.7601
 10
-253.848
 20
96.0211
 30
-84.7601
 10
-255.357
 20
97.2596
 30
-84.7601
 10
-256.654
 20
98.7044
 30
-84.7601
 10
-257.179
 20
99.2909
 30
-84.7601
 10
-257.666
 20
99.9125
 30
-84.7601
 10
-258.088
 20
100.577
 30
-84.7601
 10
-258.457
 20
101.156
 30
-84.7601
 10
-258.776
 20
101.768
 30
-84.7601
 10
-259.013
 20
102.413
 30
-84.7601
 10
-259.426
 20
103.539
 30
-84.7601
 10
-259.588
 20
104.759
 30
-84.7601
 10
-259.338
 20
105.946
 30
-84.7601
  0
SPLINE
  5
A09
330
A02
100
AcDbEntity
  8
Shape2DView
100
AcDbSpline
210
0
220
0
230
1
 70
8
 71
3
 72
53
 73
49
 74
0
 40
0
 40
0
 40
0
 40
0
 40
0.0143182
 40
0.0143182
 40
0.0143182
 40
0.0224938
 40
0.0224938
 40
0.0224938
 40
0.0318137
 40
0.0318137
 40
0.0318137
 40
0.0545466
 40
0.0545466
 40
0.0545466
 40
0.0831342
 40
0.0831342
 40
0.0831342
 40
0.117541
 40
0.117541
 40
0.117541
 40
0.1793
 40
0.1793
 40
0.1793
 40
0.251688
 40
0.251688
 40
0.251688
 40
0.332617
 40
0.332617
 40
0.332617
 40
0.390159
 40
0.390159
 40
0.390159
 40
0.450434
 40
0.450434
 40
0.450434
 40
0.512314
 40
0.512314
 40
0.512314
 40
0.635649
 40
0.635649
 40
0.635649
 40
0.752041
 40
0.752041
 40
0.752041
 40
0.876533
 40
0.876533
 40
0.876533
 40
1.01453
 40
1.01453
 40
1.01453
 40
1.01453
 10
-259.338
 20
105.946
 30
-84.7601
 10
-259.112
 20
107.136
 30
-84.7601
 10
-258.497
 20
108.199
 30
-84.7601
 10
-257.692
 20
109.086
 30
-84.7601
 10
-257.232
 20
109.592
 30
-84.7601
 10
-256.712
 20
110.039
 30
-84.7601
 10
-256.159
 20
110.439
 30
-84.7601
 10
-255.53
 20
110.896
 30
-84.7601
 10
-254.859
 20
111.293
 30
-84.7601
 10
-254.167
 20
111.648
 30
-84.7601
 10
-252.477
 20
112.51
 30
-84.7601
 10
-250.675
 20
113.129
 30
-84.7601
 10
-248.851
 20
113.636
 30
-84.7601
 10
-246.553
 20
114.268
 30
-84.7601
 10
-244.208
 20
114.714
 30
-84.7601
 10
-241.852
 20
115.066
 30
-84.7601
 10
-239.015
 20
115.487
 30
-84.7601
 10
-236.159
 20
115.766
 30
-84.7601
 10
-233.299
 20
115.968
 30
-84.7601
 10
-228.164
 20
116.325
 30
-84.7601
 10
-223.015
 20
116.432
 30
-84.7601
 10
-217.869
 20
116.431
 30
-84.7601
 10
-211.837
 20
116.426
 30
-84.7601
 10
-205.805
 20
116.263
 30
-84.7601
 10
-199.777
 20
116.038
 30
-84.7601
 10
-193.038
 20
115.785
 30
-84.7601
 10
-186.302
 20
115.45
 30
-84.7601
 10
-179.567
 20
115.105
 30
-84.7601
 10
-174.778
 20
114.859
 30
-84.7601
 10
-169.989
 20
114.604
 30
-84.7601
 10
-165.2
 20
114.362
 30
-84.7601
 10
-160.184
 20
114.111
 30
-84.7601
 10
-155.167
 20
113.872
 30
-84.7601
 10
-150.151
 20
113.606
 30
-84.7601
 10
-145.001
 20
113.331
 30
-84.7601
 10
-139.853
 20
113.042
 30
-84.7601
 10
-134.705
 20
112.739
 30
-84.7601
 10
-124.445
 20
112.138
 30
-84.7601
 10
-114.186
 20
111.504
 30
-84.7601
 10
-103.927
 20
110.888
 30
-84.7601
 10
-94.2452
 20
110.302
 30
-84.7601
 10
-84.5623
 20
109.739
 30
-84.7601
 10
-74.878
 20
109.197
 30
-84.7601
 10
-64.5196
 20
108.621
 30
-84.7601
 10
-54.1596
 20
108.078
 30
-84.7601
 10
-43.7978
 20
107.567
 30
-84.7601
 10
-32.3124
 20
106.999
 30
-84.7601
 10
-20.8253
 20
106.47
 30
-84.7601
 10
-9.33792
 20
105.946
 30
-84.7601
  0
LINE
  5
A0A
330
A02
100
AcDbEntity
  8
Shape2DView
100
AcDbLine
 10
-212.194
 20
108.346
 30
-84.7601
 11
-228.811
 21
108.346
 31
-84.7601
  0
LINE
  5
A0B
330
A02
100
AcDbEntity
  8
Shape2DView
100
AcDbLine
 10
-212.194
 20
108.346
 30
-84.7601
 11
-212.194
 21
103.846
 31
-84.7601
  0
LINE
  5
A0C
330
A02
100
AcDbEntity
  8
Shape2DView
100
AcDbLine
 10
-212.194
 20
103.846
 30
-84.7601
 11
-228.811
 21
103.846
 31
-84.7601
  0
LINE
  5
A0D
330
A02
100
AcDbEntity
  8
Shape2DView
100
AcDbLine
 10
-228.811
 20
108.346
 30
-84.7601
 11
-228.811
 21
103.846
 31
-84.7601
  0
LINE
  5
A0E
330
A02
100
AcDbEntity
  8
Shape2DView
100
AcDbLine
 10
-84.6379
 20
103.446
 30
-84.7601
 11
-94.6379
 21
103.446
 31
-84.7601
  0
LINE
  5
A0F
330
A02
100
AcDbEntity
  8
Shape2DView
100
AcDbLine
 10
-84.6379
 20
103.446
 30
-84.7601
 11
-84.6379
 21
98.946
 31
-84.7601
  0
LINE
  5
A10
330
A02
100
AcDbEntity
  8
Shape2DView
100
AcDbLine
 10
-94.6379
 20
103.446
 30
-84.7601
 11
-94.6379
 21
98.946
 31
-84.7601
  0
LINE
  5
A11
330
A02
100
AcDbEntity
  8
Shape2DView
100
AcDbLine
 10
-84.6379
 20
98.946
 30
-84.7601
 11
-94.6379
 21
98.946
 31
-84.7601
  0
LINE
  5
A12
330
A02
100
AcDbEntity
  8
Shape2DView
100
AcDbLine
 10
-59.3379
 20
103.446
 30
-84.7601
 11
-69.3379
 21
103.446
 31
-84.7601
  0
LINE
  5
A13
330
A02
100
AcDbEntity
  8
Shape2DView
100
AcDbLine
 10
-59.3379
 20
103.446
 30
-84.7601
 11
-59.3379
 21
98.946
 31
-84.7601
  0
LINE
  5
A14
330
A02
100
AcDbEntity
  8
Shape2DView
100
AcDbLine
 10
-69.3379
 20
103.446
 30
-84.7601
 11
-69.3379
 21
98.946
 31
-84.7601
  0
LINE
  5
A15
330
A02
100
AcDbEntity
  8
Shape2DView
100
AcDbLine
 10
-59.3379
 20
98.946
 30
-84.7601
 11
-69.3379
 21
98.946
 31
-84.7601
  0
SPLINE
  5
A16
330
A02
100
AcDbEntity
  8
Shape2DView001
100
AcDbSpline
210
0
220
0
230
1
 70
8
 71
3
 72
50
 73
46
 74
0
 40
0
 40
0
 40
0
 40
0
 40
0.264875
 40
0.264875
 40
0.264875
 40
0.510352
 40
0.510352
 40
0.510352
 40
0.574131
 40
0.574131
 40
0.574131
 40
0.637366
 40
0.637366
 40
0.637366
 40
0.699342
 40
0.699342
 40
0.699342
 40
0.786498
 40
0.786498
 40
0.786498
 40
0.839458
 40
0.839458
 40
0.839458
 40
0.909275
 40
0.909275
 40
0.909275
 40
0.948508
 40
0.948508
 40
0.948508
 40
0.981396
 40
0.981396
 40
0.981396
 40
0.995404
 40
0.995404
 40
0.995404
 40
1.01866
 40
1.01866
 40
1.01866
 40
1.0281
 40
1.0281
 40
1.0281
 40
1.03632
 40
1.03632
 40
1.03632
 40
1.05065
 40
1.05065
 40
1.05065
 40
1.05065
 10
-30.136
 20
144.788
 30
-100.673
 10
-46.9507
 20
139.394
 30
-100.673
 10
-64.0647
 20
134.943
 30
-100.673
 10
-81.3532
 20
131.351
 30
-100.673
 10
-97.3773
 20
128.033
 30
-100.673
 10
-113.559
 20
125.447
 30
-100.673
 10
-129.842
 20
123.798
 30
-100.673
 10
-134.073
 20
123.37
 30
-100.673
 10
-138.31
 20
123.011
 30
-100.673
 10
-142.552
 20
122.722
 30
-100.673
 10
-146.758
 20
122.437
 30
-100.673
 10
-150.969
 20
122.216
 30
-100.673
 10
-155.184
 20
122.114
 30
-100.673
 10
-159.316
 20
122.014
 30
-100.673
 10
-163.447
 20
122.032
 30
-100.673
 10
-167.578
 20
122.168
 30
-100.673
 10
-173.385
 20
122.362
 30
-100.673
 10
-179.185
 20
122.799
 30
-100.673
 10
-184.95
 20
123.533
 30
-100.673
 10
-188.452
 20
123.98
 30
-100.673
 10
-191.941
 20
124.537
 30
-100.673
 10
-195.405
 20
125.223
 30
-100.673
 10
-199.969
 20
126.13
 30
-100.673
 10
-204.494
 20
127.257
 30
-100.673
 10
-208.922
 20
128.695
 30
-100.673
 10
-211.409
 20
129.505
 30
-100.673
 10
-213.865
 20
130.413
 30
-100.673
 10
-216.263
 20
131.459
 30
-100.673
 10
-218.272
 20
132.337
 30
-100.673
 10
-220.242
 20
133.309
 30
-100.673
 10
-222.129
 20
134.429
 30
-100.673
 10
-222.933
 20
134.905
 30
-100.673
 10
-223.717
 20
135.412
 30
-100.673
 10
-224.481
 20
135.95
 30
-100.673
 10
-225.744
 20
136.848
 30
-100.673
 10
-226.951
 20
137.839
 30
-100.673
 10
-227.989
 20
138.995
 30
-100.673
 10
-228.409
 20
139.464
 30
-100.673
 10
-228.798
 20
139.961
 30
-100.673
 10
-229.136
 20
140.493
 30
-100.673
 10
-229.431
 20
140.956
 30
-100.673
 10
-229.686
 20
141.445
 30
-100.673
 10
-229.876
 20
141.962
 30
-100.673
 10
-230.206
 20
142.863
 30
-100.673
 10
-230.336
 20
143.839
 30
-100.673
 10
-230.136
 20
144.788
 30
-100.673
  0
SPLINE
  5
A17
330
A02
100
AcDbEntity
  8
Shape2DView001
100
AcDbSpline
210
0
220
0
230
1
 70
8
 71
3
 72
47
 73
43
 74
0
 40
0
 40
0
 40
0
 40
0
 40
0.0143182
 40
0.0143182
 40
0.0143182
 40
0.0224938
 40
0.0224938
 40
0.0224938
 40
0.0318137
 40
0.0318137
 40
0.0318137
 40
0.0545466
 40
0.0545466
 40
0.0545466
 40
0.0831342
 40
0.0831342
 40
0.0831342
 40
0.117541
 40
0.117541
 40
0.117541
 40
0.1793
 40
0.1793
 40
0.1793
 40
0.251688
 40
0.251688
 40
0.251688
 40
0.390159
 40
0.390159
 40
0.390159
 40
0.450434
 40
0.450434
 40
0.450434
 40
0.512314
 40
0.512314
 40
0.512314
 40
0.635649
 40
0.635649
 40
0.635649
 40
0.752041
 40
0.752041
 40
0.752041
 40
1.01453
 40
1.01453
 40
1.01453
 40
1.01453
 10
-230.136
 20
144.788
 30
-100.673
 10
-229.955
 20
145.74
 30
-100.673
 10
-229.463
 20
146.59
 30
-100.673
 10
-228.819
 20
147.3
 30
-100.673
 10
-228.451
 20
147.705
 30
-100.673
 10
-228.035
 20
148.062
 30
-100.673
 10
-227.593
 20
148.382
 30
-100.673
 10
-227.09
 20
148.748
 30
-100.673
 10
-226.553
 20
149.066
 30
-100.673
 10
-226
 20
149.349
 30
-100.673
 10
-224.647
 20
150.039
 30
-100.673
 10
-223.206
 20
150.534
 30
-100.673
 10
-221.746
 20
150.939
 30
-100.673
 10
-219.908
 20
151.445
 30
-100.673
 10
-218.032
 20
151.802
 30
-100.673
 10
-216.147
 20
152.084
 30
-100.673
 10
-213.878
 20
152.421
 30
-100.673
 10
-211.593
 20
152.644
 30
-100.673
 10
-209.305
 20
152.805
 30
-100.673
 10
-205.197
 20
153.091
 30
-100.673
 10
-201.078
 20
153.177
 30
-100.673
 10
-196.961
 20
153.176
 30
-100.673
 10
-192.135
 20
153.172
 30
-100.673
 10
-187.31
 20
153.042
 30
-100.673
 10
-182.488
 20
152.862
 30
-100.673
 10
-173.263
 20
152.512
 30
-100.673
 10
-164.046
 20
151.986
 30
-100.673
 10
-154.826
 20
151.521
 30
-100.673
 10
-150.813
 20
151.32
 30
-100.673
 10
-146.799
 20
151.129
 30
-100.673
 10
-142.786
 20
150.916
 30
-100.673
 10
-138.667
 20
150.696
 30
-100.673
 10
-134.548
 20
150.465
 30
-100.673
 10
-130.43
 20
150.222
 30
-100.673
 10
-122.221
 20
149.741
 30
-100.673
 10
-114.015
 20
149.235
 30
-100.673
 10
-105.807
 20
148.741
 30
-100.673
 10
-98.0618
 20
148.273
 30
-100.673
 10
-90.3155
 20
147.822
 30
-100.673
 10
-82.5681
 20
147.389
 30
-100.673
 10
-65.0964
 20
146.411
 30
-100.673
 10
-47.6169
 20
145.581
 30
-100.673
 10
-30.136
 20
144.788
 30
-100.673
  0
LINE
  5
A18
330
A02
100
AcDbEntity
  8
Shape2DView001
100
AcDbLine
 10
-206.451
 20
147.188
 30
-100.673
 11
-223.068
 21
147.188
 31
-100.673
  0
LINE
  5
A19
330
A02
100
AcDbEntity
  8
Shape2DView001
100
AcDbLine
 10
-206.451
 20
147.188
 30
-100.673
 11
-206.451
 21
142.688
 31
-100.673
  0
LINE
  5
A1A
330
A02
100
AcDbEntity
  8
Shape2DView001
100
AcDbLine
 10
-206.451
 20
142.688
 30
-100.673
 11
-223.068
 21
142.688
 31
-100.673
  0
LINE
  5
A1B
330
A02
100
AcDbEntity
  8
Shape2DView001
100
AcDbLine
 10
-223.068
 20
147.188
 30
-100.673
 11
-223.068
 21
142.688
 31
-100.673
  0
LINE
  5
A1C
330
A02
100
AcDbEntity
  8
Shape2DView001
100
AcDbLine
 10
-105.436
 20
142.288
 30
-100.673
 11
-115.436
 21
142.288
 31
-100.673
  0
LINE
  5
A1D
330
A02
100
AcDbEntity
  8
Shape2DView001
100
AcDbLine
 10
-105.436
 20
142.288
 30
-100.673
 11
-105.436
 21
137.788
 31
-100.673
  0
LINE
  5
A1E
330
A02
100
AcDbEntity
  8
Shape2DView001
100
AcDbLine
 10
-115.436
 20
142.288
 30
-100.673
 11
-115.436
 21
137.788
 31
-100.673
  0
LINE
  5
A1F
330
A02
100
AcDbEntity
  8
Shape2DView001
100
AcDbLine
 10
-105.436
 20
137.788
 30
-100.673
 11
-115.436
 21
137.788
 31
-100.673
  0
LINE
  5
A20
330
A02
100
AcDbEntity
  8
Shape2DView001
100
AcDbLine
 10
-80.136
 20
142.288
 30
-100.673
 11
-90.136
 21
142.288
 31
-100.673
  0
LINE
  5
A21
330
A02
100
AcDbEntity
  8
Shape2DView001
100
AcDbLine
 10
-80.136
 20
142.288
 30
-100.673
 11
-80.136
 21
137.788
 31
-100.673
  0
LINE
  5
A22
330
A02
100
AcDbEntity
  8
Shape2DView001
100
AcDbLine
 10
-90.136
 20
142.288
 30
-100.673
 11
-90.136
 21
137.788
 31
-100.673
  0
LINE
  5
A23
330
A02
100
AcDbEntity
  8
Shape2DView001
100
AcDbLine
 10
-80.136
 20
137.788
 30
-100.673
 11
-90.136
 21
137.788
 31
-100.673
  0
SPLINE
  5
A24
330
A02
100
AcDbEntity
  8
Shape2DView002
100
AcDbSpline
210
0
220
0
230
1
 70
8
 71
3
 72
44
 73
40
 74
0
 40
0
 40
0
 40
0
 40
0
 40
0.264875
 40
0.264875
 40
0.264875
 40
0.510352
 40
0.510352
 40
0.510352
 40
0.574131
 40
0.574131
 40
0.574131
 40
0.637366
 40
0.637366
 40
0.637366
 40
0.786498
 40
0.786498
 40
0.786498
 40
0.839458
 40
0.839458
 40
0.839458
 40
0.909275
 40
0.909275
 40
0.909275
 40
0.948508
 40
0.948508
 40
0.948508
 40
0.981396
 40
0.981396
 40
0.981396
 40
0.995404
 40
0.995404
 40
0.995404
 40
1.01866
 40
1.01866
 40
1.01866
 40
1.03632
 40
1.03632
 40
1.03632
 40
1.05065
 40
1.05065
 40
1.05065
 40
1.05065
 10
-33.6165
 20
176.823
 30
-110.706
 10
-48.3294
 20
172.103
 30
-110.706
 10
-63.3041
 20
168.208
 30
-110.706
 10
-78.4315
 20
165.065
 30
-110.706
 10
-92.4526
 20
162.162
 30
-110.706
 10
-106.612
 20
159.899
 30
-110.706
 10
-120.86
 20
158.456
 30
-110.706
 10
-124.562
 20
158.082
 30
-110.706
 10
-128.269
 20
157.768
 30
-110.706
 10
-131.981
 20
157.515
 30
-110.706
 10
-135.661
 20
157.265
 30
-110.706
 10
-139.346
 20
157.073
 30
-110.706
 10
-143.033
 20
156.983
 30
-110.706
 10
-151.729
 20
156.78
 30
-110.706
 10
-160.447
 20
157.128
 30
-110.706
 10
-169.079
 20
158.225
 30
-110.706
 10
-172.143
 20
158.616
 30
-110.706
 10
-175.196
 20
159.103
 30
-110.706
 10
-178.227
 20
159.703
 30
-110.706
 10
-182.221
 20
160.497
 30
-110.706
 10
-186.18
 20
161.483
 30
-110.706
 10
-190.054
 20
162.741
 30
-110.706
 10
-192.23
 20
163.45
 30
-110.706
 10
-194.379
 20
164.245
 30
-110.706
 10
-196.478
 20
165.16
 30
-110.706
 10
-198.236
 20
165.928
 30
-110.706
 10
-199.959
 20
166.779
 30
-110.706
 10
-201.61
 20
167.759
 30
-110.706
 10
-202.314
 20
168.175
 30
-110.706
 10
-203
 20
168.619
 30
-110.706
 10
-203.668
 20
169.09
 30
-110.706
 10
-204.774
 20
169.875
 30
-110.706
 10
-205.83
 20
170.742
 30
-110.706
 10
-206.738
 20
171.753
 30
-110.706
 10
-207.422
 20
172.521
 30
-110.706
 10
-208.029
 20
173.379
 30
-110.706
 10
-208.389
 20
174.35
 30
-110.706
 10
-208.678
 20
175.138
 30
-110.706
 10
-208.792
 20
175.992
 30
-110.706
 10
-208.616
 20
176.823
 30
-110.706
  0
SPLINE
  5
A25
330
A02
100
AcDbEntity
  8
Shape2DView002
100
AcDbSpline
210
0
220
0
230
1
 70
8
 71
3
 72
41
 73
37
 74
0
 40
0
 40
0
 40
0
 40
0
 40
0.0143182
 40
0.0143182
 40
0.0143182
 40
0.0318137
 40
0.0318137
 40
0.0318137
 40
0.0545466
 40
0.0545466
 40
0.0545466
 40
0.0831342
 40
0.0831342
 40
0.0831342
 40
0.117541
 40
0.117541
 40
0.117541
 40
0.1793
 40
0.1793
 40
0.1793
 40
0.251688
 40
0.251688
 40
0.251688
 40
0.390159
 40
0.390159
 40
0.390159
 40
0.450434
 40
0.450434
 40
0.450434
 40
0.512314
 40
0.512314
 40
0.512314
 40
0.752041
 40
0.752041
 40
0.752041
 40
1.01453
 40
1.01453
 40
1.01453
 40
1.01453
 10
-208.616
 20
176.823
 30
-110.706
 10
-208.458
 20
177.656
 30
-110.706
 10
-208.028
 20
178.4
 30
-110.706
 10
-207.464
 20
179.021
 30
-110.706
 10
-206.772
 20
179.778
 30
-110.706
 10
-205.903
 20
180.347
 30
-110.706
 10
-204.997
 20
180.814
 30
-110.706
 10
-203.814
 20
181.417
 30
-110.706
 10
-202.553
 20
181.851
 30
-110.706
 10
-201.276
 20
182.205
 30
-110.706
 10
-199.667
 20
182.648
 30
-110.706
 10
-198.025
 20
182.96
 30
-110.706
 10
-196.376
 20
183.207
 30
-110.706
 10
-194.391
 20
183.501
 30
-110.706
 10
-192.391
 20
183.697
 30
-110.706
 10
-190.389
 20
183.838
 30
-110.706
 10
-186.795
 20
184.088
 30
-110.706
 10
-183.191
 20
184.163
 30
-110.706
 10
-179.588
 20
184.162
 30
-110.706
 10
-175.366
 20
184.159
 30
-110.706
 10
-171.144
 20
184.045
 30
-110.706
 10
-166.924
 20
183.887
 30
-110.706
 10
-158.852
 20
183.581
 30
-110.706
 10
-150.787
 20
183.121
 30
-110.706
 10
-142.72
 20
182.714
 30
-110.706
 10
-139.209
 20
182.538
 30
-110.706
 10
-135.697
 20
182.371
 30
-110.706
 10
-132.185
 20
182.185
 30
-110.706
 10
-128.581
 20
181.992
 30
-110.706
 10
-124.977
 20
181.79
 30
-110.706
 10
-121.373
 20
181.578
 30
-110.706
 10
-107.414
 20
180.755
 30
-110.706
 10
-93.4574
 20
179.87
 30
-110.706
 10
-79.4945
 20
179.099
 30
-110.706
 10
-64.2068
 20
178.243
 30
-110.706
 10
-48.9123
 20
177.516
 30
-110.706
 10
-33.6165
 20
176.823
 30
-110.706
  0
LINE
  5
A26
330
A02
100
AcDbEntity
  8
Shape2DView002
100
AcDbLine
 10
-183.391
 20
178.223
 30
-110.706
 11
-200.007
 21
178.223
 31
-110.706
  0
LINE
  5
A27
330
A02
100
AcDbEntity
  8
Shape2DView002
100
AcDbLine
 10
-183.391
 20
178.223
 30
-110.706
 11
-183.391
 21
173.723
 31
-110.706
  0
LINE
  5
A28
330
A02
100
AcDbEntity
  8
Shape2DView002
100
AcDbLine
 10
-183.391
 20
173.723
 30
-110.706
 11
-200.007
 21
173.723
 31
-110.706
  0
LINE
  5
A29
330
A02
100
AcDbEntity
  8
Shape2DView002
100
AcDbLine
 10
-200.007
 20
178.223
 30
-110.706
 11
-200.007
 21
173.723
 31
-110.706
  0
LINE
  5
A2A
330
A02
100
AcDbEntity
  8
Shape2DView002
100
AcDbLine
 10
-108.916
 20
173.323
 30
-110.706
 11
-118.916
 21
173.323
 31
-110.706
  0
LINE
  5
A2B
330
A02
100
AcDbEntity
  8
Shape2DView002
100
AcDbLine
 10
-108.916
 20
173.323
 30
-110.706
 11
-108.916
 21
168.823
 31
-110.706
  0
LINE
  5
A2C
330
A02
100
AcDbEntity
  8
Shape2DView002
100
AcDbLine
 10
-118.916
 20
173.323
 30
-110.706
 11
-118.916
 21
168.823
 31
-110.706
  0
LINE
  5
A2D
330
A02
100
AcDbEntity
  8
Shape2DView002
100
AcDbLine
 10
-108.916
 20
168.823
 30
-110.706
 11
-118.916
 21
168.823
 31
-110.706
  0
LINE
  5
A2E
330
A02
100
AcDbEntity
  8
Shape2DView002
100
AcDbLine
 10
-83.6165
 20
173.323
 30
-110.706
 11
-93.6165
 21
173.323
 31
-110.706
  0
LINE
  5
A2F
330
A02
100
AcDbEntity
  8
Shape2DView002
100
AcDbLine
 10
-83.6165
 20
173.323
 30
-110.706
 11
-83.6165
 21
168.823
 31
-110.706
  0
LINE
  5
A30
330
A02
100
AcDbEntity
  8
Shape2DView002
100
AcDbLine
 10
-93.6165
 20
173.323
 30
-110.706
 11
-93.6165
 21
168.823
 31
-110.706
  0
LINE
  5
A31
330
A02
100
AcDbEntity
  8
Shape2DView002
100
AcDbLine
 10
-83.6165
 20
168.823
 30
-110.706
 11
-93.6165
 21
168.823
 31
-110.706
  0
SPLINE
  5
A32
330
A02
100
AcDbEntity
  8
Shape2DView003
100
AcDbSpline
210
0
220
0
230
1
 70
8
 71
3
 72
44
 73
40
 74
0
 40
0
 40
0
 40
0
 40
0
 40
0.264875
 40
0.264875
 40
0.264875
 40
0.510352
 40
0.510352
 40
0.510352
 40
0.574131
 40
0.574131
 40
0.574131
 40
0.637366
 40
0.637366
 40
0.637366
 40
0.786498
 40
0.786498
 40
0.786498
 40
0.839458
 40
0.839458
 40
0.839458
 40
0.909275
 40
0.909275
 40
0.909275
 40
0.948508
 40
0.948508
 40
0.948508
 40
0.981396
 40
0.981396
 40
0.981396
 40
0.995404
 40
0.995404
 40
0.995404
 40
1.01866
 40
1.01866
 40
1.01866
 40
1.03632
 40
1.03632
 40
1.03632
 40
1.05065
 40
1.05065
 40
1.05065
 40
1.05065
 10
-34.3806
 20
210.004
 30
-120.529
 10
-46.9917
 20
205.959
 30
-120.529
 10
-59.8271
 20
202.62
 30
-120.529
 10
-72.7935
 20
199.927
 30
-120.529
 10
-84.8116
 20
197.438
 30
-120.529
 10
-96.9482
 20
195.499
 30
-120.529
 10
-109.16
 20
194.262
 30
-120.529
 10
-112.334
 20
193.941
 30
-120.529
 10
-115.511
 20
193.672
 30
-120.529
 10
-118.693
 20
193.455
 30
-120.529
 10
-121.847
 20
193.241
 30
-120.529
 10
-125.006
 20
193.076
 30
-120.529
 10
-128.167
 20
192.999
 30
-120.529
 10
-135.62
 20
192.825
 30
-120.529
 10
-143.092
 20
193.124
 30
-120.529
 10
-150.491
 20
194.063
 30
-120.529
 10
-153.119
 20
194.396
 30
-120.529
 10
-155.733
 20
194.818
 30
-120.529
 10
-158.332
 20
195.331
 30
-120.529
 10
-161.756
 20
196.011
 30
-120.529
 10
-165.149
 20
196.856
 30
-120.529
 10
-168.47
 20
197.935
 30
-120.529
 10
-170.335
 20
198.542
 30
-120.529
 10
-172.177
 20
199.223
 30
-120.529
 10
-173.976
 20
200.008
 30
-120.529
 10
-175.483
 20
200.666
 30
-120.529
 10
-176.96
 20
201.396
 30
-120.529
 10
-178.375
 20
202.235
 30
-120.529
 10
-178.978
 20
202.592
 30
-120.529
 10
-179.567
 20
202.972
 30
-120.529
 10
-180.139
 20
203.376
 30
-120.529
 10
-181.087
 20
204.049
 30
-120.529
 10
-181.992
 20
204.792
 30
-120.529
 10
-182.77
 20
205.659
 30
-120.529
 10
-183.357
 20
206.317
 30
-120.529
 10
-183.877
 20
207.052
 30
-120.529
 10
-184.186
 20
207.885
 30
-120.529
 10
-184.433
 20
208.56
 30
-120.529
 10
-184.531
 20
209.292
 30
-120.529
 10
-184.381
 20
210.004
 30
-120.529
  0
SPLINE
  5
A33
330
A02
100
AcDbEntity
  8
Shape2DView003
100
AcDbSpline
210
0
220
0
230
1
 70
8
 71
3
 72
41
 73
37
 74
0
 40
0
 40
0
 40
0
 40
0
 40
0.0143182
 40
0.0143182
 40
0.0143182
 40
0.0318137
 40
0.0318137
 40
0.0318137
 40
0.0545466
 40
0.0545466
 40
0.0545466
 40
0.0831342
 40
0.0831342
 40
0.0831342
 40
0.117541
 40
0.117541
 40
0.117541
 40
0.1793
 40
0.1793
 40
0.1793
 40
0.251688
 40
0.251688
 40
0.251688
 40
0.390159
 40
0.390159
 40
0.390159
 40
0.450434
 40
0.450434
 40
0.450434
 40
0.512314
 40
0.512314
 40
0.512314
 40
0.752041
 40
0.752041
 40
0.752041
 40
1.01453
 40
1.01453
 40
1.01453
 40
1.01453
 10
-184.381
 20
210.004
 30
-120.529
 10
-184.245
 20
210.718
 30
-120.529
 10
-183.876
 20
211.356
 30
-120.529
 10
-183.393
 20
211.888
 30
-120.529
 10
-182.8
 20
212.537
 30
-120.529
 10
-182.055
 20
213.026
 30
-120.529
 10
-181.278
 20
213.425
 30
-120.529
 10
-180.264
 20
213.942
 30
-120.529
 10
-179.183
 20
214.314
 30
-120.529
 10
-178.088
 20
214.618
 30
-120.529
 10
-176.71
 20
214.998
 30
-120.529
 10
-175.302
 20
215.265
 30
-120.529
 10
-173.889
 20
215.476
 30
-120.529
 10
-172.187
 20
215.729
 30
-120.529
 10
-170.473
 20
215.896
 30
-120.529
 10
-168.757
 20
216.017
 30
-120.529
 10
-165.676
 20
216.231
 30
-120.529
 10
-162.587
 20
216.296
 30
-120.529
 10
-159.499
 20
216.295
 30
-120.529
 10
-155.88
 20
216.292
 30
-120.529
 10
-152.261
 20
216.195
 30
-120.529
 10
-148.644
 20
216.06
 30
-120.529
 10
-141.726
 20
215.797
 30
-120.529
 10
-134.813
 20
215.403
 30
-120.529
 10
-127.898
 20
215.054
 30
-120.529
 10
-124.888
 20
214.903
 30
-120.529
 10
-121.878
 20
214.76
 30
-120.529
 10
-118.868
 20
214.6
 30
-120.529
 10
-115.779
 20
214.435
 30
-120.529
 10
-112.69
 20
214.262
 30
-120.529
 10
-109.601
 20
214.08
 30
-120.529
 10
-97.6353
 20
213.375
 30
-120.529
 10
-85.6728
 20
212.617
 30
-120.529
 10
-73.7047
 20
211.955
 30
-120.529
 10
-60.6009
 20
211.222
 30
-120.529
 10
-47.4913
 20
210.599
 30
-120.529
 10
-34.3806
 20
210.004
 30
-120.529
  0
LINE
  5
A34
330
A02
100
AcDbEntity
  8
Shape2DView003
100
AcDbLine
 10
-157.614
 20
210.404
 30
-120.529
 11
-174.231
 21
210.404
 31
-120.529
  0
LINE
  5
A35
330
A02
100
AcDbEntity
  8
Shape2DView003
100
AcDbLine
 10
-157.614
 20
210.404
 30
-120.529
 11
-157.614
 21
205.904
 31
-120.529
  0
LINE
  5
A36
330
A02
100
AcDbEntity
  8
Shape2DView003
100
AcDbLine
 10
-157.614
 20
205.904
 30
-120.529
 11
-174.231
 21
205.904
 31
-120.529
  0
LINE
  5
A37
330
A02
100
AcDbEntity
  8
Shape2DView003
100
AcDbLine
 10
-174.231
 20
210.404
 30
-120.529
 11
-174.231
 21
205.904
 31
-120.529
  0
LINE
  5
A38
330
A02
100
AcDbEntity
  8
Shape2DView003
100
AcDbLine
 10
-109.681
 20
205.504
 30
-120.529
 11
-119.681
 21
205.504
 31
-120.529
  0
LINE
  5
A39
330
A02
100
AcDbEntity
  8
Shape2DView003
100
AcDbLine
 10
-109.681
 20
205.504
 30
-120.529
 11
-109.681
 21
201.004
 31
-120.529
  0
LINE
  5
A3A
330
A02
100
AcDbEntity
  8
Shape2DView003
100
AcDbLine
 10
-119.681
 20
205.504
 30
-120.529
 11
-119.681
 21
201.004
 31
-120.529
  0
LINE
  5
A3B
330
A02
100
AcDbEntity
  8
Shape2DView003
100
AcDbLine
 10
-109.681
 20
201.004
 30
-120.529
 11
-119.681
 21
201.004
 31
-120.529
  0
LINE
  5
A3C
330
A02
100
AcDbEntity
  8
Shape2DView003
100
AcDbLine
 10
-84.3806
 20
205.504
 30
-120.529
 11
-94.3806
 21
205.504
 31
-120.529
  0
LINE
  5
A3D
330
A02
100
AcDbEntity
  8
Shape2DView003
100
AcDbLine
 10
-84.3806
 20
205.504
 30
-120.529
 11
-84.3806
 21
201.004
 31
-120.529
  0
LINE
  5
A3E
330
A02
100
AcDbEntity
  8
Shape2DView003
100
AcDbLine
 10
-94.3806
 20
205.504
 30
-120.529
 11
-94.3806
 21
201.004
 31
-120.529
  0
LINE
  5
A3F
330
A02
100
AcDbEntity
  8
Shape2DView003
100
AcDbLine
 10
-84.3806
 20
201.004
 30
-120.529
 11
-94.3806
 21
201.004
 31
-120.529
  0
SPLINE
  5
A40
330
A02
100
AcDbEntity
  8
Shape2DView004
100
AcDbSpline
210
0
220
0
230
1
 70
8
 71
3
 72
44
 73
40
 74
0
 40
0
 40
0
 40
0
 40
0
 40
0.264875
 40
0.264875
 40
0.264875
 40
0.510352
 40
0.510352
 40
0.510352
 40
0.574131
 40
0.574131
 40
0.574131
 40
0.637366
 40
0.637366
 40
0.637366
 40
0.786498
 40
0.786498
 40
0.786498
 40
0.839458
 40
0.839458
 40
0.839458
 40
0.909275
 40
0.909275
 40
0.909275
 40
0.948508
 40
0.948508
 40
0.948508
 40
0.981396
 40
0.981396
 40
0.981396
 40
0.995404
 40
0.995404
 40
0.995404
 40
1.01866
 40
1.01866
 40
1.01866
 40
1.03632
 40
1.03632
 40
1.03632
 40
1.05065
 40
1.05065
 40
1.05065
 40
1.05065
 10
-42.6999
 20
237.217
 30
-129.8
 10
-53.2091
 20
233.845
 30
-129.8
 10
-63.9053
 20
231.063
 30
-129.8
 10
-74.7106
 20
228.819
 30
-129.8
 10
-84.7257
 20
226.745
 30
-129.8
 10
-94.8395
 20
225.129
 30
-129.8
 10
-105.016
 20
224.098
 30
-129.8
 10
-107.661
 20
223.83
 30
-129.8
 10
-110.309
 20
223.606
 30
-129.8
 10
-112.96
 20
223.425
 30
-129.8
 10
-115.589
 20
223.247
 30
-129.8
 10
-118.221
 20
223.109
 30
-129.8
 10
-120.855
 20
223.045
 30
-129.8
 10
-127.066
 20
222.9
 30
-129.8
 10
-133.293
 20
223.149
 30
-129.8
 10
-139.458
 20
223.933
 30
-129.8
 10
-141.649
 20
224.21
 30
-129.8
 10
-143.827
 20
224.562
 30
-129.8
 10
-145.993
 20
224.989
 30
-129.8
 10
-148.846
 20
225.555
 30
-129.8
 10
-151.674
 20
226.26
 30
-129.8
 10
-154.441
 20
227.159
 30
-129.8
 10
-155.995
 20
227.665
 30
-129.8
 10
-157.531
 20
228.233
 30
-129.8
 10
-159.029
 20
228.886
 30
-129.8
 10
-160.285
 20
229.435
 30
-129.8
 10
-161.516
 20
230.043
 30
-129.8
 10
-162.695
 20
230.742
 30
-129.8
 10
-163.198
 20
231.04
 30
-129.8
 10
-163.688
 20
231.357
 30
-129.8
 10
-164.165
 20
231.693
 30
-129.8
 10
-164.955
 20
232.254
 30
-129.8
 10
-165.709
 20
232.873
 30
-129.8
 10
-166.358
 20
233.596
 30
-129.8
 10
-166.847
 20
234.144
 30
-129.8
 10
-167.28
 20
234.757
 30
-129.8
 10
-167.537
 20
235.45
 30
-129.8
 10
-167.744
 20
236.013
 30
-129.8
 10
-167.825
 20
236.623
 30
-129.8
 10
-167.7
 20
237.217
 30
-129.8
  0
SPLINE
  5
A41
330
A02
100
AcDbEntity
  8
Shape2DView004
100
AcDbSpline
210
0
220
0
230
1
 70
8
 71
3
 72
41
 73
37
 74
0
 40
0
 40
0
 40
0
 40
0
 40
0.0143182
 40
0.0143182
 40
0.0143182
 40
0.0318137
 40
0.0318137
 40
0.0318137
 40
0.0545466
 40
0.0545466
 40
0.0545466
 40
0.0831342
 40
0.0831342
 40
0.0831342
 40
0.117541
 40
0.117541
 40
0.117541
 40
0.1793
 40
0.1793
 40
0.1793
 40
0.251688
 40
0.251688
 40
0.251688
 40
0.390159
 40
0.390159
 40
0.390159
 40
0.450434
 40
0.450434
 40
0.450434
 40
0.512314
 40
0.512314
 40
0.512314
 40
0.752041
 40
0.752041
 40
0.752041
 40
1.01453
 40
1.01453
 40
1.01453
 40
1.01453
 10
-167.7
 20
237.217
 30
-129.8
 10
-167.587
 20
237.812
 30
-129.8
 10
-167.279
 20
238.343
 30
-129.8
 10
-166.877
 20
238.787
 30
-129.8
 10
-166.382
 20
239.328
 30
-129.8
 10
-165.761
 20
239.734
 30
-129.8
 10
-165.115
 20
240.067
 30
-129.8
 10
-164.27
 20
240.499
 30
-129.8
 10
-163.368
 20
240.808
 30
-129.8
 10
-162.456
 20
241.061
 30
-129.8
 10
-161.307
 20
241.378
 30
-129.8
 10
-160.135
 20
241.601
 30
-129.8
 10
-158.957
 20
241.777
 30
-129.8
 10
-157.538
 20
241.987
 30
-129.8
 10
-156.11
 20
242.127
 30
-129.8
 10
-154.68
 20
242.227
 30
-129.8
 10
-152.113
 20
242.406
 30
-129.8
 10
-149.539
 20
242.46
 30
-129.8
 10
-146.965
 20
242.459
 30
-129.8
 10
-143.949
 20
242.457
 30
-129.8
 10
-140.934
 20
242.375
 30
-129.8
 10
-137.92
 20
242.263
 30
-129.8
 10
-132.154
 20
242.044
 30
-129.8
 10
-126.393
 20
241.715
 30
-129.8
 10
-120.631
 20
241.425
 30
-129.8
 10
-118.123
 20
241.299
 30
-129.8
 10
-115.614
 20
241.18
 30
-129.8
 10
-113.106
 20
241.047
 30
-129.8
 10
-110.532
 20
240.909
 30
-129.8
 10
-107.957
 20
240.765
 30
-129.8
 10
-105.383
 20
240.613
 30
-129.8
 10
-95.412
 20
240.026
 30
-129.8
 10
-85.4433
 20
239.394
 30
-129.8
 10
-75.4699
 20
238.842
 30
-129.8
 10
-64.5501
 20
238.231
 30
-129.8
 10
-53.6254
 20
237.712
 30
-129.8
 10
-42.6999
 20
237.217
 30
-129.8
  0
LINE
  5
A42
330
A02
100
AcDbEntity
  8
Shape2DView004
100
AcDbLine
 10
-139.393
 20
235.617
 30
-129.8
 11
-156.009
 21
235.617
 31
-129.8
  0
LINE
  5
A43
330
A02
100
AcDbEntity
  8
Shape2DView004
100
AcDbLine
 10
-139.393
 20
235.617
 30
-129.8
 11
-139.393
 21
231.117
 31
-129.8
  0
LINE
  5
A44
330
A02
100
AcDbEntity
  8
Shape2DView004
100
AcDbLine
 10
-139.393
 20
231.117
 30
-129.8
 11
-156.009
 21
231.117
 31
-129.8
  0
LINE
  5
A45
330
A02
100
AcDbEntity
  8
Shape2DView004
100
AcDbLine
 10
-156.009
 20
235.617
 30
-129.8
 11
-156.009
 21
231.117
 31
-129.8
  0
LINE
  5
A46
330
A02
100
AcDbEntity
  8
Shape2DView004
100
AcDbLine
 10
-118
 20
230.717
 30
-129.8
 11
-128
 21
230.717
 31
-129.8
  0
LINE
  5
A47
330
A02
100
AcDbEntity
  8
Shape2DView004
100
AcDbLine
 10
-118
 20
230.717
 30
-129.8
 11
-118
 21
226.217
 31
-129.8
  0
LINE
  5
A48
330
A02
100
AcDbEntity
  8
Shape2DView004
100
AcDbLine
 10
-128
 20
230.717
 30
-129.8
 11
-128
 21
226.217
 31
-129.8
  0
LINE
  5
A49
330
A02
100
AcDbEntity
  8
Shape2DView004
100
AcDbLine
 10
-118
 20
226.217
 30
-129.8
 11
-128
 21
226.217
 31
-129.8
  0
LINE
  5
A4A
330
A02
100
AcDbEntity
  8
Shape2DView004
100
AcDbLine
 10
-92.6999
 20
230.717
 30
-129.8
 11
-102.7
 21
230.717
 31
-129.8
  0
LINE
  5
A4B
330
A02
100
AcDbEntity
  8
Shape2DView004
100
AcDbLine
 10
-92.6999
 20
230.717
 30
-129.8
 11
-92.6999
 21
226.217
 31
-129.8
  0
LINE
  5
A4C
330
A02
100
AcDbEntity
  8
Shape2DView004
100
AcDbLine
 10
-102.7
 20
230.717
 30
-129.8
 11
-102.7
 21
226.217
 31
-129.8
  0
LINE
  5
A4D
330
A02
100
AcDbEntity
  8
Shape2DView004
100
AcDbLine
 10
-92.6999
 20
226.217
 30
-129.8
 11
-102.7
 21
226.217
 31
-129.8
  0
LINE
  5
A4E
330
A02
100
AcDbEntity
  8
Shape2DView005
100
AcDbLine
 10
-154.278
 20
35.0459
 30
-69.3087
 11
-154.278
 21
30.9832
 31
-69.3087
  0
LINE
  5
A4F
330
A02
100
AcDbEntity
  8
Shape2DView005
100
AcDbLine
 10
-154.278
 20
35.0459
 30
-69.3087
 11
-154.278
 21
38.2716
 31
-69.3087
  0
LINE
  5
A50
330
A02
100
AcDbEntity
  8
Shape2DView005
100
AcDbLine
 10
-154.278
 20
30.9832
 30
-69.3087
 11
-153.076
 21
30.5459
 31
-69.3087
  0
LINE
  5
A51
330
A02
100
AcDbEntity
  8
Shape2DView005
100
AcDbLine
 10
-148.848
 20
30.5459
 30
-69.3087
 11
-148.848
 21
35.0459
 31
-69.3087
  0
LINE
  5
A52
330
A02
100
AcDbEntity
  8
Shape2DView005
100
AcDbLine
 10
-154.278
 20
35.0459
 30
-69.3087
 11
-138.204
 21
35.0459
 31
-69.3087
  0
LINE
  5
A53
330
A02
100
AcDbEntity
  8
Shape2DView005
100
AcDbLine
 10
-154.278
 20
38.2716
 30
-69.3087
 11
-38.0377
 21
80.5795
 31
-69.3087
  0
LINE
  5
A54
330
A02
100
AcDbEntity
  8
Shape2DView005
100
AcDbLine
 10
-38.0377
 20
80.5795
 30
-69.3087
 11
-38.0377
 21
-11.3246
 31
-69.3087
  0
LINE
  5
A55
330
A02
100
AcDbEntity
  8
Shape2DView005
100
AcDbLine
 10
-38.0377
 20
-11.3246
 30
-69.3087
 11
-153.076
 21
30.5459
 31
-69.3087
  0
LINE
  5
A56
330
A02
100
AcDbEntity
  8
Shape2DView005
100
AcDbLine
 10
-153.076
 20
30.5459
 30
-69.3087
 11
-138.204
 21
30.5459
 31
-69.3087
  0
LINE
  5
A57
330
A02
100
AcDbEntity
  8
Shape2DView005
100
AcDbLine
 10
-138.204
 20
30.5459
 30
-69.3087
 11
-138.204
 21
35.0459
 31
-69.3087
  0
LINE
  5
A58
330
A02
100
AcDbEntity
  8
Shape2DView005
100
AcDbLine
 10
-126.811
 20
25.6459
 30
-69.3087
 11
-116.811
 21
25.6459
 31
-69.3087
  0
LINE
  5
A59
330
A02
100
AcDbEntity
  8
Shape2DView005
100
AcDbLine
 10
-126.811
 20
25.6459
 30
-69.3087
 11
-126.811
 21
30.1459
 31
-69.3087
  0
LINE
  5
A5A
330
A02
100
AcDbEntity
  8
Shape2DView005
100
AcDbLine
 10
-116.811
 20
25.6459
 30
-69.3087
 11
-116.811
 21
30.1459
 31
-69.3087
  0
LINE
  5
A5B
330
A02
100
AcDbEntity
  8
Shape2DView005
100
AcDbLine
 10
-126.811
 20
30.1459
 30
-69.3087
 11
-116.811
 21
30.1459
 31
-69.3087
  0
LINE
  5
A5C
330
A02
100
AcDbEntity
  8
Shape2DView005
100
AcDbLine
 10
-101.511
 20
25.6459
 30
-69.3087
 11
-91.5108
 21
25.6459
 31
-69.3087
  0
LINE
  5
A5D
330
A02
100
AcDbEntity
  8
Shape2DView005
100
AcDbLine
 10
-101.511
 20
25.6459
 30
-69.3087
 11
-101.511
 21
30.1459
 31
-69.3087
  0
LINE
  5
A5E
330
A02
100
AcDbEntity
  8
Shape2DView005
100
AcDbLine
 10
-91.5108
 20
25.6459
 30
-69.3087
 11
-91.5108
 21
30.1459
 31
-69.3087
  0
LINE
  5
A5F
330
A02
100
AcDbEntity
  8
Shape2DView005
100
AcDbLine
 10
-101.511
 20
30.1459
 30
-69.3087
 11
-91.5108
 21
30.1459
 31
-69.3087
  0
SPLINE
  5
A60
330
A02
100
AcDbEntity
  8
Shape2DView006
100
AcDbSpline
210
0
220
0
230
1
 70
8
 71
3
 72
56
 73
52
 74
0
 40
0
 40
0
 40
0
 40
0
 40
0.138675
 40
0.138675
 40
0.138675
 40
0.264875
 40
0.264875
 40
0.264875
 40
0.383696
 40
0.383696
 40
0.383696
 40
0.510352
 40
0.510352
 40
0.510352
 40
0.574131
 40
0.574131
 40
0.574131
 40
0.637366
 40
0.637366
 40
0.637366
 40
0.699342
 40
0.699342
 40
0.699342
 40
0.786498
 40
0.786498
 40
0.786498
 40
0.839458
 40
0.839458
 40
0.839458
 40
0.909275
 40
0.909275
 40
0.909275
 40
0.948508
 40
0.948508
 40
0.948508
 40
0.981396
 40
0.981396
 40
0.981396
 40
0.995404
 40
0.995404
 40
0.995404
 40
1.01866
 40
1.01866
 40
1.01866
 40
1.0281
 40
1.0281
 40
1.0281
 40
1.03632
 40
1.03632
 40
1.03632
 40
1.05065
 40
1.05065
 40
1.05065
 40
1.05065
 10
-269.326
 20
111.747
 30
-69.3087
 10
-280.329
 20
108.214
 30
-69.3087
 10
-291.438
 20
105.011
 30
-69.3087
 10
-302.624
 20
102.112
 30
-69.3087
 10
-312.807
 20
99.4742
 30
-69.3087
 10
-323.048
 20
97.0873
 30
-69.3087
 10
-333.348
 20
94.9511
 30
-69.3087
 10
-343.045
 20
92.9374
 30
-69.3087
 10
-352.784
 20
91.1542
 30
-69.3087
 10
-362.565
 20
89.6014
 30
-69.3087
 10
-372.989
 20
87.9503
 30
-69.3087
 10
-383.458
 20
86.57
 30
-69.3087
 10
-393.959
 20
85.5097
 30
-69.3087
 10
-399.248
 20
84.9746
 30
-69.3087
 10
-404.544
 20
84.5262
 30
-69.3087
 10
-409.847
 20
84.1646
 30
-69.3087
 10
-415.104
 20
83.808
 30
-69.3087
 10
-420.368
 20
83.5327
 30
-69.3087
 10
-425.636
 20
83.4047
 30
-69.3087
 10
-430.801
 20
83.2797
 30
-69.3087
 10
-435.965
 20
83.302
 30
-69.3087
 10
-441.128
 20
83.4717
 30
-69.3087
 10
-448.387
 20
83.7144
 30
-69.3087
 10
-455.638
 20
84.2614
 30
-69.3087
 10
-462.843
 20
85.1791
 30
-69.3087
 10
-467.221
 20
85.7374
 30
-69.3087
 10
-471.583
 20
86.433
 30
-69.3087
 10
-475.912
 20
87.2911
 30
-69.3087
 10
-481.618
 20
88.4243
 30
-69.3087
 10
-487.274
 20
89.8331
 30
-69.3087
 10
-492.809
 20
91.6311
 30
-69.3087
 10
-495.917
 20
92.6432
 30
-69.3087
 10
-498.988
 20
93.7789
 30
-69.3087
 10
-501.985
 20
95.0862
 30
-69.3087
 10
-504.496
 20
96.1834
 30
-69.3087
 10
-506.959
 20
97.3991
 30
-69.3087
 10
-509.317
 20
98.7984
 30
-69.3087
 10
-510.323
 20
99.3931
 30
-69.3087
 10
-511.303
 20
100.027
 30
-69.3087
 10
-512.257
 20
100.7
 30
-69.3087
 10
-513.837
 20
101.822
 30
-69.3087
 10
-515.345
 20
103.061
 30
-69.3087
 10
-516.643
 20
104.505
 30
-69.3087
 10
-517.167
 20
105.092
 30
-69.3087
 10
-517.654
 20
105.714
 30
-69.3087
 10
-518.076
 20
106.378
 30
-69.3087
 10
-518.445
 20
106.957
 30
-69.3087
 10
-518.764
 20
107.569
 30
-69.3087
 10
-519.001
 20
108.214
 30
-69.3087
 10
-519.414
 20
109.34
 30
-69.3087
 10
-519.577
 20
110.56
 30
-69.3087
 10
-519.326
 20
111.747
 30
-69.3087
  0
SPLINE
  5
A61
330
A02
100
AcDbEntity
  8
Shape2DView006
100
AcDbSpline
210
0
220
0
230
1
 70
8
 71
3
 72
53
 73
49
 74
0
 40
0
 40
0
 40
0
 40
0
 40
0.0143182
 40
0.0143182
 40
0.0143182
 40
0.0224938
 40
0.0224938
 40
0.0224938
 40
0.0318137
 40
0.0318137
 40
0.0318137
 40
0.0545466
 40
0.0545466
 40
0.0545466
 40
0.0831342
 40
0.0831342
 40
0.0831342
 40
0.117541
 40
0.117541
 40
0.117541
 40
0.1793
 40
0.1793
 40
0.1793
 40
0.251688
 40
0.251688
 40
0.251688
 40
0.332617
 40
0.332617
 40
0.332617
 40
0.390159
 40
0.390159
 40
0.390159
 40
0.450434
 40
0.450434
 40
0.450434
 40
0.512314
 40
0.512314
 40
0.512314
 40
0.635649
 40
0.635649
 40
0.635649
 40
0.752041
 40
0.752041
 40
0.752041
 40
0.876533
 40
0.876533
 40
0.876533
 40
1.01453
 40
1.01453
 40
1.01453
 40
1.01453
 10
-519.326
 20
111.747
 30
-69.3087
 10
-519.1
 20
112.937
 30
-69.3087
 10
-518.485
 20
114
 30
-69.3087
 10
-517.68
 20
114.887
 30
-69.3087
 10
-517.22
 20
115.393
 30
-69.3087
 10
-516.7
 20
115.84
 30
-69.3087
 10
-516.148
 20
116.24
 30
-69.3087
 10
-515.518
 20
116.697
 30
-69.3087
 10
-514.847
 20
117.094
 30
-69.3087
 10
-514.156
 20
117.449
 30
-69.3087
 10
-512.466
 20
118.311
 30
-69.3087
 10
-510.663
 20
118.93
 30
-69.3087
 10
-508.839
 20
119.437
 30
-69.3087
 10
-506.541
 20
120.069
 30
-69.3087
 10
-504.196
 20
120.515
 30
-69.3087
 10
-501.84
 20
120.867
 30
-69.3087
 10
-499.003
 20
121.288
 30
-69.3087
 10
-496.147
 20
121.567
 30
-69.3087
 10
-493.287
 20
121.769
 30
-69.3087
 10
-488.152
 20
122.126
 30
-69.3087
 10
-483.004
 20
122.233
 30
-69.3087
 10
-477.857
 20
122.232
 30
-69.3087
 10
-471.825
 20
122.227
 30
-69.3087
 10
-465.794
 20
122.064
 30
-69.3087
 10
-459.766
 20
121.839
 30
-69.3087
 10
-453.026
 20
121.586
 30
-69.3087
 10
-446.29
 20
121.251
 30
-69.3087
 10
-439.555
 20
120.906
 30
-69.3087
 10
-434.766
 20
120.66
 30
-69.3087
 10
-429.978
 20
120.405
 30
-69.3087
 10
-425.189
 20
120.164
 30
-69.3087
 10
-420.172
 20
119.912
 30
-69.3087
 10
-415.155
 20
119.673
 30
-69.3087
 10
-410.139
 20
119.407
 30
-69.3087
 10
-404.99
 20
119.132
 30
-69.3087
 10
-399.841
 20
118.843
 30
-69.3087
 10
-394.693
 20
118.54
 30
-69.3087
 10
-384.433
 20
117.939
 30
-69.3087
 10
-374.175
 20
117.305
 30
-69.3087
 10
-363.915
 20
116.689
 30
-69.3087
 10
-354.234
 20
116.103
 30
-69.3087
 10
-344.551
 20
115.54
 30
-69.3087
 10
-334.866
 20
114.998
 30
-69.3087
 10
-324.508
 20
114.422
 30
-69.3087
 10
-314.148
 20
113.879
 30
-69.3087
 10
-303.786
 20
113.368
 30
-69.3087
 10
-292.301
 20
112.801
 30
-69.3087
 10
-280.814
 20
112.271
 30
-69.3087
 10
-269.326
 20
111.747
 30
-69.3087
  0
LINE
  5
A62
330
A02
100
AcDbEntity
  8
Shape2DView006
100
AcDbLine
 10
-468.465
 20
114.147
 30
-69.3087
 11
-468.465
 21
109.647
 31
-69.3087
  0
LINE
  5
A63
330
A02
100
AcDbEntity
  8
Shape2DView006
100
AcDbLine
 10
-468.465
 20
109.647
 30
-69.3087
 11
-485.014
 21
109.647
 31
-69.3087
  0
LINE
  5
A64
330
A02
100
AcDbEntity
  8
Shape2DView006
100
AcDbLine
 10
-485.014
 20
114.147
 30
-69.3087
 11
-485.014
 21
109.647
 31
-69.3087
  0
LINE
  5
A65
330
A02
100
AcDbEntity
  8
Shape2DView006
100
AcDbLine
 10
-468.465
 20
114.147
 30
-69.3087
 11
-485.014
 21
114.147
 31
-69.3087
  0
LINE
  5
A66
330
A02
100
AcDbEntity
  8
Shape2DView006
100
AcDbLine
 10
-344.626
 20
109.247
 30
-69.3087
 11
-354.626
 21
109.247
 31
-69.3087
  0
LINE
  5
A67
330
A02
100
AcDbEntity
  8
Shape2DView006
100
AcDbLine
 10
-344.626
 20
109.247
 30
-69.3087
 11
-344.626
 21
104.747
 31
-69.3087
  0
LINE
  5
A68
330
A02
100
AcDbEntity
  8
Shape2DView006
100
AcDbLine
 10
-354.626
 20
109.247
 30
-69.3087
 11
-354.626
 21
104.747
 31
-69.3087
  0
LINE
  5
A69
330
A02
100
AcDbEntity
  8
Shape2DView006
100
AcDbLine
 10
-344.626
 20
104.747
 30
-69.3087
 11
-354.626
 21
104.747
 31
-69.3087
  0
LINE
  5
A6A
330
A02
100
AcDbEntity
  8
Shape2DView006
100
AcDbLine
 10
-319.326
 20
109.247
 30
-69.3087
 11
-329.326
 21
109.247
 31
-69.3087
  0
LINE
  5
A6B
330
A02
100
AcDbEntity
  8
Shape2DView006
100
AcDbLine
 10
-319.326
 20
109.247
 30
-69.3087
 11
-319.326
 21
104.747
 31
-69.3087
  0
LINE
  5
A6C
330
A02
100
AcDbEntity
  8
Shape2DView006
100
AcDbLine
 10
-329.326
 20
109.247
 30
-69.3087
 11
-329.326
 21
104.747
 31
-69.3087
  0
LINE
  5
A6D
330
A02
100
AcDbEntity
  8
Shape2DView006
100
AcDbLine
 10
-319.326
 20
104.747
 30
-69.3087
 11
-329.326
 21
104.747
 31
-69.3087
  0
SPLINE
  5
A6E
330
A02
100
AcDbEntity
  8
Shape2DView007
100
AcDbSpline
210
0
220
0
230
1
 70
8
 71
3
 72
50
 73
46
 74
0
 40
0
 40
0
 40
0
 40
0
 40
0.264875
 40
0.264875
 40
0.264875
 40
0.510352
 40
0.510352
 40
0.510352
 40
0.574131
 40
0.574131
 40
0.574131
 40
0.637366
 40
0.637366
 40
0.637366
 40
0.699342
 40
0.699342
 40
0.699342
 40
0.786498
 40
0.786498
 40
0.786498
 40
0.839458
 40
0.839458
 40
0.839458
 40
0.909275
 40
0.909275
 40
0.909275
 40
0.948508
 40
0.948508
 40
0.948508
 40
0.981396
 40
0.981396
 40
0.981396
 40
0.995404
 40
0.995404
 40
0.995404
 40
1.01866
 40
1.01866
 40
1.01866
 40
1.0281
 40
1.0281
 40
1.0281
 40
1.03632
 40
1.03632
 40
1.03632
 40
1.05065
 40
1.05065
 40
1.05065
 40
1.05065
 10
-237.063
 20
151.321
 30
-69.3087
 10
-253.878
 20
145.927
 30
-69.3087
 10
-270.992
 20
141.476
 30
-69.3087
 10
-288.281
 20
137.884
 30
-69.3087
 10
-304.305
 20
134.566
 30
-69.3087
 10
-320.487
 20
131.98
 30
-69.3087
 10
-336.77
 20
130.331
 30
-69.3087
 10
-341.001
 20
129.903
 30
-69.3087
 10
-345.237
 20
129.544
 30
-69.3087
 10
-349.48
 20
129.255
 30
-69.3087
 10
-353.686
 20
128.97
 30
-69.3087
 10
-357.897
 20
128.749
 30
-69.3087
 10
-362.111
 20
128.647
 30
-69.3087
 10
-366.243
 20
128.547
 30
-69.3087
 10
-370.374
 20
128.565
 30
-69.3087
 10
-374.505
 20
128.701
 30
-69.3087
 10
-380.312
 20
128.895
 30
-69.3087
 10
-386.113
 20
129.332
 30
-69.3087
 10
-391.877
 20
130.067
 30
-69.3087
 10
-395.38
 20
130.513
 30
-69.3087
 10
-398.868
 20
131.07
 30
-69.3087
 10
-402.332
 20
131.756
 30
-69.3087
 10
-406.897
 20
132.663
 30
-69.3087
 10
-411.422
 20
133.79
 30
-69.3087
 10
-415.849
 20
135.228
 30
-69.3087
 10
-418.336
 20
136.038
 30
-69.3087
 10
-420.793
 20
136.946
 30
-69.3087
 10
-423.19
 20
137.992
 30
-69.3087
 10
-425.199
 20
138.87
 30
-69.3087
 10
-427.17
 20
139.843
 30
-69.3087
 10
-429.056
 20
140.962
 30
-69.3087
 10
-429.86
 20
141.438
 30
-69.3087
 10
-430.645
 20
141.945
 30
-69.3087
 10
-431.408
 20
142.484
 30
-69.3087
 10
-432.672
 20
143.381
 30
-69.3087
 10
-433.879
 20
144.372
 30
-69.3087
 10
-434.916
 20
145.528
 30
-69.3087
 10
-435.336
 20
145.997
 30
-69.3087
 10
-435.726
 20
146.494
 30
-69.3087
 10
-436.064
 20
147.026
 30
-69.3087
 10
-436.358
 20
147.489
 30
-69.3087
 10
-436.614
 20
147.979
 30
-69.3087
 10
-436.803
 20
148.495
 30
-69.3087
 10
-437.134
 20
149.396
 30
-69.3087
 10
-437.264
 20
150.372
 30
-69.3087
 10
-437.063
 20
151.321
 30
-69.3087
  0
SPLINE
  5
A6F
330
A02
100
AcDbEntity
  8
Shape2DView007
100
AcDbSpline
210
0
220
0
230
1
 70
8
 71
3
 72
47
 73
43
 74
0
 40
0
 40
0
 40
0
 40
0
 40
0.0143182
 40
0.0143182
 40
0.0143182
 40
0.0224938
 40
0.0224938
 40
0.0224938
 40
0.0318137
 40
0.0318137
 40
0.0318137
 40
0.0545466
 40
0.0545466
 40
0.0545466
 40
0.0831342
 40
0.0831342
 40
0.0831342
 40
0.117541
 40
0.117541
 40
0.117541
 40
0.1793
 40
0.1793
 40
0.1793
 40
0.251688
 40
0.251688
 40
0.251688
 40
0.390159
 40
0.390159
 40
0.390159
 40
0.450434
 40
0.450434
 40
0.450434
 40
0.512314
 40
0.512314
 40
0.512314
 40
0.635649
 40
0.635649
 40
0.635649
 40
0.752041
 40
0.752041
 40
0.752041
 40
1.01453
 40
1.01453
 40
1.01453
 40
1.01453
 10
-437.063
 20
151.321
 30
-69.3087
 10
-436.882
 20
152.273
 30
-69.3087
 10
-436.39
 20
153.123
 30
-69.3087
 10
-435.746
 20
153.833
 30
-69.3087
 10
-435.379
 20
154.238
 30
-69.3087
 10
-434.962
 20
154.595
 30
-69.3087
 10
-434.521
 20
154.915
 30
-69.3087
 10
-434.017
 20
155.281
 30
-69.3087
 10
-433.48
 20
155.599
 30
-69.3087
 10
-432.927
 20
155.882
 30
-69.3087
 10
-431.575
 20
156.572
 30
-69.3087
 10
-430.133
 20
157.067
 30
-69.3087
 10
-428.674
 20
157.473
 30
-69.3087
 10
-426.835
 20
157.979
 30
-69.3087
 10
-424.959
 20
158.335
 30
-69.3087
 10
-423.075
 20
158.617
 30
-69.3087
 10
-420.805
 20
158.954
 30
-69.3087
 10
-418.52
 20
159.177
 30
-69.3087
 10
-416.232
 20
159.338
 30
-69.3087
 10
-412.124
 20
159.624
 30
-69.3087
 10
-408.005
 20
159.71
 30
-69.3087
 10
-403.888
 20
159.709
 30
-69.3087
 10
-399.062
 20
159.705
 30
-69.3087
 10
-394.237
 20
159.575
 30
-69.3087
 10
-389.415
 20
159.395
 30
-69.3087
 10
-380.19
 20
159.045
 30
-69.3087
 10
-370.973
 20
158.519
 30
-69.3087
 10
-361.753
 20
158.054
 30
-69.3087
 10
-357.74
 20
157.853
 30
-69.3087
 10
-353.726
 20
157.662
 30
-69.3087
 10
-349.714
 20
157.449
 30
-69.3087
 10
-345.594
 20
157.229
 30
-69.3087
 10
-341.475
 20
156.998
 30
-69.3087
 10
-337.357
 20
156.755
 30
-69.3087
 10
-329.149
 20
156.274
 30
-69.3087
 10
-320.942
 20
155.768
 30
-69.3087
 10
-312.735
 20
155.274
 30
-69.3087
 10
-304.989
 20
154.806
 30
-69.3087
 10
-297.243
 20
154.355
 30
-69.3087
 10
-289.495
 20
153.922
 30
-69.3087
 10
-272.024
 20
152.944
 30
-69.3087
 10
-254.544
 20
152.114
 30
-69.3087
 10
-237.063
 20
151.321
 30
-69.3087
  0
LINE
  5
A70
330
A02
100
AcDbEntity
  8
Shape2DView007
100
AcDbLine
 10
-409.661
 20
153.721
 30
-69.3087
 11
-426.278
 21
153.721
 31
-69.3087
  0
LINE
  5
A71
330
A02
100
AcDbEntity
  8
Shape2DView007
100
AcDbLine
 10
-409.661
 20
153.721
 30
-69.3087
 11
-409.661
 21
149.221
 31
-69.3087
  0
LINE
  5
A72
330
A02
100
AcDbEntity
  8
Shape2DView007
100
AcDbLine
 10
-409.661
 20
149.221
 30
-69.3087
 11
-426.278
 21
149.221
 31
-69.3087
  0
LINE
  5
A73
330
A02
100
AcDbEntity
  8
Shape2DView007
100
AcDbLine
 10
-426.278
 20
153.721
 30
-69.3087
 11
-426.278
 21
149.221
 31
-69.3087
  0
LINE
  5
A74
330
A02
100
AcDbEntity
  8
Shape2DView007
100
AcDbLine
 10
-312.363
 20
148.821
 30
-69.3087
 11
-322.363
 21
148.821
 31
-69.3087
  0
LINE
  5
A75
330
A02
100
AcDbEntity
  8
Shape2DView007
100
AcDbLine
 10
-312.363
 20
148.821
 30
-69.3087
 11
-312.363
 21
144.321
 31
-69.3087
  0
LINE
  5
A76
330
A02
100
AcDbEntity
  8
Shape2DView007
100
AcDbLine
 10
-322.363
 20
148.821
 30
-69.3087
 11
-322.363
 21
144.321
 31
-69.3087
  0
LINE
  5
A77
330
A02
100
AcDbEntity
  8
Shape2DView007
100
AcDbLine
 10
-312.363
 20
144.321
 30
-69.3087
 11
-322.363
 21
144.321
 31
-69.3087
  0
LINE
  5
A78
330
A02
100
AcDbEntity
  8
Shape2DView007
100
AcDbLine
 10
-287.063
 20
148.821
 30
-69.3087
 11
-297.063
 21
148.821
 31
-69.3087
  0
LINE
  5
A79
330
A02
100
AcDbEntity
  8
Shape2DView007
100
AcDbLine
 10
-287.063
 20
148.821
 30
-69.3087
 11
-287.063
 21
144.321
 31
-69.3087
  0
LINE
  5
A7A
330
A02
100
AcDbEntity
  8
Shape2DView007
100
AcDbLine
 10
-297.063
 20
148.821
 30
-69.3087
 11
-297.063
 21
144.321
 31
-69.3087
  0
LINE
  5
A7B
330
A02
100
AcDbEntity
  8
Shape2DView007
100
AcDbLine
 10
-287.063
 20
144.321
 30
-69.3087
 11
-297.063
 21
144.321
 31
-69.3087
  0
SPLINE
  5
A7C
330
A02
100
AcDbEntity
  8
Shape2DView008
100
AcDbSpline
210
0
220
0
230
1
 70
8
 71
3
 72
44
 73
40
 74
0
 40
0
 40
0
 40
0
 40
0
 40
0.264875
 40
0.264875
 40
0.264875
 40
0.510352
 40
0.510352
 40
0.510352
 40
0.574131
 40
0.574131
 40
0.574131
 40
0.637366
 40
0.637366
 40
0.637366
 40
0.786498
 40
0.786498
 40
0.786498
 40
0.839458
 40
0.839458
 40
0.839458
 40
0.909275
 40
0.909275
 40
0.909275
 40
0.948508
 40
0.948508
 40
0.948508
 40
0.981396
 40
0.981396
 40
0.981396
 40
0.995404
 40
0.995404
 40
0.995404
 40
1.01866
 40
1.01866
 40
1.01866
 40
1.03632
 40
1.03632
 40
1.03632
 40
1.05065
 40
1.05065
 40
1.05065
 40
1.05065
 10
-212.433
 20
181.43
 30
-69.3087
 10
-227.146
 20
176.71
 30
-69.3087
 10
-242.12
 20
172.815
 30
-69.3087
 10
-257.248
 20
169.673
 30
-69.3087
 10
-271.269
 20
166.769
 30
-69.3087
 10
-285.428
 20
164.507
 30
-69.3087
 10
-299.676
 20
163.064
 30
-69.3087
 10
-303.378
 20
162.689
 30
-69.3087
 10
-307.085
 20
162.375
 30
-69.3087
 10
-310.797
 20
162.122
 30
-69.3087
 10
-314.477
 20
161.873
 30
-69.3087
 10
-318.162
 20
161.68
 30
-69.3087
 10
-321.85
 20
161.59
 30
-69.3087
 10
-330.545
 20
161.387
 30
-69.3087
 10
-339.263
 20
161.736
 30
-69.3087
 10
-347.895
 20
162.832
 30
-69.3087
 10
-350.959
 20
163.223
 30
-69.3087
 10
-354.012
 20
163.71
 30
-69.3087
 10
-357.043
 20
164.311
 30
-69.3087
 10
-361.037
 20
165.104
 30
-69.3087
 10
-364.996
 20
166.09
 30
-69.3087
 10
-368.87
 20
167.349
 30
-69.3087
 10
-371.046
 20
168.057
 30
-69.3087
 10
-373.196
 20
168.852
 30
-69.3087
 10
-375.294
 20
169.767
 30
-69.3087
 10
-377.052
 20
170.535
 30
-69.3087
 10
-378.776
 20
171.386
 30
-69.3087
 10
-380.426
 20
172.366
 30
-69.3087
 10
-381.13
 20
172.782
 30
-69.3087
 10
-381.816
 20
173.226
 30
-69.3087
 10
-382.485
 20
173.697
 30
-69.3087
 10
-383.59
 20
174.482
 30
-69.3087
 10
-384.646
 20
175.349
 30
-69.3087
 10
-385.554
 20
176.361
 30
-69.3087
 10
-386.238
 20
177.128
 30
-69.3087
 10
-386.845
 20
177.986
 30
-69.3087
 10
-387.205
 20
178.957
 30
-69.3087
 10
-387.494
 20
179.745
 30
-69.3087
 10
-387.608
 20
180.599
 30
-69.3087
 10
-387.433
 20
181.43
 30
-69.3087
  0
SPLINE
  5
A7D
330
A02
100
AcDbEntity
  8
Shape2DView008
100
AcDbSpline
210
0
220
0
230
1
 70
8
 71
3
 72
41
 73
37
 74
0
 40
0
 40
0
 40
0
 40
0
 40
0.0143182
 40
0.0143182
 40
0.0143182
 40
0.0318137
 40
0.0318137
 40
0.0318137
 40
0.0545466
 40
0.0545466
 40
0.0545466
 40
0.0831342
 40
0.0831342
 40
0.0831342
 40
0.117541
 40
0.117541
 40
0.117541
 40
0.1793
 40
0.1793
 40
0.1793
 40
0.251688
 40
0.251688
 40
0.251688
 40
0.390159
 40
0.390159
 40
0.390159
 40
0.450434
 40
0.450434
 40
0.450434
 40
0.512314
 40
0.512314
 40
0.512314
 40
0.752041
 40
0.752041
 40
0.752041
 40
1.01453
 40
1.01453
 40
1.01453
 40
1.01453
 10
-387.433
 20
181.43
 30
-69.3087
 10
-387.274
 20
182.263
 30
-69.3087
 10
-386.844
 20
183.007
 30
-69.3087
 10
-386.28
 20
183.628
 30
-69.3087
 10
-385.588
 20
184.385
 30
-69.3087
 10
-384.719
 20
184.955
 30
-69.3087
 10
-383.813
 20
185.421
 30
-69.3087
 10
-382.63
 20
186.024
 30
-69.3087
 10
-381.369
 20
186.458
 30
-69.3087
 10
-380.092
 20
186.813
 30
-69.3087
 10
-378.483
 20
187.255
 30
-69.3087
 10
-376.841
 20
187.568
 30
-69.3087
 10
-375.192
 20
187.814
 30
-69.3087
 10
-373.207
 20
188.109
 30
-69.3087
 10
-371.207
 20
188.304
 30
-69.3087
 10
-369.205
 20
188.445
 30
-69.3087
 10
-365.611
 20
188.695
 30
-69.3087
 10
-362.007
 20
188.77
 30
-69.3087
 10
-358.405
 20
188.769
 30
-69.3087
 10
-354.182
 20
188.766
 30
-69.3087
 10
-349.96
 20
188.652
 30
-69.3087
 10
-345.74
 20
188.494
 30
-69.3087
 10
-337.668
 20
188.188
 30
-69.3087
 10
-329.604
 20
187.728
 30
-69.3087
 10
-321.536
 20
187.321
 30
-69.3087
 10
-318.025
 20
187.145
 30
-69.3087
 10
-314.513
 20
186.978
 30
-69.3087
 10
-311.002
 20
186.792
 30
-69.3087
 10
-307.397
 20
186.599
 30
-69.3087
 10
-303.793
 20
186.397
 30
-69.3087
 10
-300.19
 20
186.185
 30
-69.3087
 10
-286.23
 20
185.362
 30
-69.3087
 10
-272.274
 20
184.478
 30
-69.3087
 10
-258.311
 20
183.706
 30
-69.3087
 10
-243.023
 20
182.85
 30
-69.3087
 10
-227.728
 20
182.124
 30
-69.3087
 10
-212.433
 20
181.43
 30
-69.3087
  0
LINE
  5
A7E
330
A02
100
AcDbEntity
  8
Shape2DView008
100
AcDbLine
 10
-358.49
 20
182.83
 30
-69.3087
 11
-375.106
 21
182.83
 31
-69.3087
  0
LINE
  5
A7F
330
A02
100
AcDbEntity
  8
Shape2DView008
100
AcDbLine
 10
-358.49
 20
182.83
 30
-69.3087
 11
-358.49
 21
178.33
 31
-69.3087
  0
LINE
  5
A80
330
A02
100
AcDbEntity
  8
Shape2DView008
100
AcDbLine
 10
-358.49
 20
178.33
 30
-69.3087
 11
-375.106
 21
178.33
 31
-69.3087
  0
LINE
  5
A81
330
A02
100
AcDbEntity
  8
Shape2DView008
100
AcDbLine
 10
-375.106
 20
182.83
 30
-69.3087
 11
-375.106
 21
178.33
 31
-69.3087
  0
LINE
  5
A82
330
A02
100
AcDbEntity
  8
Shape2DView008
100
AcDbLine
 10
-287.733
 20
177.93
 30
-69.3087
 11
-297.733
 21
177.93
 31
-69.3087
  0
LINE
  5
A83
330
A02
100
AcDbEntity
  8
Shape2DView008
100
AcDbLine
 10
-287.733
 20
177.93
 30
-69.3087
 11
-287.733
 21
173.43
 31
-69.3087
  0
LINE
  5
A84
330
A02
100
AcDbEntity
  8
Shape2DView008
100
AcDbLine
 10
-297.733
 20
177.93
 30
-69.3087
 11
-297.733
 21
173.43
 31
-69.3087
  0
LINE
  5
A85
330
A02
100
AcDbEntity
  8
Shape2DView008
100
AcDbLine
 10
-287.733
 20
173.43
 30
-69.3087
 11
-297.733
 21
173.43
 31
-69.3087
  0
LINE
  5
A86
330
A02
100
AcDbEntity
  8
Shape2DView008
100
AcDbLine
 10
-262.433
 20
177.93
 30
-69.3087
 11
-272.433
 21
177.93
 31
-69.3087
  0
LINE
  5
A87
330
A02
100
AcDbEntity
  8
Shape2DView008
100
AcDbLine
 10
-262.433
 20
177.93
 30
-69.3087
 11
-262.433
 21
173.43
 31
-69.3087
  0
LINE
  5
A88
330
A02
100
AcDbEntity
  8
Shape2DView008
100
AcDbLine
 10
-272.433
 20
177.93
 30
-69.3087
 11
-272.433
 21
173.43
 31
-69.3087
  0
LINE
  5
A89
330
A02
100
AcDbEntity
  8
Shape2DView008
100
AcDbLine
 10
-262.433
 20
173.43
 30
-69.3087
 11
-272.433
 21
173.43
 31
-69.3087
  0
SPLINE
  5
A8A
330
A02
100
AcDbEntity
  8
Shape2DView009
100
AcDbSpline
210
0
220
0
230
1
 70
8
 71
3
 72
44
 73
40
 74
0
 40
0
 40
0
 40
0
 40
0
 40
0.264875
 40
0.264875
 40
0.264875
 40
0.510352
 40
0.510352
 40
0.510352
 40
0.574131
 40
0.574131
 40
0.574131
 40
0.637366
 40
0.637366
 40
0.637366
 40
0.786498
 40
0.786498
 40
0.786498
 40
0.839458
 40
0.839458
 40
0.839458
 40
0.909275
 40
0.909275
 40
0.909275
 40
0.948508
 40
0.948508
 40
0.948508
 40
0.981396
 40
0.981396
 40
0.981396
 40
0.995404
 40
0.995404
 40
0.995404
 40
1.01866
 40
1.01866
 40
1.01866
 40
1.03632
 40
1.03632
 40
1.03632
 40
1.05065
 40
1.05065
 40
1.05065
 40
1.05065
 10
-188.548
 20
214.017
 30
-69.3087
 10
-201.16
 20
209.971
 30
-69.3087
 10
-213.995
 20
206.633
 30
-69.3087
 10
-226.961
 20
203.94
 30
-69.3087
 10
-238.979
 20
201.451
 30
-69.3087
 10
-251.116
 20
199.512
 30
-69.3087
 10
-263.328
 20
198.275
 30
-69.3087
 10
-266.501
 20
197.954
 30
-69.3087
 10
-269.679
 20
197.685
 30
-69.3087
 10
-272.861
 20
197.468
 30
-69.3087
 10
-276.015
 20
197.254
 30
-69.3087
 10
-279.173
 20
197.088
 30
-69.3087
 10
-282.334
 20
197.012
 30
-69.3087
 10
-289.788
 20
196.837
 30
-69.3087
 10
-297.26
 20
197.136
 30
-69.3087
 10
-304.659
 20
198.076
 30
-69.3087
 10
-307.287
 20
198.409
 30
-69.3087
 10
-309.901
 20
198.831
 30
-69.3087
 10
-312.5
 20
199.344
 30
-69.3087
 10
-315.924
 20
200.023
 30
-69.3087
 10
-319.317
 20
200.869
 30
-69.3087
 10
-322.638
 20
201.948
 30
-69.3087
 10
-324.503
 20
202.555
 30
-69.3087
 10
-326.345
 20
203.236
 30
-69.3087
 10
-328.144
 20
204.021
 30
-69.3087
 10
-329.65
 20
204.679
 30
-69.3087
 10
-331.128
 20
205.408
 30
-69.3087
 10
-332.543
 20
206.248
 30
-69.3087
 10
-333.146
 20
206.605
 30
-69.3087
 10
-333.734
 20
206.985
 30
-69.3087
 10
-334.307
 20
207.389
 30
-69.3087
 10
-335.255
 20
208.062
 30
-69.3087
 10
-336.16
 20
208.805
 30
-69.3087
 10
-336.938
 20
209.672
 30
-69.3087
 10
-337.524
 20
210.33
 30
-69.3087
 10
-338.045
 20
211.065
 30
-69.3087
 10
-338.353
 20
211.897
 30
-69.3087
 10
-338.601
 20
212.573
 30
-69.3087
 10
-338.699
 20
213.305
 30
-69.3087
 10
-338.548
 20
214.017
 30
-69.3087
  0
SPLINE
  5
A8B
330
A02
100
AcDbEntity
  8
Shape2DView009
100
AcDbSpline
210
0
220
0
230
1
 70
8
 71
3
 72
41
 73
37
 74
0
 40
0
 40
0
 40
0
 40
0
 40
0.0143182
 40
0.0143182
 40
0.0143182
 40
0.0318137
 40
0.0318137
 40
0.0318137
 40
0.0545466
 40
0.0545466
 40
0.0545466
 40
0.0831342
 40
0.0831342
 40
0.0831342
 40
0.117541
 40
0.117541
 40
0.117541
 40
0.1793
 40
0.1793
 40
0.1793
 40
0.251688
 40
0.251688
 40
0.251688
 40
0.390159
 40
0.390159
 40
0.390159
 40
0.450434
 40
0.450434
 40
0.450434
 40
0.512314
 40
0.512314
 40
0.512314
 40
0.752041
 40
0.752041
 40
0.752041
 40
1.01453
 40
1.01453
 40
1.01453
 40
1.01453
 10
-338.548
 20
214.017
 30
-69.3087
 10
-338.413
 20
214.731
 30
-69.3087
 10
-338.044
 20
215.369
 30
-69.3087
 10
-337.561
 20
215.901
 30
-69.3087
 10
-336.967
 20
216.55
 30
-69.3087
 10
-336.222
 20
217.038
 30
-69.3087
 10
-335.446
 20
217.438
 30
-69.3087
 10
-334.432
 20
217.955
 30
-69.3087
 10
-333.351
 20
218.327
 30
-69.3087
 10
-332.256
 20
218.631
 30
-69.3087
 10
-330.877
 20
219.01
 30
-69.3087
 10
-329.47
 20
219.278
 30
-69.3087
 10
-328.057
 20
219.489
 30
-69.3087
 10
-326.355
 20
219.742
 30
-69.3087
 10
-324.641
 20
219.909
 30
-69.3087
 10
-322.925
 20
220.03
 30
-69.3087
 10
-319.844
 20
220.244
 30
-69.3087
 10
-316.755
 20
220.309
 30
-69.3087
 10
-313.667
 20
220.308
 30
-69.3087
 10
-310.048
 20
220.305
 30
-69.3087
 10
-306.429
 20
220.207
 30
-69.3087
 10
-302.812
 20
220.072
 30
-69.3087
 10
-295.893
 20
219.81
 30
-69.3087
 10
-288.981
 20
219.416
 30
-69.3087
 10
-282.066
 20
219.067
 30
-69.3087
 10
-279.056
 20
218.916
 30
-69.3087
 10
-276.046
 20
218.773
 30
-69.3087
 10
-273.036
 20
218.613
 30
-69.3087
 10
-269.947
 20
218.448
 30
-69.3087
 10
-266.857
 20
218.275
 30
-69.3087
 10
-263.769
 20
218.093
 30
-69.3087
 10
-251.803
 20
217.388
 30
-69.3087
 10
-239.841
 20
216.629
 30
-69.3087
 10
-227.873
 20
215.968
 30
-69.3087
 10
-214.769
 20
215.234
 30
-69.3087
 10
-201.659
 20
214.612
 30
-69.3087
 10
-188.548
 20
214.017
 30
-69.3087
  0
LINE
  5
A8C
330
A02
100
AcDbEntity
  8
Shape2DView009
100
AcDbLine
 10
-308.065
 20
216.417
 30
-69.3087
 11
-324.681
 21
216.417
 31
-69.3087
  0
LINE
  5
A8D
330
A02
100
AcDbEntity
  8
Shape2DView009
100
AcDbLine
 10
-308.065
 20
216.417
 30
-69.3087
 11
-308.065
 21
211.917
 31
-69.3087
  0
LINE
  5
A8E
330
A02
100
AcDbEntity
  8
Shape2DView009
100
AcDbLine
 10
-308.065
 20
211.917
 30
-69.3087
 11
-324.681
 21
211.917
 31
-69.3087
  0
LINE
  5
A8F
330
A02
100
AcDbEntity
  8
Shape2DView009
100
AcDbLine
 10
-324.681
 20
216.417
 30
-69.3087
 11
-324.681
 21
211.917
 31
-69.3087
  0
LINE
  5
A90
330
A02
100
AcDbEntity
  8
Shape2DView009
100
AcDbLine
 10
-263.848
 20
211.517
 30
-69.3087
 11
-273.848
 21
211.517
 31
-69.3087
  0
LINE
  5
A91
330
A02
100
AcDbEntity
  8
Shape2DView009
100
AcDbLine
 10
-263.848
 20
211.517
 30
-69.3087
 11
-263.848
 21
207.017
 31
-69.3087
  0
LINE
  5
A92
330
A02
100
AcDbEntity
  8
Shape2DView009
100
AcDbLine
 10
-273.848
 20
211.517
 30
-69.3087
 11
-273.848
 21
207.017
 31
-69.3087
  0
LINE
  5
A93
330
A02
100
AcDbEntity
  8
Shape2DView009
100
AcDbLine
 10
-263.848
 20
207.017
 30
-69.3087
 11
-273.848
 21
207.017
 31
-69.3087
  0
LINE
  5
A94
330
A02
100
AcDbEntity
  8
Shape2DView009
100
AcDbLine
 10
-238.548
 20
211.517
 30
-69.3087
 11
-248.548
 21
211.517
 31
-69.3087
  0
LINE
  5
A95
330
A02
100
AcDbEntity
  8
Shape2DView009
100
AcDbLine
 10
-238.548
 20
211.517
 30
-69.3087
 11
-238.548
 21
207.017
 31
-69.3087
  0
LINE
  5
A96
330
A02
100
AcDbEntity
  8
Shape2DView009
100
AcDbLine
 10
-248.548
 20
211.517
 30
-69.3087
 11
-248.548
 21
207.017
 31
-69.3087
  0
LINE
  5
A97
330
A02
100
AcDbEntity
  8
Shape2DView009
100
AcDbLine
 10
-238.548
 20
207.017
 30
-69.3087
 11
-248.548
 21
207.017
 31
-69.3087
  0
SPLINE
  5
A98
330
A02
100
AcDbEntity
  8
Shape2DView010
100
AcDbSpline
210
0
220
0
230
1
 70
8
 71
3
 72
44
 73
40
 74
0
 40
0
 40
0
 40
0
 40
0
 40
0.264875
 40
0.264875
 40
0.264875
 40
0.510352
 40
0.510352
 40
0.510352
 40
0.574131
 40
0.574131
 40
0.574131
 40
0.637366
 40
0.637366
 40
0.637366
 40
0.786498
 40
0.786498
 40
0.786498
 40
0.839458
 40
0.839458
 40
0.839458
 40
0.909275
 40
0.909275
 40
0.909275
 40
0.948508
 40
0.948508
 40
0.948508
 40
0.981396
 40
0.981396
 40
0.981396
 40
0.995404
 40
0.995404
 40
0.995404
 40
1.01866
 40
1.01866
 40
1.01866
 40
1.03632
 40
1.03632
 40
1.03632
 40
1.05065
 40
1.05065
 40
1.05065
 40
1.05065
 10
-172.874
 20
241.155
 30
-69.3087
 10
-183.384
 20
237.784
 30
-69.3087
 10
-194.08
 20
235.002
 30
-69.3087
 10
-204.885
 20
232.757
 30
-69.3087
 10
-214.9
 20
230.683
 30
-69.3087
 10
-225.014
 20
229.067
 30
-69.3087
 10
-235.191
 20
228.036
 30
-69.3087
 10
-237.835
 20
227.769
 30
-69.3087
 10
-240.483
 20
227.545
 30
-69.3087
 10
-243.135
 20
227.364
 30
-69.3087
 10
-245.763
 20
227.186
 30
-69.3087
 10
-248.395
 20
227.048
 30
-69.3087
 10
-251.029
 20
226.984
 30
-69.3087
 10
-257.241
 20
226.839
 30
-69.3087
 10
-263.467
 20
227.088
 30
-69.3087
 10
-269.633
 20
227.871
 30
-69.3087
 10
-271.823
 20
228.148
 30
-69.3087
 10
-274.001
 20
228.5
 30
-69.3087
 10
-276.167
 20
228.927
 30
-69.3087
 10
-279.02
 20
229.494
 30
-69.3087
 10
-281.848
 20
230.198
 30
-69.3087
 10
-284.616
 20
231.097
 30
-69.3087
 10
-286.17
 20
231.603
 30
-69.3087
 10
-287.705
 20
232.171
 30
-69.3087
 10
-289.204
 20
232.825
 30
-69.3087
 10
-290.459
 20
233.373
 30
-69.3087
 10
-291.691
 20
233.981
 30
-69.3087
 10
-292.87
 20
234.681
 30
-69.3087
 10
-293.373
 20
234.978
 30
-69.3087
 10
-293.863
 20
235.295
 30
-69.3087
 10
-294.34
 20
235.632
 30
-69.3087
 10
-295.13
 20
236.193
 30
-69.3087
 10
-295.884
 20
236.812
 30
-69.3087
 10
-296.533
 20
237.534
 30
-69.3087
 10
-297.021
 20
238.083
 30
-69.3087
 10
-297.455
 20
238.695
 30
-69.3087
 10
-297.712
 20
239.389
 30
-69.3087
 10
-297.918
 20
239.952
 30
-69.3087
 10
-298
 20
240.562
 30
-69.3087
 10
-297.874
 20
241.155
 30
-69.3087
  0
SPLINE
  5
A99
330
A02
100
AcDbEntity
  8
Shape2DView010
100
AcDbSpline
210
0
220
0
230
1
 70
8
 71
3
 72
41
 73
37
 74
0
 40
0
 40
0
 40
0
 40
0
 40
0.0143182
 40
0.0143182
 40
0.0143182
 40
0.0318137
 40
0.0318137
 40
0.0318137
 40
0.0545466
 40
0.0545466
 40
0.0545466
 40
0.0831342
 40
0.0831342
 40
0.0831342
 40
0.117541
 40
0.117541
 40
0.117541
 40
0.1793
 40
0.1793
 40
0.1793
 40
0.251688
 40
0.251688
 40
0.251688
 40
0.390159
 40
0.390159
 40
0.390159
 40
0.450434
 40
0.450434
 40
0.450434
 40
0.512314
 40
0.512314
 40
0.512314
 40
0.752041
 40
0.752041
 40
0.752041
 40
1.01453
 40
1.01453
 40
1.01453
 40
1.01453
 10
-297.874
 20
241.155
 30
-69.3087
 10
-297.761
 20
241.75
 30
-69.3087
 10
-297.454
 20
242.281
 30
-69.3087
 10
-297.051
 20
242.725
 30
-69.3087
 10
-296.557
 20
243.266
 30
-69.3087
 10
-295.936
 20
243.673
 30
-69.3087
 10
-295.289
 20
244.006
 30
-69.3087
 10
-294.444
 20
244.437
 30
-69.3087
 10
-293.543
 20
244.747
 30
-69.3087
 10
-292.631
 20
245
 30
-69.3087
 10
-291.482
 20
245.316
 30
-69.3087
 10
-290.309
 20
245.539
 30
-69.3087
 10
-289.131
 20
245.715
 30
-69.3087
 10
-287.713
 20
245.926
 30
-69.3087
 10
-286.285
 20
246.065
 30
-69.3087
 10
-284.855
 20
246.166
 30
-69.3087
 10
-282.287
 20
246.344
 30
-69.3087
 10
-279.713
 20
246.398
 30
-69.3087
 10
-277.14
 20
246.398
 30
-69.3087
 10
-274.124
 20
246.395
 30
-69.3087
 10
-271.108
 20
246.314
 30
-69.3087
 10
-268.094
 20
246.201
 30
-69.3087
 10
-262.328
 20
245.982
 30
-69.3087
 10
-256.568
 20
245.654
 30
-69.3087
 10
-250.806
 20
245.363
 30
-69.3087
 10
-248.297
 20
245.238
 30
-69.3087
 10
-245.789
 20
245.118
 30
-69.3087
 10
-243.281
 20
244.985
 30
-69.3087
 10
-240.706
 20
244.847
 30
-69.3087
 10
-238.132
 20
244.703
 30
-69.3087
 10
-235.558
 20
244.551
 30
-69.3087
 10
-225.587
 20
243.964
 30
-69.3087
 10
-215.618
 20
243.332
 30
-69.3087
 10
-205.644
 20
242.781
 30
-69.3087
 10
-194.725
 20
242.169
 30
-69.3087
 10
-183.8
 20
241.651
 30
-69.3087
 10
-172.874
 20
241.155
 30
-69.3087
  0
LINE
  5
A9A
330
A02
100
AcDbEntity
  8
Shape2DView010
100
AcDbLine
 10
-248.174
 20
234.655
 30
-69.3087
 11
-258.174
 21
234.655
 31
-69.3087
  0
LINE
  5
A9B
330
A02
100
AcDbEntity
  8
Shape2DView010
100
AcDbLine
 10
-248.174
 20
234.655
 30
-69.3087
 11
-248.174
 21
230.155
 31
-69.3087
  0
LINE
  5
A9C
330
A02
100
AcDbEntity
  8
Shape2DView010
100
AcDbLine
 10
-258.174
 20
234.655
 30
-69.3087
 11
-258.174
 21
230.155
 31
-69.3087
  0
LINE
  5
A9D
330
A02
100
AcDbEntity
  8
Shape2DView010
100
AcDbLine
 10
-248.174
 20
230.155
 30
-69.3087
 11
-258.174
 21
230.155
 31
-69.3087
  0
LINE
  5
A9E
330
A02
100
AcDbEntity
  8
Shape2DView010
100
AcDbLine
 10
-265.85
 20
239.555
 30
-69.3087
 11
-282.466
 21
239.555
 31
-69.3087
  0
LINE
  5
A9F
330
A02
100
AcDbEntity
  8
Shape2DView010
100
AcDbLine
 10
-265.85
 20
239.555
 30
-69.3087
 11
-265.85
 21
235.055
 31
-69.3087
  0
LINE
  5
AA0
330
A02
100
AcDbEntity
  8
Shape2DView010
100
AcDbLine
 10
-265.85
 20
235.055
 30
-69.3087
 11
-282.466
 21
235.055
 31
-69.3087
  0
LINE
  5
AA1
330
A02
100
AcDbEntity
  8
Shape2DView010
100
AcDbLine
 10
-282.466
 20
239.555
 30
-69.3087
 11
-282.466
 21
235.055
 31
-69.3087
  0
LINE
  5
AA2
330
A02
100
AcDbEntity
  8
Shape2DView010
100
AcDbLine
 10
-222.874
 20
234.655
 30
-69.3087
 11
-232.874
 21
234.655
 31
-69.3087
  0
LINE
  5
AA3
330
A02
100
AcDbEntity
  8
Shape2DView010
100
AcDbLine
 10
-222.874
 20
234.655
 30
-69.3087
 11
-222.874
 21
230.155
 31
-69.3087
  0
LINE
  5
AA4
330
A02
100
AcDbEntity
  8
Shape2DView010
100
AcDbLine
 10
-232.874
 20
234.655
 30
-69.3087
 11
-232.874
 21
230.155
 31
-69.3087
  0
LINE
  5
AA5
330
A02
100
AcDbEntity
  8
Shape2DView010
100
AcDbLine
 10
-222.874
 20
230.155
 30
-69.3087
 11
-232.874
 21
230.155
 31
-69.3087
  0
LINE
  5
AA6
330
A02
100
AcDbEntity
  8
Shape2DView011
100
AcDbLine
 10
-396.852
 20
44.4182
 30
-69.3087
 11
-396.852
 21
51.7065
 31
-69.3087
  0
LINE
  5
AA7
330
A02
100
AcDbEntity
  8
Shape2DView011
100
AcDbLine
 10
-280.612
 20
2.11028
 30
-69.3087
 11
-396.852
 21
44.4182
 31
-69.3087
  0
LINE
  5
AA8
330
A02
100
AcDbEntity
  8
Shape2DView011
100
AcDbLine
 10
-396.852
 20
51.7065
 30
-69.3087
 11
-280.612
 21
94.0144
 31
-69.3087
  0
LINE
  5
AA9
330
A02
100
AcDbEntity
  8
Shape2DView011
100
AcDbLine
 10
-280.612
 20
94.0144
 30
-69.3087
 11
-280.612
 21
2.11028
 31
-69.3087
  0
LINE
  5
AAA
330
A02
100
AcDbEntity
  8
Shape2DView011
100
AcDbLine
 10
-387.042
 20
43.9808
 30
-69.3087
 11
-370.996
 21
43.9808
 31
-69.3087
  0
LINE
  5
AAB
330
A02
100
AcDbEntity
  8
Shape2DView011
100
AcDbLine
 10
-370.996
 20
43.9808
 30
-69.3087
 11
-370.996
 21
48.4808
 31
-69.3087
  0
LINE
  5
AAC
330
A02
100
AcDbEntity
  8
Shape2DView011
100
AcDbLine
 10
-387.042
 20
48.4808
 30
-69.3087
 11
-370.996
 21
48.4808
 31
-69.3087
  0
LINE
  5
AAD
330
A02
100
AcDbEntity
  8
Shape2DView011
100
AcDbLine
 10
-387.042
 20
43.9808
 30
-69.3087
 11
-387.042
 21
48.4808
 31
-69.3087
  0
LINE
  5
AAE
330
A02
100
AcDbEntity
  8
Shape2DView011
100
AcDbLine
 10
-369.386
 20
39.0808
 30
-69.3087
 11
-359.386
 21
39.0808
 31
-69.3087
  0
LINE
  5
AAF
330
A02
100
AcDbEntity
  8
Shape2DView011
100
AcDbLine
 10
-369.386
 20
39.0808
 30
-69.3087
 11
-369.386
 21
43.5808
 31
-69.3087
  0
LINE
  5
AB0
330
A02
100
AcDbEntity
  8
Shape2DView011
100
AcDbLine
 10
-359.386
 20
39.0808
 30
-69.3087
 11
-359.386
 21
43.5808
 31
-69.3087
  0
LINE
  5
AB1
330
A02
100
AcDbEntity
  8
Shape2DView011
100
AcDbLine
 10
-369.386
 20
43.5808
 30
-69.3087
 11
-359.386
 21
43.5808
 31
-69.3087
  0
LINE
  5
AB2
330
A02
100
AcDbEntity
  8
Shape2DView011
100
AcDbLine
 10
-344.086
 20
39.0808
 30
-69.3087
 11
-334.086
 21
39.0808
 31
-69.3087
  0
LINE
  5
AB3
330
A02
100
AcDbEntity
  8
Shape2DView011
100
AcDbLine
 10
-344.086
 20
39.0808
 30
-69.3087
 11
-344.086
 21
43.5808
 31
-69.3087
  0
LINE
  5
AB4
330
A02
100
AcDbEntity
  8
Shape2DView011
100
AcDbLine
 10
-334.086
 20
39.0808
 30
-69.3087
 11
-334.086
 21
43.5808
 31
-69.3087
  0
LINE
  5
AB5
330
A02
100
AcDbEntity
  8
Shape2DView011
100
AcDbLine
 10
-344.086
 20
43.5808
 30
-69.3087
 11
-334.086
 21
43.5808
 31
-69.3087
  0
LINE
  5
AB6
330
A02
100
AcDbEntity
  8
Shape2DView011
100
AcDbLine
 10
-376.397
 20
43.9808
 30
-69.3087
 11
-376.397
 21
48.4808
 31
-69.3087
  0
LINE
  5
AB7
330
A02
100
AcDbEntity
  8
Shape2DView011
100
AcDbLine
 10
-376.397
 20
43.9808
 30
-69.3087
 11
-370.996
 21
43.9808
 31
-69.3087
  0
LINE
  5
AB8
330
A02
100
AcDbEntity
  8
Shape2DView011
100
AcDbLine
 10
-376.397
 20
48.4808
 30
-69.3087
 11
-370.996
 21
48.4808
 31
-69.3087
  0
LINE
  5
AB9
330
A02
100
AcDbEntity
  8
Shape2DView012
100
AcDbLine
 10
-262.966
 20
12.4891
 30
0
 11
-262.966
 21
62.4891
 31
0
  0
LINE
  5
ABA
330
A02
100
AcDbEntity
  8
Shape2DView012
100
AcDbLine
 10
-185.966
 20
12.4891
 30
0
 11
-185.966
 21
62.4891
 31
0
  0
LINE
  5
ABB
330
A02
100
AcDbEntity
  8
Shape2DView012
100
AcDbLine
 10
-262.966
 20
12.4891
 30
0
 11
-185.966
 21
12.4891
 31
0
  0
LINE
  5
ABC
330
A02
100
AcDbEntity
  8
Shape2DView012
100
AcDbLine
 10
-262.966
 20
62.4891
 30
0
 11
-185.966
 21
62.4891
 31
0
  0
LINE
  5
ABD
330
A02
100
AcDbEntity
  8
Shape2DView013
100
AcDbLine
 10
-511.231
 20
202.833
 30
0
 11
-511.231
 21
252.833
 31
0
  0
LINE
  5
ABE
330
A02
100
AcDbEntity
  8
Shape2DView013
100
AcDbLine
 10
-361.231
 20
202.833
 30
0
 11
-361.231
 21
252.833
 31
0
  0
LINE
  5
ABF
330
A02
100
AcDbEntity
  8
Shape2DView013
100
AcDbLine
 10
-511.231
 20
202.833
 30
0
 11
-361.231
 21
202.833
 31
0
  0
LINE
  5
AC0
330
A02
100
AcDbEntity
  8
Shape2DView013
100
AcDbLine
 10
-511.231
 20
252.833
 30
0
 11
-361.231
 21
252.833
 31
0
  0
LINE
  5
AC1
330
A02
100
AcDbEntity
  8
Shape2DView014
100
AcDbLine
 10
-629.63
 20
17.728
 30
0
 11
-629.63
 21
67.728
 31
0
  0
LINE
  5
AC2
330
A02
100
AcDbEntity
  8
Shape2DView014
100
AcDbLine
 10
-409.63
 20
17.728
 30
0
 11
-409.63
 21
67.728
 31
0
  0
LINE
  5
AC3
330
A02
100
AcDbEntity
  8
Shape2DView014
100
AcDbLine
 10
-629.63
 20
17.728
 30
0
 11
-409.63
 21
17.728
 31
0
  0
LINE
  5
AC4
330
A02
100
AcDbEntity
  8
Shape2DView014
100
AcDbLine
 10
-629.63
 20
67.728
 30
0
 11
-409.63
 21
67.728
 31
0
  0
LINE
  5
AC5
330
A02
100
AcDbEntity
  8
Shape2DView015
100
AcDbLine
 10
-49.8121
 20
290.569
 30
0
 11
-281.802
 21
292.697
 31
0
  0
LINE
  5
AC6
330
A02
100
AcDbEntity
  8
Shape2DView015
100
AcDbLine
 10
-49.7204
 20
300.568
 30
0
 11
-281.711
 21
302.696
 31
0
  0
LINE
  5
AC7
330
A02
100
AcDbEntity
  8
Shape2DView015
100
AcDbLine
 10
-49.8121
 20
290.569
 30
0
 11
-49.7204
 21
300.568
 31
0
  0
LINE
  5
AC8
330
A02
100
AcDbEntity
  8
Shape2DView015
100
AcDbLine
 10
-281.802
 20
292.697
 30
0
 11
-281.711
 21
302.696
 31
0
  0
LINE
  5
AC9
330
A02
100
AcDbEntity
  8
Shape2DView016
100
AcDbLine
 10
-526.378
 20
305.541
 30
0
 11
-294.384
 21
303.905
 31
0
  0
LINE
  5
ACA
330
A02
100
AcDbEntity
  8
Shape2DView016
100
AcDbLine
 10
-526.448
 20
295.541
 30
0
 11
-294.454
 21
293.906
 31
0
  0
LINE
  5
ACB
330
A02
100
AcDbEntity
  8
Shape2DView016
100
AcDbLine
 10
-526.378
 20
305.541
 30
0
 11
-526.448
 21
295.541
 31
0
  0
LINE
  5
ACC
330
A02
100
AcDbEntity
  8
Shape2DView016
100
AcDbLine
 10
-294.384
 20
303.905
 30
0
 11
-294.454
 21
293.906
 31
0
  0
LINE
  5
ACD
330
A02
100
AcDbEntity
  8
Shape2DView017
100
AcDbLine
 10
-215.775
 20
262.965
 30
0
 11
-369.774
 21
263.57
 31
0
  0
LINE
  5
ACE
330
A02
100
AcDbEntity
  8
Shape2DView017
100
AcDbLine
 10
-215.736
 20
272.964
 30
0
 11
-369.735
 21
273.57
 31
0
  0
LINE
  5
ACF
330
A02
100
AcDbEntity
  8
Shape2DView017
100
AcDbLine
 10
-215.775
 20
262.965
 30
0
 11
-215.736
 21
272.964
 31
0
  0
LINE
  5
AD0
330
A02
100
AcDbEntity
  8
Shape2DView017
100
AcDbLine
 10
-369.774
 20
263.57
 30
0
 11
-369.735
 21
273.57
 31
0
  0
LINE
  5
AD1
330
A02
100
AcDbEntity
  8
Shape2DView018
100
AcDbLine
 10
-51.4094
 20
262.288
 30
0
 11
-205.407
 21
263.189
 31
0
  0
LINE
  5
AD2
330
A02
100
AcDbEntity
  8
Shape2DView018
100
AcDbLine
 10
-51.3509
 20
272.288
 30
0
 11
-205.348
 21
273.189
 31
0
  0
LINE
  5
AD3
330
A02
100
AcDbEntity
  8
Shape2DView018
100
AcDbLine
 10
-51.4094
 20
262.288
 30
0
 11
-51.3509
 21
272.288
 31
0
  0
LINE
  5
AD4
330
A02
100
AcDbEntity
  8
Shape2DView018
100
AcDbLine
 10
-205.407
 20
263.189
 30
0
 11
-205.348
 21
273.189
 31
0
  0
ENDSEC
  0
SECTION
  2
OBJECTS
  0
DICTIONARY
  5
F000
330
0
100
AcDbDictionary
  3
ACAD_GROUP
350
F001
  0
DICTIONARY
  5
F001
330
F000
100
AcDbDictionary
  0
ENDSEC
  0
EOF