999
FreeCAD v0.20 29410 (Git)
  0
SECTION
  2
HEADER
  9
$ACADVER
  1
AC1014
  9
$ACADMAINTVER
 70
     9
  9
$DWGCODEPAGE
  3
ANSI_1252
  9
$TEXTSTYLE
  7
STANDARD
  9
$DIMSTYLE
  2
STANDARD
  9
$DIMTXSTY
  7
STANDARD
  9
$CMLSTYLE
  2
STANDARD
  9
$LUNITS
 70
2
  9
$INSUNITS
 70
4
  9
$PEXTMAX
 10
50
 20
50
 30
50
  9
$PEXTMIN
 10
0
 20
0
 30
0
  9
$HANDSEED
  5
FFFF
  0
ENDSEC
  0
SECTION
  2
CLASSES
  0
CLASS
  1
ACDBDICTIONARYWDFLT
  2
AcDbDictionaryWithDefault
  3
ObjectDBX Classes
 90
        0
280
     0
281
     0
  0
CLASS
  1
XRECORD
  2
AcDbXrecord
  3
ObjectDBX Classes
 90
        0
280
     0
281
     0
  0
CLASS
  1
LWPOLYLINE
  2
AcDbPolyline
  3
ObjectDBX Classes
 90
        0
280
     0
281
     1
  0
ENDSEC
  0
SECTION
  2
TABLES
  0
TABLE
  2
VPORT
  5
20
330
0
100
AcDbSymbolTable
 70
     1
  0
VPORT
  5
21
330
20
100
AcDbSymbolTableRecord
100
AcDbViewportTableRecord
  2
*ACTIVE
 70
     0
  0
ENDTAB
  0
TABLE
  2
LTYPE
  5
22
330
0
100
AcDbSymbolTable
 70
     1
  0
LTYPE
  5
23
330
21
100
AcDbSymbolTableRecord
100
AcDbLinetypeTableRecord
  2
BYBLOCK
 70
     0
  3

 72
    65
 73
     0
 40
0.0
  0
LTYPE
  5
24
330
21
100
AcDbSymbolTableRecord
100
AcDbLinetypeTableRecord
  2
BYLAYER
 70
     0
  3

 72
    65
 73
     0
 40
0.0
  0
LTYPE
  5
25
330
21
100
AcDbSymbolTableRecord
100
AcDbLinetypeTableRecord
  2
CONTINUOUS
 70
     0
  3
Solid line
 72
    65
 73
     0
 40
0.0
  0
ENDTAB
  0
TABLE
  2
LAYER
  5
A0A
330
0
100
AcDbSymbolTable
 70
3
  0
LAYER
  5
A0B
330
A0A
100
AcDbSymbolTableRecord
100
AcDbLayerTableRecord
  2
0
 70
   0
 62
   7
  6
CONTINUOUS
  0
LAYER
  5
A0C
330
A0A
100
AcDbSymbolTableRecord
100
AcDbLayerTableRecord
  2
none
 70
    0
 62
    7
  6
CONTINUOUS
  0
LAYER
  5
A0D
330
A0A
100
AcDbSymbolTableRecord
100
AcDbLayerTableRecord
  2
Shape2DView001
 70
    0
 62
    7
  6
CONTINUOUS
  0
ENDTAB
  0
TABLE
  2
STYLE
  5
70
330
0
100
AcDbSymbolTable
 70
     2
  0
STYLE
  5
71
330
70
100
AcDbSymbolTableRecord
100
AcDbTextStyleTableRecord
  2
STANDARD
 70
     0
 40
0.0
 41
1.0
 50
0.0
 71
     0
 42
2.5
  3
arial.ttf
  4

  0
STYLE
  5
72
330
70
100
AcDbSymbolTableRecord
100
AcDbTextStyleTableRecord
  2
ANNOTATIVE
 70
     0
 40
0.0
 41
1.0
 50
0.0
 71
     0
 42
2.5
  3
arial.ttf
  4

  0
ENDTAB
  0
TABLE
  2
VIEW
  5
73
330
0
100
AcDbSymbolTable
 70
     0
  0
ENDTAB
  0
TABLE
  2
UCS
  5
74
330
0
100
AcDbSymbolTable
 70
     0
  0
ENDTAB
  0
TABLE
  2
APPID
  5
75
330
0
100
AcDbSymbolTable
 70
     2
  0
APPID
  5
76
330
75
100
AcDbSymbolTableRecord
100
AcDbRegAppTableRecord
  2
ACAD
 70
     0
  0
APPID
  5
77
330
75
100
AcDbSymbolTableRecord
100
AcDbRegAppTableRecord
  2
ACADANNOTATIVE
 70
     0
  0
ENDTAB
  0
TABLE
  2
DIMSTYLE
  5
78
330
0
100
AcDbSymbolTable
 70
     2
  0
DIMSTYLE
105
79
330
78
100
AcDbSymbolTableRecord
100
AcDbDimStyleTableRecord
  2
STANDARD
 70
     0
  3

  4

  5

  6

  7

 40
0.0
 41
2.5
 42
0.625
 43
3.75
 44
1.25
 45
0.0
 46
0.0
 47
0.0
 48
0.0
140
2.5
141
2.5
142
0.0
143
0.03937007874016
144
1.0
145
0.0
146
1.0
147
0.625
 71
     0
 72
     0
 73
     0
 74
     0
 75
     0
 76
     0
 77
     1
 78
     8
170
     0
171
     3
172
     1
173
     0
174
     0
175
     0
176
     0
177
     0
178
     0
270
     2
271
     2
272
     2
273
     2
274
     3
340
71
275
     0
280
     0
281
     0
282
     0
283
     0
284
     8
285
     0
286
     0
287
     3
288
     0
  0
ENDTAB
  0
TABLE
  2
BLOCK_RECORD
  5
A01
330
0
100
AcDbSymbolTable
  70
5
  0
BLOCK_RECORD
  5
A02
330
A01
100
AcDbSymbolTableRecord
100
AcDbBlockTableRecord
  2
*MODEL_SPACE
  0
BLOCK_RECORD
  5
A03
330
A01
100
AcDbSymbolTableRecord
100
AcDbBlockTableRecord
  2
*PAPER_SPACE
  0
ENDTAB
  0
ENDSEC
  0
SECTION
  2
BLOCKS
  0
BLOCK
  5
A04
330
A02
100
AcDbEntity
  8
0
100
AcDbBlockBegin
  2
*MODEL_SPACE
 70
   0
 10
0
 20
0
 30
0
  3
*MODEL_SPACE
  1
 
  0
ENDBLK
  5
A05
330
A02
100
AcDbEntity
  8
0
100
AcDbBlockEnd
  0
BLOCK
  5
A06
330
A03
100
AcDbEntity
 67
1
  8
0
100
AcDbBlockBegin
  2
*PAPER_SPACE
 70
   0
 10
0
 20
0
 30
0
  3
*PAPER_SPACE
  1
 
  0
ENDBLK
  5
A07
330
A03
100
AcDbEntity
 67
    1
  8
0
100
AcDbBlockEnd
  0
ENDSEC
  0
SECTION
  2
ENTITIES
  0
SPLINE
  5
A08
330
A02
100
AcDbEntity
  8
Shape2DView001
100
AcDbSpline
210
0
220
0
230
1
 70
8
 71
3
 72
50
 73
46
 74
0
 40
0
 40
0
 40
0
 40
0
 40
0.262597
 40
0.262597
 40
0.262597
 40
0.505344
 40
0.505344
 40
0.505344
 40
0.63013
 40
0.63013
 40
0.63013
 40
0.773759
 40
0.773759
 40
0.773759
 40
0.79972
 40
0.79972
 40
0.79972
 40
0.824525
 40
0.824525
 40
0.824525
 40
0.848087
 40
0.848087
 40
0.848087
 40
0.869973
 40
0.869973
 40
0.869973
 40
0.892212
 40
0.892212
 40
0.892212
 40
0.913139
 40
0.913139
 40
0.913139
 40
0.966609
 40
0.966609
 40
0.966609
 40
0.980975
 40
0.980975
 40
0.980975
 40
1.00424
 40
1.00424
 40
1.00424
 40
1.02064
 40
1.02064
 40
1.02064
 40
1.03248
 40
1.03248
 40
1.03248
 40
1.03248
 10
1.77636e-15
 20
100
 30
0
 10
-1.4385
 20
91.3657
 30
0
 10
-2.68574
 20
82.7001
 30
0
 10
-3.78822
 20
74.0167
 30
0
 10
-4.80291
 20
65.9891
 30
0
 10
-5.69566
 20
57.9453
 30
0
 10
-6.38905
 20
49.8833
 30
0
 10
-6.74386
 20
45.739
 30
0
 10
-7.04377
 20
41.5897
 30
0
 10
-7.25922
 20
37.4356
 30
0
 10
-7.50538
 20
32.6546
 30
0
 10
-7.64457
 20
27.8663
 30
0
 10
-7.58069
 20
23.0787
 30
0
 10
-7.56981
 20
22.2133
 30
0
 10
-7.55058
 20
21.3482
 30
0
 10
-7.523
 20
20.4833
 30
0
 10
-7.49457
 20
19.6571
 30
0
 10
-7.46109
 20
18.8309
 30
0
 10
-7.42255
 20
18.0048
 30
0
 10
-7.38732
 20
17.22
 30
0
 10
-7.35145
 20
16.4348
 30
0
 10
-7.27939
 20
15.653
 30
0
 10
-7.21246
 20
14.9268
 30
0
 10
-7.11431
 20
14.2034
 30
0
 10
-7.01491
 20
13.4804
 30
0
 10
-6.9139
 20
12.7458
 30
0
 10
-6.8116
 20
12.0115
 30
0
 10
-6.68521
 20
11.2811
 30
0
 10
-6.56608
 20
10.5936
 30
0
 10
-6.42618
 20
9.91016
 30
0
 10
-6.2655
 20
9.2309
 30
0
 10
-5.8551
 20
7.49746
 30
0
 10
-5.31371
 20
5.78797
 30
0
 10
-4.546
 20
4.17742
 30
0
 10
-4.34
 20
3.74456
 30
0
 10
-4.11493
 20
3.32187
 30
0
 10
-3.8708
 20
2.90935
 30
0
 10
-3.47361
 20
2.24401
 30
0
 10
-3.02459
 20
1.60438
 30
0
 10
-2.48317
 20
1.04729
 30
0
 10
-2.10051
 20
0.659152
 30
0
 10
-1.67094
 20
0.300742
 30
0
 10
-1.16244
 20
0.0887361
 30
0
 10
-0.794157
 20
-0.0616131
 30
0
 10
-0.388197
 20
-0.12322
 30
0
 10
0
 20
-6.93889e-18
 30
0
  0
SPLINE
  5
A09
330
A02
100
AcDbEntity
  8
Shape2DView001
100
AcDbSpline
210
0
220
0
230
1
 70
8
 71
3
 72
47
 73
43
 74
0
 40
0
 40
0
 40
0
 40
0
 40
0.0117663
 40
0.0117663
 40
0.0117663
 40
0.0273092
 40
0.0273092
 40
0.0273092
 40
0.0481195
 40
0.0481195
 40
0.0481195
 40
0.0605719
 40
0.0605719
 40
0.0605719
 40
0.0896095
 40
0.0896095
 40
0.0896095
 40
0.124379
 40
0.124379
 40
0.124379
 40
0.144056
 40
0.144056
 40
0.144056
 40
0.166842
 40
0.166842
 40
0.166842
 40
0.190576
 40
0.190576
 40
0.190576
 40
0.24158
 40
0.24158
 40
0.24158
 40
0.385206
 40
0.385206
 40
0.385206
 40
0.509466
 40
0.509466
 40
0.509466
 40
0.750393
 40
0.750393
 40
0.750393
 40
1.01017
 40
1.01017
 40
1.01017
 40
1.01017
 10
0
 20
-5.55112e-17
 30
0
 10
0.386862
 20
0.115863
 30
0
 10
0.690348
 20
0.383576
 30
0
 10
0.926866
 20
0.699794
 30
0
 10
1.23671
 20
1.11884
 30
0
 10
1.43633
 20
1.60469
 30
0
 10
1.60236
 20
2.09439
 30
0
 10
1.82112
 20
2.75335
 30
0
 10
1.97183
 20
3.43226
 30
0
 10
2.10373
 20
4.113
 30
0
 10
2.18137
 20
4.52082
 30
0
 10
2.2524
 20
4.92977
 30
0
 10
2.31682
 20
5.33988
 30
0
 10
2.46815
 20
6.29595
 30
0
 10
2.59572
 20
7.25556
 30
0
 10
2.71832
 20
8.21566
 30
0
 10
2.86575
 20
9.36528
 30
0
 10
2.99893
 20
10.5165
 30
0
 10
3.13471
 20
11.6676
 30
0
 10
3.2149
 20
12.3187
 30
0
 10
3.28884
 20
12.9704
 30
0
 10
3.35654
 20
13.6227
 30
0
 10
3.43167
 20
14.3785
 30
0
 10
3.48707
 20
15.1362
 30
0
 10
3.55926
 20
15.8923
 30
0
 10
3.63445
 20
16.6799
 30
0
 10
3.72785
 20
17.4656
 30
0
 10
3.80649
 20
18.2528
 30
0
 10
3.97174
 20
19.9449
 30
0
 10
4.08655
 20
21.6418
 30
0
 10
4.18899
 20
23.3386
 30
0
 10
4.46386
 20
28.1186
 30
0
 10
4.53684
 20
32.9083
 30
0
 10
4.50163
 20
37.6954
 30
0
 10
4.4696
 20
41.8373
 30
0
 10
4.35294
 20
45.9783
 30
0
 10
4.18067
 20
50.1167
 30
0
 10
3.84354
 20
58.1407
 30
0
 10
3.30579
 20
66.1553
 30
0
 10
2.64373
 20
74.1587
 30
0
 10
1.92502
 20
82.788
 30
0
 10
1.06019
 20
91.4058
 30
0
 10
-1.49264e-15
 20
100
 30
0
  0
ENDSEC
  0
SECTION
  2
OBJECTS
  0
DICTIONARY
  5
F000
330
0
100
AcDbDictionary
  3
ACAD_GROUP
350
F001
  0
DICTIONARY
  5
F001
330
F000
100
AcDbDictionary
  0
ENDSEC
  0
EOF